<svg viewBox="0 0 330 200" xmlns="http://www.w3.org/2000/svg"><g><g><g><g><g><line x1="51.125" y1="175" x2="46.125" y2="175" style="visibility: inherit;" fill="rgb(0, 0, 0)" stroke="rgb(204, 204, 204)" stroke-width="1px"></line><line x1="51.125" y1="155.55555555555554" x2="46.125" y2="155.55555555555554" style="visibility: inherit;" fill="rgb(0, 0, 0)" stroke="rgb(204, 204, 204)" stroke-width="1px"></line><line x1="51.125" y1="136.11111111111111" x2="46.125" y2="136.11111111111111" style="visibility: inherit;" fill="rgb(0, 0, 0)" stroke="rgb(204, 204, 204)" stroke-width="1px"></line><line x1="51.125" y1="116.66666666666666" x2="46.125" y2="116.66666666666666" style="visibility: inherit;" fill="rgb(0, 0, 0)" stroke="rgb(204, 204, 204)" stroke-width="1px"></line><line x1="51.125" y1="97.22222222222223" x2="46.125" y2="97.22222222222223" style="visibility: inherit;" fill="rgb(0, 0, 0)" stroke="rgb(204, 204, 204)" stroke-width="1px"></line><line x1="51.125" y1="77.77777777777777" x2="46.125" y2="77.77777777777777" style="visibility: inherit;" fill="rgb(0, 0, 0)" stroke="rgb(204, 204, 204)" stroke-width="1px"></line><line x1="51.125" y1="58.33333333333334" x2="46.125" y2="58.33333333333334" style="visibility: inherit;" fill="rgb(0, 0, 0)" stroke="rgb(204, 204, 204)" stroke-width="1px"></line><line x1="51.125" y1="38.88888888888891" x2="46.125" y2="38.88888888888891" style="visibility: inherit;" fill="rgb(0, 0, 0)" stroke="rgb(204, 204, 204)" stroke-width="1px"></line><line x1="51.125" y1="19.444444444444454" x2="46.125" y2="19.444444444444454" style="visibility: inherit;" fill="rgb(0, 0, 0)" stroke="rgb(204, 204, 204)" stroke-width="1px"></line><line x1="51.125" y1="0" x2="46.125" y2="0" style="visibility: inherit;" fill="rgb(0, 0, 0)" stroke="rgb(204, 204, 204)" stroke-width="1px"></line></g><g transform="translate(41.125, 0)"><text x="0" y="175" dx="0em" dy="0.3em" style="text-anchor: end; visibility: hidden; font-family: Roboto, sans-serif; font-size: 12px; font-weight: 200;" fill="rgb(50, 49, 63)" stroke="none" stroke-width="1px">-0.1</text><text x="0" y="155.55555555555554" dx="0em" dy="0.3em" style="text-anchor: end; visibility: inherit; font-family: Roboto, sans-serif; font-size: 12px; font-weight: 200;" fill="rgb(50, 49, 63)" stroke="none" stroke-width="1px">0</text><text x="0" y="136.11111111111111" dx="0em" dy="0.3em" style="text-anchor: end; visibility: hidden; font-family: Roboto, sans-serif; font-size: 12px; font-weight: 200;" fill="rgb(50, 49, 63)" stroke="none" stroke-width="1px">0.1</text><text x="0" y="116.66666666666666" dx="0em" dy="0.3em" style="text-anchor: end; visibility: inherit; font-family: Roboto, sans-serif; font-size: 12px; font-weight: 200;" fill="rgb(50, 49, 63)" stroke="none" stroke-width="1px">0.2</text><text x="0" y="97.22222222222223" dx="0em" dy="0.3em" style="text-anchor: end; visibility: hidden; font-family: Roboto, sans-serif; font-size: 12px; font-weight: 200;" fill="rgb(50, 49, 63)" stroke="none" stroke-width="1px">0.3</text><text x="0" y="77.77777777777777" dx="0em" dy="0.3em" style="text-anchor: end; visibility: inherit; font-family: Roboto, sans-serif; font-size: 12px; font-weight: 200;" fill="rgb(50, 49, 63)" stroke="none" stroke-width="1px">0.4</text><text x="0" y="58.33333333333334" dx="0em" dy="0.3em" style="text-anchor: end; visibility: hidden; font-family: Roboto, sans-serif; font-size: 12px; font-weight: 200;" fill="rgb(50, 49, 63)" stroke="none" stroke-width="1px">0.5</text><text x="0" y="38.88888888888891" dx="0em" dy="0.3em" style="text-anchor: end; visibility: inherit; font-family: Roboto, sans-serif; font-size: 12px; font-weight: 200;" fill="rgb(50, 49, 63)" stroke="none" stroke-width="1px">0.6</text><text x="0" y="19.444444444444454" dx="0em" dy="0.3em" style="text-anchor: end; visibility: hidden; font-family: Roboto, sans-serif; font-size: 12px; font-weight: 200;" fill="rgb(50, 49, 63)" stroke="none" stroke-width="1px">0.7</text><text x="0" y="0" dx="0em" dy="0.3em" style="text-anchor: end; visibility: hidden; font-family: Roboto, sans-serif; font-size: 12px; font-weight: 200;" fill="rgb(50, 49, 63)" stroke="none" stroke-width="1px">0.8</text></g><line x1="51.125" y1="0" x2="51.125" y2="175" fill="rgb(0, 0, 0)" stroke="rgb(204, 204, 204)" stroke-width="1px"></line></g></g><g transform="translate(51, 0)" clip-path="url(#clip_0)"><clipPath id="clip_0"><rect width="278" height="175"></rect></clipPath><g><g><g><line x1="0" y1="0" x2="0" y2="175" fill="rgb(0, 0, 0)" stroke="rgb(60, 60, 60)" stroke-width="1px" opacity="0.25"></line><line x1="23.239583333333332" y1="0" x2="23.239583333333332" y2="175" fill="rgb(0, 0, 0)" stroke="rgb(60, 60, 60)" stroke-width="1px" opacity="0.25"></line><line x1="46.479166666666664" y1="0" x2="46.479166666666664" y2="175" fill="rgb(0, 0, 0)" stroke="rgb(60, 60, 60)" stroke-width="1px" opacity="0.25"></line><line x1="69.71875" y1="0" x2="69.71875" y2="175" fill="rgb(0, 0, 0)" stroke="rgb(60, 60, 60)" stroke-width="1px" opacity="0.25"></line><line x1="92.95833333333333" y1="0" x2="92.95833333333333" y2="175" fill="rgb(0, 0, 0)" stroke="rgb(60, 60, 60)" stroke-width="1px" opacity="0.25"></line><line x1="116.19791666666667" y1="0" x2="116.19791666666667" y2="175" fill="rgb(0, 0, 0)" stroke="rgb(60, 60, 60)" stroke-width="1px" opacity="0.25"></line><line x1="139.4375" y1="0" x2="139.4375" y2="175" fill="rgb(0, 0, 0)" stroke="rgb(60, 60, 60)" stroke-width="1px" opacity="0.25"></line><line x1="162.67708333333334" y1="0" x2="162.67708333333334" y2="175" fill="rgb(0, 0, 0)" stroke="rgb(60, 60, 60)" stroke-width="1px" opacity="0.25"></line><line x1="185.91666666666666" y1="0" x2="185.91666666666666" y2="175" fill="rgb(0, 0, 0)" stroke="rgb(60, 60, 60)" stroke-width="1px" opacity="0.25"></line><line x1="209.15625" y1="0" x2="209.15625" y2="175" fill="rgb(0, 0, 0)" stroke="rgb(60, 60, 60)" stroke-width="1px" opacity="0.25"></line><line x1="232.39583333333334" y1="0" x2="232.39583333333334" y2="175" fill="rgb(0, 0, 0)" stroke="rgb(60, 60, 60)" stroke-width="1px" opacity="0.25"></line><line x1="255.63541666666666" y1="0" x2="255.63541666666666" y2="175" fill="rgb(0, 0, 0)" stroke="rgb(60, 60, 60)" stroke-width="1px" opacity="0.25"></line><line x1="278.875" y1="0" x2="278.875" y2="175" fill="rgb(0, 0, 0)" stroke="rgb(60, 60, 60)" stroke-width="1px" opacity="0.25"></line></g><g><line x1="0" y1="175" x2="278.875" y2="175" fill="rgb(0, 0, 0)" stroke="rgb(60, 60, 60)" stroke-width="1px" opacity="0.25"></line><line x1="0" y1="155.55555555555554" x2="278.875" y2="155.55555555555554" fill="rgb(0, 0, 0)" stroke="rgb(60, 60, 60)" stroke-width="1px" opacity="0.25"></line><line x1="0" y1="136.11111111111111" x2="278.875" y2="136.11111111111111" fill="rgb(0, 0, 0)" stroke="rgb(60, 60, 60)" stroke-width="1px" opacity="0.25"></line><line x1="0" y1="116.66666666666666" x2="278.875" y2="116.66666666666666" fill="rgb(0, 0, 0)" stroke="rgb(60, 60, 60)" stroke-width="1px" opacity="0.25"></line><line x1="0" y1="97.22222222222223" x2="278.875" y2="97.22222222222223" fill="rgb(0, 0, 0)" stroke="rgb(60, 60, 60)" stroke-width="1px" opacity="0.25"></line><line x1="0" y1="77.77777777777777" x2="278.875" y2="77.77777777777777" fill="rgb(0, 0, 0)" stroke="rgb(60, 60, 60)" stroke-width="1px" opacity="0.25"></line><line x1="0" y1="58.33333333333334" x2="278.875" y2="58.33333333333334" fill="rgb(0, 0, 0)" stroke="rgb(60, 60, 60)" stroke-width="1px" opacity="0.25"></line><line x1="0" y1="38.88888888888891" x2="278.875" y2="38.88888888888891" fill="rgb(0, 0, 0)" stroke="rgb(60, 60, 60)" stroke-width="1px" opacity="0.25"></line><line x1="0" y1="19.444444444444454" x2="278.875" y2="19.444444444444454" fill="rgb(0, 0, 0)" stroke="rgb(60, 60, 60)" stroke-width="1px" opacity="0.25"></line><line x1="0" y1="0" x2="278.875" y2="0" fill="rgb(0, 0, 0)" stroke="rgb(60, 60, 60)" stroke-width="1px" opacity="0.25"></line></g></g></g><g><g><line x1="0" y1="155.55555555555554" x2="278.875" y2="155.55555555555554" fill="rgb(0, 0, 0)" stroke="rgb(153, 153, 153)" stroke-width="1.5px"></line></g></g><g><g><line x1="23.239583333333332" y1="0" x2="23.239583333333332" y2="175" fill="rgb(0, 0, 0)" stroke="rgb(153, 153, 153)" stroke-width="1.5px"></line></g></g><g><g><g><g><g><path stroke="rgb(255, 112, 67)" stroke-width="2px" d="M27.599329166666664,-3.7826910168063055L27.775949999999998,7.5451331070935295L28.008345833333333,2.1440214336126724L28.24074166666667,10.259135396424341L28.4731375,-0.9028254698605687L28.705533333333335,2.2753694030107825L28.937929166666663,-3.0859593256588216L29.402720833333333,-10.080043637291636L29.635116666666665,3.7989805634968095L29.8675125,3.91739592564237L30.044133333333335,15.713245890574932L30.27652916666667,16.729390503264458L30.508924999999998,20.433459123135904L30.741320833333333,2.6257256175080927L30.973716666666665,6.949240941256934L31.2061125,9.528765493485519L31.438508333333335,13.443356824615252L31.670904166666666,3.948688515156304L31.9033,6.573770851656935L32.13569583333333,13.44623604321493L32.31231666666667,22.42054843969114L32.77710833333333,19.56655537719785L33.009504166666666,22.971701755922304L33.2419,22.588536157356963L33.474295833333336,17.542698060102342L33.706691666666664,24.67271610620009L33.9390875,28.8222795863522L34.171483333333335,26.53567893802063L34.40387916666667,20.18379816171941L34.5805,24.915245797153617L34.812895833333336,31.351729540938685L35.04529166666667,34.09288689695142L35.2776875,30.09340821823183L35.510083333333334,33.84594886309059L35.74247916666667,24.787486605675195L35.974875000000004,20.74555788539895L36.20727083333333,17.45101790092147L36.43966666666666,17.06153447373423L36.6720625,17.493487897510988L36.848683333333334,24.182931550805183L37.08107916666667,12.76694070737725L37.313475000000004,22.67182772886142L37.54587083333333,33.40935955430575L37.77826666666667,43.484780092947794L38.0106625,45.79547458881925L38.24305833333333,37.347011649577524L38.475454166666665,39.94308855505247L38.70785,34.12093925300118L38.940245833333336,30.60195278486006L39.11686666666667,37.437495577496655L39.3492625,46.68959371867851L39.58165833333333,53.68399960041555L39.814054166666665,47.49949023469594L40.04645,39.81060704131839L40.278845833333335,28.185304591959877L40.51124166666666,34.801657683925846L40.743637500000006,39.892962719698296L40.97603333333333,43.78344855780706L41.20842916666666,47.11010441427613L41.38505,55.37182229572313L41.617445833333335,55.62726381111412L41.84984166666666,54.46066002328821L42.082237500000005,53.1881620238335L42.31463333333333,43.638840567741134L42.54702916666666,47.037423535523146L42.779425,44.11037060678244L43.01182083333333,43.64778216517115L43.24421666666667,40.56574513019807L43.4766125,33.196495033313965L43.65323333333333,45.091457533378815L43.88562916666666,53.30893743752471L44.118025,53.03966981733593L44.35042083333333,51.50630437207406L44.582816666666666,42.43269951201125L44.8152125,44.58853809006334L45.047608333333336,42.92200834996559L45.280004166666664,41.290405116494206L45.51240000000001,29.205154081062553L45.744795833333335,43.60149120614826L45.921416666666666,54.39351594311204L46.1538125,49.600764090988264L46.386208333333336,49.34549078521193L46.618604166666664,51.29862779153291L46.851000000000006,57.04393928842818L47.083395833333334,51.06829147231161L47.31579166666666,52.260618386152196L47.548187500000004,52.63070827042694L47.78058333333333,47.79425838777802L48.01297916666667,34.717441143396464L48.189600000000006,54.9526658903378L48.421995833333334,60.92973970875051L48.65439166666666,64.98663618269507L48.886787500000004,54.240999319107324L49.11918333333333,50.482764196499126L49.35157916666667,49.523603596219445L49.583975,49.101398461485005L49.81637083333334,57.02934203285753L50.048766666666666,66.57810008502604L50.28116249999999,59.86002257386141L50.45778333333333,66.58321893100847L50.69017916666667,72.679869388848L50.922575,66.95994930120209L51.15497083333334,66.28220238279441L51.387366666666665,64.26120282671202L51.61976249999999,64.58027987556467L51.852158333333335,54.641958117413054L52.08455416666666,40.6194468577271L52.31695,49.81905137271411L52.549345833333334,44.014147806787854L52.725966666666665,51.85198936181727L52.95836250000001,64.98598521276129L53.190758333333335,73.85694370529009L53.42315416666666,73.89902179290758L53.65555,64.53970574249767L53.88794583333333,64.556242774718L54.12034166666667,67.89472777029785L54.352737499999996,63.80179677104169L54.58513333333334,61.603136846262174L54.81752916666667,65.39367158542352L54.99415,68.64105050694445L55.22654583333333,71.39810228638086L55.45894166666667,76.7322916710576L55.691337499999996,72.42597646393912L55.92373333333334,77.21427093738109L56.156129166666666,68.06117872207967L56.388524999999994,68.3929250096523L56.62092083333334,68.34392805296307L56.853316666666665,69.38080233639025L57.0857125,65.2065957789619L57.26233333333334,68.70915609495503L57.494729166666666,72.66954194245733L57.727124999999994,65.17517639308639L57.959520833333336,60.80196053318526L58.191916666666664,62.082441882816376L58.4243125,59.14859878544984L58.656708333333334,54.59334503791387L58.88910416666667,61.565980686502265L59.1215,65.85669347735309L59.35389583333334,68.02215447811854L59.530516666666664,80.59033886399342L59.7629125,77.59233171559592L59.995308333333334,82.4841637037562L60.22770416666667,82.58268679248822L60.4601,74.99343031353939L60.69249583333334,75.11853407711763L60.92489166666667,75.51834694413265L61.157287499999995,76.33806964212741L61.38968333333333,75.94984862810159L61.622079166666666,71.21225823458833L61.7987,73.20243634480317L62.03109583333334,76.62213329426629L62.26349166666667,75.02649555972528L62.495887499999995,80.68141842772019L62.72828333333334,72.95341501236298L62.960679166666665,67.622310245304L63.193075,66.91633117983197L63.42547083333333,64.93096363220288L63.65786666666667,61.317376895125086L63.8902625,62.94795535871573L64.06688333333334,68.7363141548784L64.29927916666666,71.22984365588665L64.53167499999999,67.841260382663L64.76407083333334,67.14363924279324L64.99646666666666,69.14489228495665L65.2288625,77.84744761435083L65.46125833333333,74.8040057277885L65.69365416666668,73.35523004999335L65.92605,71.54472981627463L66.15844583333333,72.40312724154599L66.33506666666666,81.581324312139L66.5674625,84.06404626087588L66.79985833333333,84.87214402718422L67.03225416666668,81.35430111306752L67.26465,83.76370929635937L67.49704583333333,68.39956387322239L67.72944166666667,60.69574190508646L67.9618375,66.29858911036246L68.19423333333333,72.52274427148312L68.42662916666667,68.26599462826616L68.60325,72.24086643324699L68.83564583333333,75.20750667624849L69.06804166666667,74.38431922181354L69.3004375,83.5199059991407L69.53283333333333,82.12937830246362L69.76522916666666,82.01335527182411L69.997625,74.64773556863409L70.23002083333334,76.7703238536757L70.46241666666666,76.40831146431351L70.6948125,79.75891720197694L70.87143333333333,71.90347248877345L71.10382916666667,79.88999148944174L71.33622500000001,90.94638367272243L71.56862083333333,89.00241570869514L71.80101666666667,85.99912706666183L72.0334125,86.21981597799521L72.26580833333333,80.30117803926346L72.49820416666667,75.47239223257414L72.7306,78.30883425621283L72.96299583333334,79.07030838021494L73.13961666666665,84.39686186816938L73.3720125,91.5700582592751L73.60440833333334,91.73680279891751L73.83680416666667,86.73778375530875L74.0692,87.66908043285325L74.30159583333334,90.03458880248404L74.53399166666667,86.25835694588862L74.76638750000001,83.38324047423652L74.99878333333334,82.87000620078726L75.23117916666666,79.51705639455395L75.4078,83.03409249520507L75.64019583333334,84.27591421764815L75.87259166666666,82.78198923472269L76.1049875,79.83077107021103L76.33738333333334,73.16708031186792L76.56977916666668,75.96098235316012L76.80217499999999,77.74640206469587L77.03457083333333,88.00253858550487L77.26696666666668,86.74694989353873L77.49936249999999,85.34021288028964L77.67598333333333,85.56232954981888L77.90837916666666,83.84542369399247L78.140775,80.9961696015358L78.37317083333333,76.32523984325621L78.60556666666666,73.12766478824234L78.8379625,80.3561545062784L79.07035833333335,81.44225603897381L79.30275416666666,85.57792434363306L79.53515,85.08849307127703L79.76754583333333,82.88366601073157L79.94416666666667,86.01903593992573L80.17656249999999,89.25241111920836L80.40895833333333,95.88626259754702L80.64135416666667,99.89446779603128L80.87375,90.837093541774L81.10614583333333,88.85353188698662L81.33854166666667,85.95427144160969L81.5709375,81.87369076233436L81.80333333333333,79.76923466416991L82.03572916666667,79.30805539173231L82.21235,85.86683332638019L82.44474583333334,90.78787216706057L82.67714166666666,92.89146671193626L82.9095375,85.34173534014496L83.14193333333333,85.15658503856133L83.37432916666667,89.93336216262503L83.83912083333333,85.81642806587202L84.07151666666667,84.65232590868621L84.30391250000001,79.86443894459867L84.48053333333333,86.6541511589862L84.71292916666667,85.69047074166399L84.945325,90.67268542834596L85.17772083333334,92.6004820078587L85.41011666666667,92.22578682561569L85.6425125,91.73905664188244L85.87490833333334,89.99169066318086L86.10730416666668,91.17389808291458L86.3397,101.38955822371665L86.57209583333334,97.92071156836154L86.74871666666667,96.45385030788142L86.98111250000001,95.56842542683923L87.21350833333332,89.29664914671753L87.44590416666666,94.2398235690445L87.67830000000001,82.86075982402865L87.91069583333332,80.11379760938216L88.14309166666666,79.69328754606245L88.3754875,86.63980930458278L88.60788333333333,77.7250793408665L88.84027916666666,84.76065967799437L89.01689999999999,93.79336053721832L89.24929583333333,93.59438779045114L89.48169166666668,88.28668306854085L89.71408749999999,87.76473382796212L89.94648333333333,81.93953800013877L90.17887916666668,88.5473604402946L90.411275,92.09025733085512L90.64367083333333,87.16036186728766L90.87606666666667,93.73405963515242L91.1084625,95.77092072236208L91.28508333333333,103.56817326135703L91.51747916666666,105.18236109328627L91.749875,109.98485465076979L91.98227083333333,100.48279127349241L92.21466666666666,103.92032099950846L92.4470625,95.88242431395375L92.67945833333333,93.63874649949743L92.91185416666667,80.34444007842467L93.14425,81.14410107805897L93.37664583333333,84.24244429619519L93.55326666666667,85.25653120780169L93.7856625,87.50973478432337L94.01805833333333,91.18124254497063L94.25045416666667,94.88203046823179L94.48285,94.95447666310054L94.71524583333334,81.00045649062595L94.94764166666666,89.24468619999557L95.1800375,84.79435508144923L95.41243333333334,91.01490608999282L95.64482916666665,96.85687322705478L95.82145,102.87966231081579L96.05384583333333,103.59280486647503L96.28624166666667,99.41302717904114L96.51863750000001,101.34632715292692L96.75103333333333,100.36911471576906L96.98342916666667,103.63179195922133L97.21582500000001,95.60937043098187L97.44822083333332,95.21376312084212L97.68061666666667,92.89909540465467L97.91301250000001,88.72484356142346L98.08963333333334,91.07633882747449L98.32202916666665,99.24592520520237L98.554425,100.44140293301896L98.78682083333334,106.13272002466242L99.01921666666667,106.93612615277335L99.2516125,101.18426639509842L99.48400833333334,99.91780316038518L99.71640416666666,98.93142127780935L99.9488,99.85970231831034L100.18119583333333,92.31899218854613L100.35781666666666,97.68943914696625L100.5902125,101.70063837390836L100.82260833333333,93.82979225860389L101.05500416666666,96.55677177225031L101.2874,101.03781417305623L101.51979583333333,97.20475816571593L101.75219166666666,96.97238815797363L101.9845875,99.75756441007518L102.21698333333333,103.22572536604547L102.44937916666667,101.50773613057702L102.626,108.93477644895151L102.85839583333333,108.73452585099254L103.09079166666666,109.63202993103067L103.3231875,107.84521097623892L103.55558333333333,108.14029435459263L103.78797916666666,104.69410302989439L104.020375,98.55724701932724L104.25277083333334,93.20968956872152L104.48516666666666,88.35067599357428L104.7175625,90.9690296279532L104.89418333333333,101.03738295134096L105.12657916666667,106.10571817150758L105.358975,103.40981744416518L105.59137083333333,109.29980934606107L105.82376666666667,103.64370322791405L106.05616250000001,100.9238932457957L106.28855833333333,98.85651618471769L106.52095416666667,96.43695841370638L106.75335,99.37303093489511L106.98574583333333,103.02858670337235L107.16236666666666,103.5507498039465L107.3947625,107.78521157425605L107.62715833333334,103.09025745530771L107.85955416666665,98.55916633106513L108.09195,102.32113394808451L108.32434583333334,106.51726354694705L108.55674166666667,97.57758118432567L108.7891375,101.32798190878248L109.02153333333334,97.94131605075316L109.25392916666667,94.81151752618861L109.43055000000001,96.1249340087382L109.66294583333332,100.79410855367362L109.89534166666667,102.88711306754166L110.1277375,110.33295648345067L110.36013333333334,110.38996601332455L110.59252916666667,104.8908816563176L110.824925,100.46558705358892L111.05732083333334,98.1271662622708L111.28971666666666,98.55203260839093L111.52211249999999,98.18702834761206L111.69873333333334,103.59594304114223L111.93112916666666,107.2324148871811L112.163525,107.47574765499965L112.39592083333334,103.00130287220003L112.8607125,107.79371963917501L113.09310833333333,112.06270543258293L113.32550416666666,110.72828450977019L113.5579,102.61718519039479L113.79029583333335,98.21890154650988L113.96691666666668,97.67170570462321L114.19931249999999,100.33961368900165L114.43170833333333,97.50209165925094L114.66410416666668,107.99013314633157L114.89649999999999,102.04153573638683L115.12889583333333,107.6367596421893L115.36129166666667,107.33358963799677L115.59368749999999,106.69318155464187L115.82608333333333,104.94965576075838L116.05847916666667,102.89255808889197L116.2351,101.88027413679094L116.46749583333334,96.43187312810711L116.69989166666666,100.27071290331538L116.9322875,99.2543479986039L117.16468333333334,89.80083161382825L117.39707916666666,97.34190526545086L117.629475,89.88786426283276L117.86187083333334,94.5261798195549L118.09426666666667,102.21866880544407L118.3266625,101.58182027087969L118.50328333333333,103.64824710906696L118.73567916666667,107.69193931261061L118.968075,115.58157680733615L119.20047083333333,109.1784453423371L119.43286666666667,112.60570257427926L119.6652625,107.82585053026921L119.89765833333334,107.78125552695474L120.13005416666667,109.9495981834023L120.36245,109.89463635494445L120.59484583333334,113.96895754595013L120.77146666666667,105.226722541342L121.23625833333334,108.18287237789951L121.46865416666667,105.12586741895178L121.70105000000001,104.71258685539583L121.93344583333332,97.5194263656628L122.16584166666667,105.09026301435117L122.39823750000001,109.08437081362364L122.63063333333332,106.02350491528382L122.86302916666666,101.55522639499905L123.03965,108.95910407736646L123.27204583333334,106.36213290076304L123.50444166666668,105.64636350103724L123.7368375,112.1870746505635L123.96923333333334,115.68857823896005L124.20162916666668,111.38973862316104L124.43402499999999,105.55157308676047L124.66642083333333,104.48979921081583L124.89881666666668,105.40146952367512L125.13121249999999,100.56157114073314L125.30783333333332,103.77305541944644L125.54022916666666,110.98326626791508L125.772625,110.25155421784558L126.00502083333333,106.08779498618135L126.23741666666666,105.76347614535464L126.4698125,106.67638450654279L126.70220833333333,110.34499859023583L126.93460416666666,112.94186224333208L127.167,106.63290029640055L127.39939583333333,107.12547994512684L127.57601666666667,105.87466436738791L127.8084125,108.6232050942283L128.04080833333333,111.34693852518737L128.2732041666667,113.03787584642085L128.5056,114.53406479614019L128.73799583333334,114.12781877644416L128.97039166666667,106.38897003726696L129.2027875,103.13954885666162L129.43518333333333,107.02988573099593L129.66757916666666,109.25609533235018L129.8442,104.13727467470783L130.07659583333333,110.01291927160207L130.30899166666666,115.06809019920063L130.5413875,114.57632208194433L130.77378333333334,116.54138655724452L131.00617916666667,101.37330288447336L131.238575,95.58379997996262L131.47097083333333,93.65733547455066L131.70336666666665,100.42070140508412L131.9357625,106.47888727360856L132.11238333333333,109.17692404744693L132.34477916666668,116.82954367387231L132.577175,112.82042233645348L132.80957083333334,106.87013978196174L133.04196666666667,103.08754790484701L133.2743625,104.36821959941796L133.50675833333332,102.75017085523268L133.73915416666665,105.66744911383108L133.97155,102.17527910695783L134.20394583333334,100.01379707232898L134.38056666666665,109.97324071260431L134.6129625,99.97756384305771L134.84535833333334,106.35457520513637L135.07775416666667,106.01790604555615L135.31015,107.5202970492019L135.54254583333332,107.227264504198L135.77494166666668,107.48696270552435L136.0073375,114.44303995152609L136.23973333333333,111.90910574596634L136.47212916666666,114.26521078163624L136.64875,118.53694317653984L137.11354166666666,116.79574594314687L137.3459375,112.87516789882852L137.57833333333335,115.61394551412616L137.81072916666665,114.26602815333153L138.043125,116.36626222576585L138.27552083333333,115.99068664154277L138.50791666666666,116.60251369328483L138.7403125,113.36194873005859L138.91693333333333,121.06532583723889L139.14932916666666,126.86980295235173L139.38172500000002,122.49177419641833L139.61412083333335,118.47925475007493L139.84651666666664,113.60734417497834L140.0789125,112.83241446159778L140.31130833333333,103.94304309823943L140.54370416666666,111.8453371397982L140.7761,109.13955708908351L141.00849583333334,113.46098132604084L141.18511666666666,122.13935693374177L141.4175125,112.90511142044471L141.64990833333334,116.32589910259702L141.88230416666667,115.27920221254409L142.11470000000003,116.56862593007527L142.34709583333333,113.59196948793992L142.57949166666666,112.84066010189532L143.04428333333334,101.20887989339055L143.27667916666667,99.49486653727385L143.45329999999998,110.27486185663197L143.68569583333334,115.36911983880684L143.91809166666667,114.07926734046113L144.1504875,112.05835564388418L144.38288333333335,112.31707709437096L144.61527916666665,101.55753870583199L144.84767499999998,99.15937405029244L145.08007083333334,101.72165625015481L145.31246666666667,103.7674998803114L145.54486250000002,111.71683162496207L145.7214833333333,117.1216127014236L145.95387916666667,120.06685085180524L146.186275,112.35780426114675L146.41867083333335,116.69505107684192L146.65106666666668,119.8288131518823L146.88346249999998,112.56005147346497L147.11585833333334,114.29996001272582L147.34825416666666,116.45306793712422L147.58065,109.10586345908747L147.81304583333335,109.05142115782324L147.98966666666666,114.08104481635864L148.2220625,121.4569708148939L148.45445833333332,115.27978191086135L148.68685416666668,117.07354577632502L148.91925,113.70436551191132L149.15164583333333,110.78692470534605L149.38404166666666,103.87044949723331L149.6164375,94.58456889161627L149.84883333333335,100.31537675084168L150.08122916666667,106.89730628927117L150.25785,107.9277916162518L150.49024583333332,108.69879802520914L150.72264166666668,114.00142999099532L150.9550375,112.67907227043413L151.18743333333333,116.40973180179923L151.4198291666667,113.39603709300766L151.652225,114.60884211731202L151.88462083333332,109.28629092670162L152.11701666666667,110.97436902964786L152.3494125,114.70891745382022L152.52603333333334,116.9844042946506L152.75842916666664,117.4305343310467L152.990825,120.43349831053868L153.22322083333333,113.60698944909264L153.45561666666666,113.50480477627514L153.6880125,114.12110623091299L153.92040833333334,111.22839309594934L154.15280416666667,111.34687696589172L154.3852,111.70454112174663L154.61759583333333,107.79831256293122L154.79421666666667,112.78946506474136L155.0266125,116.3313813457512L155.25900833333333,120.08776421047985L155.49140416666665,115.34171997989525L155.7238,113.90750914505308L155.95619583333334,104.36914323914095L156.18859166666667,109.05048630789413L156.4209875,110.40383795195119L156.65338333333332,107.31428800267621L156.88577916666665,110.01706507085682L157.0624,116.96213720673343L157.29479583333335,121.48722045680294L157.52719166666665,119.1791270491439L157.75958749999998,120.72102264465637L157.99198333333334,126.0978257809187L158.22437916666667,123.23274526587423L158.45677500000002,118.14978415589971L158.68917083333332,115.62203490296535L158.92156666666665,108.45618692506405L159.1539625,109.82165838428438L159.33058333333335,111.23622543039116L159.56297916666668,112.99285433544034L159.79537499999998,117.44844607292269L160.02777083333334,123.19621655742851L160.26016666666666,121.41774761716837L160.4925625,120.52690526668418L160.72495833333335,114.33688499359137L160.95735416666668,108.28948145472384L161.18974999999998,111.31583881263624L161.42214583333333,115.98704999484102L161.59876666666668,112.31825935322533L161.8311625,117.32325341125755L162.0635583333333,117.82470333734078L162.29595416666666,116.09557369909705L162.52835,118.93147974945317L162.76074583333335,120.80321831679008L162.99314166666667,120.4350226180957L163.2255375,113.42898082411857L163.45793333333333,111.27458164764056L163.69032916666666,104.13407381842765L163.86695,112.79087644036089L164.09934583333333,119.24219315644055L164.3317416666667,115.16814481454661L164.5641375,118.10776760918442L164.79653333333331,116.79863425538466L165.02892916666667,116.81205367512817L165.261325,109.36508517742543L165.49372083333336,110.84045424827171L165.72611666666668,111.8443586382032L165.95851249999998,106.27180842276974L166.13513333333333,117.72559395727123L166.36752916666669,122.17949522976707L166.599925,118.4361744860819L166.8323208333333,118.49426862571039L167.06471666666667,113.16942462176786L167.2971125,120.75641483045708L167.52950833333333,115.2110501592648L167.76190416666668,110.52255465048968L167.9943,111.3770829645301L168.2266958333333,110.03285102094243L168.40331666666665,111.79418674336888L168.6357125,118.38965012036638L168.86810833333334,108.64499617988923L169.1005041666667,117.04551083139282L169.3329,115.6104741630457L169.56529583333332,124.7302368497684L169.79769166666668,122.74330415290271L170.0300875,115.52169430365501L170.26248333333334,112.32435764405002L170.49487916666666,116.10066602878824L170.6715,121.05367299071781L170.90389583333334,120.9639269745128L171.13629166666666,120.42486576717423L171.36868750000002,119.21200406308435L171.60108333333332,116.17115346312468L171.83347916666665,119.53248975639839L172.065875,116.41522111607108L172.29827083333333,122.01800883413196L172.53066666666666,124.45073181748891L172.76306250000002,120.95582686480186L172.93968333333333,123.1738770495168L173.17207916666666,127.29061385269168L173.40447500000002,124.39295153649438L173.63687083333335,127.57039102083186L173.86926666666665,123.62873778706899L174.1016625,124.66224026924701L174.33405833333333,122.7438099054608L174.56645416666666,119.5847043183977L174.79885000000002,118.76050746499041L175.03124583333334,114.44225734772077L175.20786666666666,113.48673356024166L175.4402625,114.62786477276329L175.67265833333335,108.82483173292069L175.90505416666667,113.60296281836476L176.13745,123.21846669181082L176.36984583333333,122.13932207384046L176.60224166666666,122.60329635966158L176.83463749999999,116.99942105892964L177.06703333333334,119.4065001507289L177.29942916666667,120.60929862722541L177.47605,118.70399488514201L177.70844583333334,120.3152936111224L177.94084166666667,120.15613729882897L178.1732375,121.09474038823308L178.40563333333336,121.59221477753239L178.63802916666666,119.41503406697966L178.87042499999998,117.77550173481976L179.10282083333334,117.8318166627659L179.33521666666667,119.46150375768585L179.5676125,115.24236286367668L179.7442333333333,118.07725337622644L179.97662916666667,118.9920520897062L180.209025,119.67752976575271L180.44142083333332,118.62403934546907L180.67381666666668,114.58148189262376L180.9062125,112.1099231977479L181.1386083333333,115.73037210473053L181.37100416666667,115.31220934809426L181.6034,114.40396998206151L181.83579583333335,115.63115424243236L182.01241666666667,116.68883466518494L182.2448125,115.98243675905412L182.47720833333332,112.89070206251507L182.70960416666668,117.3936589004602L182.942,113.83580370729536L183.17439583333334,120.05962079489782L183.40679166666666,118.08142308494847L183.6391875,122.70190934135688L183.87158333333332,116.19052964988522L184.10397916666668,119.62313582956034L184.28060000000002,122.89735494331063L184.51299583333332,120.34484029775187L184.74539166666665,113.56057930568055L184.9777875,116.66171532684747L185.21018333333333,120.32893954802066L185.4425791666667,123.26272943403761L185.674975,124.26787510122057L185.90737083333332,123.14321193525976L186.13976666666667,118.32818219454292L186.3721625,120.08717859090756L186.54878333333335,119.15568854326176L186.78117916666665,118.5751459421234L187.013575,123.09607100350095L187.24597083333333,122.40144970467482L187.47836666666666,117.55635066963377L187.71076250000002,124.77536962577653L187.94315833333334,128.03751663720647L188.17555416666664,124.14777446270277L188.40795,115.76015890725627L188.64034583333333,111.99770097586416L188.81696666666667,121.74074831729209L189.04936249999997,120.78659481348308L189.28175833333333,121.81839417674503L189.51415416666666,125.37752124423797L189.74655,123.19138308021435L189.97894583333334,118.172431678823L190.21134166666667,118.03710366098498L190.4437375,124.74565671104573L190.67613333333333,121.06740610199864L190.90852916666665,119.45843685175265L191.08515,121.0238150401563L191.31754583333336,118.68345647913121L191.54994166666665,122.14940524018945L191.78233749999998,120.41805848363657L192.01473333333334,119.67335183352402L192.24712916666667,116.82463152565661L192.47952500000002,119.3943297003527L192.71192083333335,108.259927141755L192.94431666666665,108.35251769574501L193.1767125,110.76687634015624L193.35333333333335,114.38066286525523L193.58572916666668,116.78544303055111L193.81812499999998,124.77632574404579L194.05052083333334,121.50081595413401L194.28291666666667,120.42303317499997L194.5153125,121.44605153362987L194.74770833333335,119.19453796548933L194.98010416666668,118.4794446569215L195.21249999999998,116.41011669684634L195.44489583333333,121.89796809358245L195.62151666666668,128.33104550575257L195.8539125,131.2635330045325L196.08630833333333,129.4705195503561L196.31870416666666,121.03950377632613L196.5511,121.25380116500122L196.78349583333335,121.00902140152385L197.01589166666668,118.72885181513588L197.2482875,121.6224081556429L197.48068333333333,117.74787959233831L197.71307916666666,119.35515238906488L197.8897,120.80043912370334L198.12209583333333,127.00254078967967L198.3544916666667,117.71278832115887L198.5868875,121.72913626420724L198.81928333333332,122.32434867507487L199.05167916666667,121.33133836466502L199.284075,112.56904135207724L199.7488666666667,120.13981982770464L199.98126249999999,119.0022283476764L200.15788333333333,115.0755979494225L200.39027916666666,114.84297160230571L200.62267500000002,121.21538469877669L200.85507083333331,126.29436284117003L201.08746666666667,118.48948569318246L201.3198625,120.26101078655013L201.55225833333333,124.55701075301647L201.78465416666668,125.59192596591494L202.01705,119.16355561445344L202.2494458333333,125.25914852226555L202.42606666666666,128.48797344475523L202.6584625,128.6569836932989L202.89085833333334,126.53612487042712L203.12325416666667,125.81214748006586L203.35565,127.54680801075945L203.58804583333333,118.54380594212493L203.82044166666665,122.25552988626436L204.0528375,124.70657291226975L204.28523333333334,113.0046722358601L204.51762916666664,110.30281552735455L204.69424999999998,119.23040802053042L204.92664583333334,122.61983506741976L205.15904166666667,123.72524862538822L205.39143750000002,126.1158694992194L205.62383333333332,122.622092078312L205.85622916666665,129.5577099980019L206.088625,125.30381271938433L206.32102083333334,128.20957738975653L206.55341666666666,126.79739137449512L206.78581250000002,119.40981872189563L206.96243333333334,123.33349317032544L207.19482916666666,122.79307889770534L207.427225,121.5183341042728L207.65962083333335,115.56016400011893L207.89201666666668,123.59210545882426L208.12441249999998,121.33477453098268L208.35680833333333,126.30745554192208L208.58920416666666,126.35367771520224L208.82160000000002,122.20737870852554L209.05399583333335,118.77136424308593L209.23061666666666,122.3036173688903L209.4630125,126.02379536210042L209.69540833333335,127.78880456434808L209.92780416666668,129.18479082261464L210.1602,119.4062634544071L210.39259583333333,118.32614374245847L210.62499166666666,117.82505945283228L210.8573875,118.2226474902779L211.08978333333334,122.87460934715635L211.32217916666667,126.96654011433289L211.4988,127.09558674800707L211.73119583333332,124.62740614809913L211.96359166666667,123.41672769730947L212.1959875,121.94020378848641L212.42838333333336,124.60718075722228L212.66077916666666,127.18403523670828L212.89317499999999,128.96509618862785L213.12557083333334,113.51864997661038L213.35796666666667,121.30589081316742L213.5903625,115.77410316548477L213.76698333333331,120.17705171951688L213.99937916666667,120.94916023601516L214.231775,124.64175979965583L214.46417083333333,123.7250020742833L214.69656666666668,117.96781497375021L214.9289625,125.31768881253578L215.1613583333333,114.17322789745171L215.39375416666667,111.93166773587448L215.62615,120.29410386060995L215.85854583333335,110.45698355024253L216.03516666666664,114.96990695494199L216.2675625,119.5034032557276L216.49995833333332,123.616361084546L216.73235416666668,125.60476691634709L216.96475,127.02974881066302L217.19714583333334,120.50430622233337L217.42954166666667,126.8677687769469L217.6619375,118.5103548574979L217.89433333333332,116.36932887684516L218.12672916666668,113.95415457252723L218.30335000000002,121.10433842041527L218.53574583333332,120.12609086943067L218.76814166666665,119.30581548651824L219.0005375,120.95782900490158L219.46532916666666,119.32896759890194L219.697725,123.37553701867269L219.93012083333332,121.19011790793898L220.16251666666668,123.32792133170756L220.3949125,118.19833768785364L220.57153333333335,121.22973957354714L220.80392916666665,128.45163049184876L221.036325,127.10657243394348L221.26872083333333,129.34637571054793L221.50111666666666,123.50880181928666L221.73351250000002,120.58837101543064L221.96590833333335,125.0888076564716L222.19830416666665,125.30518829338696L222.4307,125.12251415889563L222.66309583333333,124.05733364248933L222.83971666666667,126.1680784999145L223.0721125,121.59130923356824L223.30450833333333,125.11278352582184L223.53690416666666,119.98630732496152L223.7693,118.41961882630726L224.00169583333334,125.43328595100355L224.23409166666667,123.08824693325269L224.4664875,122.8337495303604L224.69888333333333,128.8937863474957L224.93127916666666,126.49305953511163L225.1079,126.42214281383959L225.34029583333336,130.49079509060533L225.57269166666666,131.03120551064845L225.80508749999998,123.46067202091027L226.03748333333334,122.86513970825294L226.26987916666667,123.12666190253296L226.502275,120.63958089436385L226.73467083333335,115.05673141477347L226.96706666666665,119.19979794209573L227.19946249999998,116.48278434440054L227.37608333333333,121.83947304505838L227.60847916666668,126.1960004313579L227.84087499999998,127.20707701904321L228.0732708333333,130.4743689301045L228.30566666666667,127.78030387575018L228.5380625,132.3165319483355L228.77045833333335,121.96048769081881L229.00285416666668,123.220509558603L229.23524999999998,119.07722088543332L229.46764583333334,118.58280509420887L229.64426666666668,125.62915347508448L229.8766625,125.98532525196788L230.10905833333334,123.04682972527613L230.34145416666667,123.32153656911429L230.80624583333332,123.89764067165333L231.03864166666668,125.4919143118398L231.2710375,118.52843532549957L231.5034333333333,120.44071642974257L231.73582916666666,114.83677393580355L231.91245,121.4008010741498L232.14484583333333,123.20524342091767L232.3772416666667,122.17610384695199L232.6096375,120.29057284265902L232.84203333333332,112.07025710783488L233.07442916666668,113.22033373937262L233.306825,123.42180216698333L233.53922083333333,127.091144928996L233.7716166666667,120.45514184150286L234.0040125,127.86816398714562L234.18063333333333,131.5672871395821L234.41302916666666,126.61834426935431L234.64542500000002,128.1028301609511L234.87782083333332,134.55890216652946L235.11021666666664,128.60046756533754L235.3426125,126.24486270243047L235.57500833333333,125.6372232862625L235.8074041666667,120.85139474375262L236.0398,121.41280213324822L236.2721958333333,126.60285286039603L236.44881666666666,132.3474004317485L236.68121250000002,131.41478233895344L236.91360833333334,128.66381012748002L237.14600416666667,125.82191555377699L237.3784,121.86619070377067L237.61079583333333,115.93520886027484L237.84319166666666,118.17162935396897L238.0755875,115.83367284148787L238.30798333333334,122.83996874364793L238.54037916666667,129.99982647329782L238.71699999999998,125.87609503671321L238.94939583333334,129.49068728489556L239.18179166666667,125.01291768459868L239.41418750000003,124.30672074713675L239.64658333333333,128.44043274934114L239.87897916666665,128.73860518265778L240.111375,128.69731418368625L240.34377083333334,125.34347728801878L240.57616666666667,117.97381580089066L240.80856250000002,120.1216994801699L240.98518333333334,123.86569120298391L241.21757916666667,125.60940102755697L241.449975,127.1143416193969L241.68237083333335,124.45258727769469L241.91476666666668,123.61600119531401L242.14716249999998,115.38539904219721L242.37955833333334,119.31437836803684L242.61195416666666,122.2148485517894L242.84435,120.80469951250521L243.07674583333335,127.72490829359512L243.25336666666666,131.71308668201445L243.4857625,131.17679604934818L243.71815833333335,130.27576965850227L243.95055416666668,130.46942278070895L244.18295,130.94074094885772L244.41534583333333,130.1355644605873L244.64774166666666,128.476034408681L244.8801375,130.63776978206977L245.11253333333335,132.30869306138564L245.34492916666667,131.27032637404247L245.52155,133.81196745783856L245.75394583333332,129.83716348605483L245.98634166666668,127.53319291815107L246.2187375,128.19588849074609L246.45113333333333,129.15784873706943L246.68352916666666,129.3549608345069L246.915925,128.6893420775542L247.14832083333332,130.65785921440047L247.38071666666667,126.38218016189316L247.6131125,120.2208740160583L247.78973333333332,123.54592461593593L248.02212916666667,129.27401540204474L248.254525,128.7078171291095L248.48692083333333,125.04448770723923L248.71931666666669,129.24129167409714L249.1841083333333,125.56755257507682L249.41650416666667,129.50198792136027L249.6489,125.05950320723771L249.88129583333333,115.54377887028326L250.05791666666664,124.50857807887982L250.2903125,129.870708036582L250.52270833333333,131.56586964815477L250.75510416666665,129.33487350345092L250.9875,125.58157625556254L251.21989583333334,129.47916010673998L251.45229166666664,130.49677893645594L251.6846875,124.86414019673617L251.91708333333332,127.52346619280573L252.14947916666668,129.03984787981483" style="fill: none;" fill="none"></path></g></g></g></g><g opacity="0.2"><g><g><g><path stroke="rgb(255, 112, 67)" stroke-width="2px" d="M25.50776666666667,-20.799332857131958L25.740162499999997,12.135298053423577L25.972558333333332,4.737638102637412L26.204954166666667,2.6595999797185326L26.43735,-18.047916226916822L26.669745833333334,-1.084320081604856L26.90214166666667,7.2799632946650314L27.1345375,-16.503286692831242L27.366933333333336,-12.063816852039743L27.599329166666664,3.736535045835718L27.775949999999998,24.53624804814657L28.008345833333333,-5.95746835072834L28.24074166666667,22.4316461218728L28.4731375,-17.645634545220272L28.705533333333335,7.0426391230689305L28.937929166666663,-11.12792955504523L29.402720833333333,-17.286698685752018L29.635116666666665,24.617504080136623L29.8675125,4.095018903414421L30.044133333333335,33.407016926341605L30.27652916666667,18.253607220119903L30.508924999999998,25.9895616107517L30.741320833333333,-24.08587336540222L30.973716666666665,13.434513741069388L31.2061125,13.398052255312615L31.438508333333335,19.315243760744742L31.670904166666666,-10.29331386089325L31.9033,10.511394341786708L32.13569583333333,23.754933807584987L32.31231666666667,35.88201701641083L32.77710833333333,15.285565786891532L33.009504166666666,28.079421321551017L33.2419,22.013787759674923L33.474295833333336,9.973940915531584L33.706691666666664,35.36774317423504L33.9390875,35.04662480619219L34.171483333333335,23.105777965651633L34.40387916666667,10.655976997481467L34.5805,32.0124172502094L34.812895833333336,41.00645515653823L35.04529166666667,38.20462293095059L35.2776875,24.094190200169887L35.510083333333334,39.474759830368896L35.74247916666667,11.199793219566345L35.974875000000004,14.682664804988455L36.20727083333333,12.509207924207058L36.43966666666666,16.477309332953574L36.6720625,18.141418033176016L36.848683333333334,34.21709703074563L37.08107916666667,-4.3570455577638505L37.313475000000004,37.52915826108721L37.54587083333333,49.51565729247201L37.77826666666667,58.597910900910705L38.0106625,49.26151633262634L38.24305833333333,24.674317240715027L38.475454166666665,43.8372039132648L38.70785,25.38771529992422L38.940245833333336,25.3234730826484L39.11686666666667,47.69080976645153L39.3492625,60.56774093045129L39.58165833333333,64.17560842302112L39.814054166666665,38.222726186116546L40.04645,28.27728225125207L40.278845833333335,10.747350917922141L40.51124166666666,44.72618732187484L40.743637500000006,47.529920273356964L40.97603333333333,49.61917731497024L41.20842916666666,52.100088198979705L41.38505,67.76439911789365L41.617445833333335,56.01042608420055L41.84984166666666,52.71075434154935L42.082237500000005,51.27941502465143L42.31463333333333,29.31485838360257L42.54702916666666,52.13529798719619L42.779425,39.71979121367138L43.01182083333333,42.95389950275421L43.24421666666667,35.942689577738456L43.4766125,22.142619887987784L43.65323333333333,62.9339012834761L43.88562916666666,65.63515729374356L44.118025,52.63576838705276L44.35042083333333,49.206256204181244L44.582816666666666,28.82229222191705L44.8152125,47.82229595714145L45.047608333333336,40.422213739819L45.280004166666664,38.84300026628707L45.51240000000001,11.077277527915122L45.744795833333335,65.1959968937768L45.921416666666666,70.58155304855771L46.1538125,42.41163631280264L46.386208333333336,48.962580826547416L46.618604166666664,54.22833330101437L46.851000000000006,65.66190653377109L47.083395833333334,42.10481974813674L47.31579166666666,54.049108756913085L47.548187500000004,53.18584309683907L47.78058333333333,40.53958356380463L48.01297916666667,15.102215276824118L48.189600000000006,85.30550301074982L48.421995833333334,69.8953504363696L48.65439166666666,71.07198089361191L48.886787500000004,38.12254402372573L49.11918333333333,44.845411512586814L49.35157916666667,48.08486269579995L49.583975,48.46809075938332L49.81637083333334,68.92125738991632L50.048766666666666,80.90123716327881L50.28116249999999,49.7829063071145L50.45778333333333,76.66801346672906L50.69017916666667,81.8248450756073L50.922575,58.38006916973327L51.15497083333334,65.26558200518292L51.387366666666665,61.22970349258847L51.61976249999999,65.05889544884366L51.852158333333335,39.73447548018563L52.08455416666666,19.585679968198146L52.31695,63.61845814519458L52.549345833333334,35.30679245789847L52.725966666666665,63.60875169436138L52.95836250000001,84.68697898917728L53.190758333333335,87.16338144408334L53.42315416666666,73.9621389243338L53.65555,50.50073166688284L53.88794583333333,64.58104832304849L54.12034166666667,72.90245526366763L54.352737499999996,57.66240027215746L54.58513333333334,58.30514695909289L54.81752916666667,71.07947369416556L54.99415,73.51211888922586L55.22654583333333,75.53367995553546L55.45894166666667,84.73357574807275L55.691337499999996,65.96650365326141L55.92373333333334,84.39671264754404L56.156129166666666,54.33154039912753L56.388524999999994,68.89054444101123L56.62092083333334,68.27043261792926L56.853316666666665,70.936113761531L57.0857125,58.94528594281939L57.26233333333334,73.96299656894473L57.494729166666666,78.61012071371078L57.727124999999994,53.93362806902993L57.959520833333336,54.24213674333361L58.191916666666664,64.00316390726303L58.4243125,54.747834139400055L58.656708333333334,47.760464416609885L58.88910416666667,72.02493415938486L59.1215,72.29276266362933L59.35389583333334,71.2703459792667L59.530516666666664,99.44261544280583L59.7629125,73.0953209929996L59.995308333333334,89.8219116859966L60.22770416666667,82.73047142558627L60.4601,63.60954559511609L60.69249583333334,75.30618972248502L60.92489166666667,76.11806624465518L61.157287499999995,77.56765368911957L61.38968333333333,75.36751710706287L61.622079166666666,64.10587264431848L61.7987,76.18770351012549L62.03109583333334,81.75167871846094L62.26349166666667,72.63303895791373L62.495887499999995,89.16380272971259L62.72828333333334,61.36140988932717L62.960679166666665,59.625653094715545L63.193075,65.85736258162393L63.42547083333333,61.95291231075924L63.65786666666667,55.89699678950839L63.8902625,65.39382305410174L64.06688333333334,77.41885234912237L64.29927916666666,74.97013790739908L64.53167499999999,62.758385472827484L64.76407083333334,66.09720753298868L64.99646666666666,72.14677184820175L65.2288625,90.90128060844211L65.46125833333333,70.23884289794498L65.69365416666668,71.18206653330063L65.92605,68.82897946569656L66.15844583333333,73.69072337945303L66.33506666666666,95.34861991802853L66.5674625,87.78812918398117L66.79985833333333,86.08429067664676L67.03225416666668,76.07753674189252L67.26465,87.37782157129712L67.49704583333333,45.35334573851693L67.72944166666667,49.14000895288256L67.9618375,74.70285991827649L68.19423333333333,81.8589770131641L68.42662916666667,61.880870163440704L68.60325,78.20317414071826L68.83564583333333,79.65746704075073L69.06804166666667,73.14953804016113L69.3004375,97.22328616513147L69.53283333333333,80.043586757448L69.76522916666666,81.83932072586484L69.997625,63.59930601384905L70.23002083333334,79.95420628123813L70.46241666666666,75.86529288027023L70.6948125,84.7848258084721L70.87143333333333,60.1203054189682L71.10382916666667,91.86976999044418L71.33622500000001,107.53097194764351L71.56862083333333,86.0864637626542L71.80101666666667,81.49419410361185L72.0334125,86.5508493449953L72.26580833333333,71.42322113116583L72.49820416666667,68.22921352254022L72.7306,82.56349729167093L72.96299583333334,80.21251956621808L73.13961666666665,92.38669210010106L73.3720125,102.32985284593371L73.60440833333334,91.98691960838107L73.83680416666667,79.23925518989563L74.0692,89.06602544917001L74.30159583333334,93.5828513569302L74.53399166666667,80.59400916099548L74.76638750000001,79.07056576675839L74.99878333333334,82.1001547906134L75.23117916666666,74.48763168520398L75.4078,88.30964664618176L75.64019583333334,86.13864680131277L75.87259166666666,80.54110176033444L76.1049875,75.40394382344354L76.33738333333334,63.17154417435329L76.56977916666668,80.15183541509842L76.80217499999999,80.42453163199954L77.03457083333333,103.38674336671829L77.26696666666668,84.86356685558957L77.49936249999999,83.23010736041599L77.67598333333333,85.89550455411276L77.90837916666666,81.2700649102529L78.140775,76.7222884628508L78.37317083333333,69.31884520583682L78.60556666666666,68.33130220572156L78.8379625,91.19888908333249L79.07035833333335,83.07140833801694L79.30275416666666,91.78142680062189L79.53515,84.35434616274304L79.76754583333333,79.57642541991342L79.94416666666667,90.72209083371693L80.17656249999999,94.10247388813232L80.40895833333333,105.837039815055L80.64135416666667,105.90677559375763L80.87375,77.25103216038812L81.10614583333333,85.87818940480551L81.33854166666667,81.60538077354431L81.5709375,75.75281974342136L81.80333333333333,76.61255051692328L82.03572916666667,78.6162864830759L82.21235,95.70500022835202L82.44474583333334,98.1694304280811L82.67714166666666,96.04685852924985L82.9095375,74.017138282458L83.14193333333333,84.87885958618588L83.37432916666667,97.09852784872055L83.83912083333333,79.64102692074246L84.07151666666667,82.90617267290753L84.30391250000001,72.68260849846735L84.48053333333333,96.83871948056752L84.71292916666667,84.2449501156807L84.945325,98.14600745836896L85.17772083333334,95.49217687712775L85.41011666666667,91.66374405225119L85.6425125,91.00896136628256L85.87490833333334,87.37064169512857L86.10730416666668,92.9472092125151L86.3397,116.71304843491978L86.57209583333334,92.71744158532886L86.74871666666667,94.25355841716132L86.98111250000001,94.24028810527591L87.21350833333332,79.88898472653497L87.44590416666666,101.654585202535L87.67830000000001,65.79216420650482L87.91069583333332,75.99335428741244L88.14309166666666,79.06252245108288L88.3754875,97.05959194236333L88.60788333333333,64.35298439529208L88.84027916666666,95.31403018368616L89.01689999999999,107.34241182605427L89.24929583333333,93.29592867030038L89.48169166666668,80.32512598567538L89.71408749999999,86.981809967094L89.94648333333333,73.20174425840378L90.17887916666668,98.4590941005283L90.411275,97.40460266669592L90.64367083333333,79.76551867193646L90.87606666666667,103.59460628694958L91.1084625,98.82621235317654L91.28508333333333,115.26405206984944L91.51747916666666,107.60364284118018L91.749875,117.18859498699507L91.98227083333333,86.22969620757632L92.21466666666666,109.07661558853255L92.4470625,83.82557928562164L92.67945833333333,90.27322977781296L92.91185416666667,60.40298044681549L93.14425,82.3435925775104L93.37664583333333,88.88995912339954L93.55326666666667,86.77766157521143L93.7856625,90.88954014910593L94.01805833333333,96.6885041859415L94.25045416666667,100.43321235312357L94.48285,95.06314595540366L94.71524583333334,60.06942623191409L94.94764166666666,101.61103076404996L95.1800375,78.11885840362973L95.41243333333334,100.34573260280823L95.64482916666665,105.6198239326477L95.82145,111.91384593645734L96.05384583333333,104.6625186999639L96.28624166666667,93.14336064789032L96.51863750000001,104.24627711375555L96.75103333333333,98.90329606003232L96.98342916666667,108.52580782439975L97.21582500000001,83.57573813862271L97.44822083333332,94.62035215563245L97.68061666666667,89.42709383037356L97.91301250000001,82.46346579657663L98.08963333333334,94.60358172655106L98.32202916666665,111.50030477179422L98.554425,102.23461952474383L98.78682083333334,114.6696956621276L99.01921666666667,108.14123534493977L99.2516125,92.55647675858603L99.48400833333334,98.01810830831528L99.71640416666666,97.45184845394559L99.9488,101.2521238790618L100.18119583333333,81.00792699389987L100.35781666666666,105.74510958459643L100.5902125,107.71743721432156L100.82260833333333,82.02352308564716L101.05500416666666,100.64724104271994L101.2874,107.75937777426509L101.51979583333333,91.45517415470547L101.75219166666666,96.6238331463602L101.9845875,103.93532878822751L102.21698333333333,108.42796680000095L102.44937916666667,98.93075227737427L102.626,120.07533692651326L102.85839583333333,108.4341499540541L103.09079166666666,110.97828605108792L103.3231875,105.16498254405127L103.55558333333333,108.58291942212318L103.78797916666666,99.5248160428471L104.020375,89.35196300347647L104.25277083333334,85.18835339281296L104.48516666666666,81.06215563085345L104.7175625,94.8965600795216L104.89418333333333,116.13991293642255L105.12657916666667,113.70822100175752L105.358975,99.36596635315155L105.59137083333333,118.13479719890489L105.82376666666667,95.15954405069351L106.05616250000001,96.8441782726182L106.28855833333333,95.75545059310065L106.52095416666667,92.80762175718945L106.75335,103.7771397166782L106.98574583333333,108.51192035608823L107.16236666666666,104.33399445480771L107.3947625,114.13690422972044L107.62715833333334,96.04782627688513L107.85955416666665,91.76252964470123L108.09195,107.96408537361359L108.32434583333334,112.81145794524087L108.55674166666667,84.16805764039358L108.7891375,106.95358299546773L109.02153333333334,92.86131726370917L109.25392916666667,90.11681973934174L109.43055000000001,98.0950587325626L109.66294583333332,107.79787037107681L109.89534166666667,106.02661983834372L110.1277375,121.50172160731421L110.36013333333334,110.47548030813536L110.59252916666667,96.64225512080723L110.824925,93.82764514949588L111.05732083333334,94.61953507529364L111.28971666666666,99.1893321275711L111.52211249999999,97.63952195644379L111.69873333333334,111.70931508143744L111.93112916666666,112.68712265623941L112.163525,107.84074680672751L112.39592083333334,96.28963569800061L112.8607125,114.98234478963747L113.09310833333333,118.46618412269487L113.32550416666666,108.72665312555102L113.5579,90.4505362113317L113.79029583333335,91.62147608068256L113.96691666666668,96.85091194179324L114.19931249999999,104.3414756655693L114.43170833333333,93.24580861462488L114.66410416666668,123.7221953769525L114.89649999999999,93.11863962146973L115.12889583333333,116.02959550089307L115.36129166666667,106.87883463170795L115.59368749999999,105.73256942960953L115.82608333333333,102.33436706993317L116.05847916666667,99.80691158109242L116.2351,100.36184820863937L116.46749583333334,88.25927161508137L116.69989166666666,106.02897256612778L116.9322875,97.72980064153671L117.16468333333334,75.62055703666476L117.39707916666666,108.65351574288474L117.629475,78.70680275890564L117.86187083333334,101.48365315463809L118.09426666666667,113.75740228427782L118.3266625,100.62654746903314L118.50328333333333,106.74788736634785L118.73567916666667,113.75747761792607L118.968075,127.41603304942447L119.20047083333333,99.57374814483856L119.43286666666667,117.74658842219247L119.6652625,100.65607246425418L119.89765833333334,107.71436302198305L120.13005416666667,113.20211216807365L120.36245,109.81219361225766L120.59484583333334,120.0804393324587L120.77146666666667,92.11337003442978L121.23625833333334,112.6170971327358L121.46865416666667,100.54035998053021L121.70105000000001,104.09266601006192L121.93344583333332,86.72968563106326L122.16584166666667,116.44651798738374L122.39823750000001,115.07553251253233L122.63063333333332,101.43220606777405L122.86302916666666,94.8528086145719L123.03965,120.06492060091762L123.27204583333334,102.46667613585791L123.50444166666668,104.57270940144858L123.7368375,121.99814137485293L123.96923333333334,120.94083362155492L124.20162916666668,104.94147919946248L124.43402499999999,96.7943247821596L124.66642083333333,102.89713839689892L124.89881666666668,106.76897499296402L125.13121249999999,93.30172356632022L125.30783333333332,108.59028183751637L125.54022916666666,121.79858254061804L125.772625,109.1539861427413L126.00502083333333,99.84215613868503L126.23741666666666,105.27699788411459L126.4698125,108.04574704832501L126.70220833333333,115.84791971577539L126.93460416666666,116.83715772297649L127.167,97.16945737600327L127.39939583333333,107.86434941821629L127.57601666666667,103.99844100077948L127.8084125,112.74601618448895L128.04080833333333,115.43253867162599L128.2732041666667,115.57428182827101L128.5056,116.77834822071924L128.73799583333334,113.51844974690015L128.97039166666667,94.78069692850113L129.2027875,98.26541708575354L129.43518333333333,112.86539104249744L129.66757916666666,112.59540973438158L129.8442,96.4590436882443L130.07659583333333,118.82638616694345L130.30899166666666,122.65084659059843L130.5413875,113.83866990605992L130.77378333333334,119.48898327019481L131.00617916666667,78.62117737531662L131.238575,86.8995456231965L131.47097083333333,90.7676387164328L131.70336666666665,110.56575030088425L131.9357625,115.56616607639523L132.11238333333333,113.22397920820447L132.34477916666668,128.30847311351033L132.577175,106.80674033032523L132.80957083333334,97.94471595022415L133.04196666666667,97.41366008917493L133.2743625,106.28922714127435L133.50675833333332,100.32309773895477L133.73915416666665,110.04336650172871L133.97155,96.93702409664792L134.20394583333334,96.77157402038574L134.38056666666665,124.9124061730173L134.6129625,84.98404853873782L134.84535833333334,115.92009224825436L135.07775416666667,105.51290230618582L135.31015,109.77388355467053L135.54254583333332,106.78771568669214L135.77494166666668,107.8765100075139L136.0073375,124.87715582052869L136.23973333333333,108.10820443762674L136.47212916666666,117.79936833514108L136.64875,124.94454176889525L137.11354166666666,114.18395009305743L137.3459375,106.99430083235106L137.57833333333335,119.72211193707255L137.81072916666665,112.2441521121396L138.043125,119.51661333441734L138.27552083333333,115.42732326520814L138.50791666666666,117.52025427089796L138.7403125,108.50110128521919L138.91693333333333,132.62039149800935L139.14932916666666,135.57651862502098L139.38172500000002,115.92473106251822L139.61412083333335,112.46047558055983L139.84651666666664,106.29947831233343L140.0789125,111.67001989152698L140.31130833333333,90.6089860532019L140.54370416666666,123.69877820213637L140.7761,105.08088701301152L141.00849583333334,119.94311768147679L141.18511666666666,135.15692034529314L141.4175125,99.05374315049914L141.64990833333334,121.45708062582547L141.88230416666667,113.70915687746472L142.11470000000003,118.50276150637204L142.34709583333333,109.12698482473692L142.57949166666666,111.71369602282843L143.04428333333334,83.76120958063339L143.27667916666667,96.92384650309882L143.45329999999998,126.44485483566922L143.68569583333334,123.01050681206914L143.91809166666667,112.14448859294257L144.1504875,109.02698809901875L144.38288333333335,112.70515927010113L144.61527916666665,85.41823112302356L144.84767499999998,95.56212706698312L145.08007083333334,105.5650795499484L145.31246666666667,106.83626532554626L145.54486250000002,123.64082924193806L145.7214833333333,125.22878431611592L145.95387916666667,124.48470807737775L146.186275,100.79423437515896L146.41867083333335,123.20092130038472L146.65106666666668,124.52945626444287L146.88346249999998,101.65690895583896L147.11585833333334,116.90982282161713L147.34825416666666,119.68272982372179L147.58065,98.08505674203238L147.81304583333335,108.9697577059269L147.98966666666666,121.62548030416173L148.2220625,132.52085981269678L148.45445833333332,106.01399855481253L148.68685416666668,119.76419157452054L148.91925,108.65059511529074L149.15164583333333,106.41076349549824L149.38404166666666,93.49573668506412L149.6164375,80.65574798319076L149.84883333333335,108.91158853967985L150.08122916666667,116.77020059691534L150.25785,109.47351960672273L150.49024583333332,109.85530763864517L150.72264166666668,121.95537793967458L150.9550375,110.69553568959236L151.18743333333333,122.00572109884686L151.4198291666667,108.87549502982034L151.652225,116.42804965376854L151.88462083333332,101.30246414078607L152.11701666666667,113.5064861840672L152.3494125,120.31074009007878L152.52603333333334,120.39763455589613L152.75842916666664,118.0997293856409L152.990825,124.93794427977667L153.22322083333333,103.36722615692352L153.45561666666666,113.35152776704894L153.6880125,115.04555841286978L153.92040833333334,106.88932339350384L154.15280416666667,111.52460277080536L154.3852,112.24103735552893L154.61759583333333,101.93896972470814L154.79421666666667,120.27619381745657L155.0266125,121.64425576726597L155.25900833333333,125.72233850757283L155.49140416666665,108.22265363401837L155.7238,111.75619289278984L155.95619583333334,90.06159438027277L156.18859166666667,116.0725009110239L156.4209875,112.43386541803679L156.65338333333332,102.67996307876376L156.88577916666665,114.07123067312772L157.0624,127.37974541054831L157.29479583333335,128.27484533190727L157.52719166666665,115.71698693765535L157.75958749999998,123.0338660379251L157.99198333333334,134.16303048531213L158.22437916666667,118.93512449330754L158.45677500000002,110.52534249093799L158.68917083333332,111.83041102356381L158.92156666666665,97.70741495821213L159.1539625,111.86986557311482L159.33058333333335,113.35807599955136L159.56297916666668,115.62779769301414L159.79537499999998,124.13183367914624L160.02777083333334,131.81787228418722L160.26016666666666,118.75004420677823L160.4925625,119.19064174095791L160.72495833333335,105.05185458395218L160.95735416666668,99.21837614642249L161.18974999999998,115.8553748495049L161.42214583333333,122.99386676814822L161.59876666666668,106.81507339080176L161.8311625,124.83074449830586L162.0635583333333,118.57687822646565L162.29595416666666,113.50187924173144L162.52835,123.18533882498741L162.76074583333335,123.61082616779538L162.99314166666667,119.88272907005415L163.2255375,102.91991813315286L163.45793333333333,108.04298288292355L163.69032916666666,93.42331207460828L163.86695,125.7760803732607L164.09934583333333,128.9191682305601L164.3317416666667,109.05707230170569L164.5641375,122.51720180114111L164.79653333333331,114.83493422468504L165.02892916666667,116.83218280474347L165.261325,98.19463243087134L165.49372083333336,113.05350785454115L165.72611666666668,113.35021522310046L165.95851249999998,97.91298309961957L166.13513333333333,134.90627225902347L166.36752916666669,128.8603471385108L166.599925,112.82119337055417L166.8323208333333,118.58140983515317L167.06471666666667,105.18215861585406L167.2971125,132.1369001434909L167.52950833333333,106.89300315247641L167.76190416666668,103.489811387327L167.9943,112.65887543559074L168.2266958333333,108.01650310556096L168.40331666666665,114.43619032700857L168.6357125,128.28284518586264L168.86810833333334,94.02801526917352L169.1005041666667,129.6462828086482L169.3329,113.45791916052502L169.56529583333332,138.4098808798525L169.79769166666668,119.76290510760413L170.0300875,104.68927952978348L170.26248333333334,107.52835265464253L170.49487916666666,121.76512860589558L170.6715,128.48318343361217L170.90389583333334,120.82930795020528L171.13629166666666,119.61627395616637L171.36868750000002,117.39271150694952L171.60108333333332,111.60987756318517L171.83347916666665,124.57449419630899L172.065875,111.73931815558011L172.29827083333333,130.4221904112233L172.53066666666666,128.09981629252434L172.76306250000002,115.71346943577132L172.93968333333333,126.50095232658916L173.17207916666666,133.465719057454L173.40447500000002,120.04645806219844L173.63687083333335,132.3365502473381L173.86926666666665,117.71625793642468L174.1016625,126.21249399251408L174.33405833333333,119.86616435978146L174.56645416666666,114.84604593780307L174.79885000000002,117.5242121848795L175.03124583333334,107.9648821718163L175.20786666666666,112.05344787902303L175.4402625,116.33956159154576L175.67265833333335,100.12028217315674L175.90505416666667,120.77015944653088L176.13745,137.64172250197993L176.36984583333333,120.52060514688492L176.60224166666666,123.29925778839322L176.83463749999999,108.59360810783176L177.06703333333334,123.01711878842778L177.29942916666667,122.41349634197024L177.47605,115.84603927201695L177.70844583333334,122.73224170009297L177.94084166666667,119.91740283038882L178.1732375,122.5026450223393L178.40563333333336,122.33842636148137L178.63802916666666,116.14926300115056L178.87042499999998,115.3162032365799L179.10282083333334,117.91628905468518L179.33521666666667,121.90603440006575L179.5676125,108.91365152266292L179.7442333333333,122.3295891450511L179.97662916666667,120.36425015992589L180.209025,120.70574627982245L180.44142083333332,117.04380371504361L180.67381666666668,108.51764571335582L180.9062125,108.40258515543408L181.1386083333333,121.16104546520444L181.37100416666667,114.68496521313986L181.6034,113.04161093301244L181.83579583333335,117.47193063298863L182.01241666666667,118.27535529931387L182.2448125,114.92283989985785L182.47720833333332,108.25310001770657L182.70960416666668,124.1480941573779L182.942,108.49902091754808L183.17439583333334,129.39534642630153L183.40679166666666,115.1141265200244L183.6391875,129.6326387259695L183.87158333333332,106.42346011267767L184.10397916666668,124.772045099073L184.28060000000002,127.80868361393613L184.51299583333332,116.51606832941374L184.74539166666665,103.38418781757355L184.9777875,121.31341935859786L185.21018333333333,125.82977587978047L185.4425791666667,127.663414263063L185.674975,125.77559360199506L185.90737083333332,121.4562171863185L186.13976666666667,111.10563758346768L186.3721625,122.72567318545447L186.54878333333335,117.75845347179308L186.78117916666665,117.70433204041586L187.013575,129.87745859556728L187.24597083333333,121.3595177564356L187.47836666666666,110.2887021170722L187.71076250000002,135.60389805999068L187.94315833333334,132.93073715435133L188.17555416666664,118.31316120094723L188.40795,103.17873557408652L188.64034583333333,106.35401407877606L188.81696666666667,136.35531932943397L189.04936249999997,119.35536455776958L189.28175833333333,123.36609322163793L189.51415416666666,130.7162118454774L189.74655,119.91217583417892L189.97894583333334,110.64400457673604L190.21134166666667,117.83411163422795L190.4437375,134.80848628613683L190.67613333333333,115.55003018842802L190.90852916666665,117.04498297638364L191.08515,123.37188232276173L191.31754583333336,115.1729186375936L191.54994166666665,127.34832838177681L191.78233749999998,117.82103834880724L192.01473333333334,118.55629185835522L192.24712916666667,112.5515510638555L192.47952500000002,123.24887696239682L192.71192083333335,91.55832330385846L192.94431666666665,108.49140352673001L193.1767125,114.38841430677309L193.35333333333335,119.80134265290366L193.58572916666668,120.39261327849493L193.81812499999998,136.7626498142878L194.05052083333334,116.58755126926633L194.28291666666667,118.80635900629892L194.5153125,122.98057907157475L194.74770833333335,115.81726761327849L194.98010416666668,117.40680469406976L195.21249999999998,113.3061247567336L195.44489583333333,130.12974518868657L195.62151666666668,137.98066162400775L195.8539125,135.66226425270239L196.08630833333333,126.78099936909146L196.31870416666666,108.3929801152812L196.5511,121.57524724801382L196.78349583333335,120.6418517563078L197.01589166666668,115.30859743555388L197.2482875,125.96274266640347L197.48068333333333,111.93608674738141L197.71307916666666,121.76606158415478L197.8897,122.96836922566098L198.12209583333333,136.30569328864416L198.3544916666667,103.77815961837769L198.5868875,127.7536581787798L198.81928333333332,123.21716729137631L199.05167916666667,119.84182289905019L199.284075,99.42559583319559L199.7488666666667,131.49598754114575L199.98126249999999,117.29584112763405L200.15788333333333,109.18565235204167L200.39027916666666,114.49403208163051L200.62267500000002,130.77400434348317L200.85507083333331,133.91283005475998L201.08746666666667,106.78216997120117L201.3198625,122.91829842660161L201.55225833333333,131.00101070271597L201.78465416666668,127.14429878526263L202.01705,109.5210000872612L202.2494458333333,134.4025378839837L202.42606666666666,133.33121082848973L202.6584625,128.91049906611443L202.89085833333334,123.35483663611943L203.12325416666667,124.72618139452405L203.35565,130.1487988067998L203.58804583333333,105.03930283917322L203.82044166666665,127.8231158024735L204.0528375,128.38313745127783L204.28523333333334,95.45182122124567L204.51762916666664,106.25003046459622L204.69424999999998,132.62179676029416L204.92664583333334,127.70397563775379L205.15904166666667,125.3833689623409L205.39143750000002,129.7018008099662L205.62383333333332,117.38142594695091L205.85622916666665,139.96113687753677L206.088625,118.92296680145795L206.32102083333334,132.56822439531484L206.55341666666666,124.67911235160298L206.78581250000002,108.32845974299644L206.96243333333334,129.2190048429701L207.19482916666666,121.98245748877525L207.427225,119.60621691412396L207.65962083333335,106.62290884388818L207.89201666666668,135.64001764688226L208.12441249999998,117.94877813922034L208.35680833333333,133.76647705833116L208.58920416666666,126.42301097512245L208.82160000000002,115.9879301985105L209.05399583333335,113.61734254492654L209.23061666666666,127.60199705759686L209.4630125,131.60406235191556L209.69540833333335,130.43631836771965L209.92780416666668,131.27877021001444L210.1602,104.7384724020958L210.39259583333333,116.70596417453555L210.62499166666666,117.07343301839299L210.8573875,118.81902954644627L211.08978333333334,129.85255213247405L211.32217916666667,133.10443626509772L211.4988,127.28915669851833L211.73119583333332,120.9251352482372L211.96359166666667,121.60071002112494L212.1959875,119.72541792525186L212.42838333333336,128.6076462103261L212.66077916666666,131.0493169559373L212.89317499999999,131.6366876165072L213.12557083333334,90.34898065858418L213.35796666666667,132.98675206800303L213.5903625,107.47642169396084L213.76698333333331,126.78147455056506L213.99937916666667,122.10732301076254L214.231775,130.1806591451168L214.46417083333333,122.3498654862245L214.69656666666668,109.33203432295059L214.9289625,136.3424995707141L215.1613583333333,97.45653652482564L215.39375416666667,108.56932749350867L215.62615,132.83775804771318L215.85854583333335,95.70130308469138L216.03516666666664,121.73929206199116L216.2675625,126.30364770690602L216.49995833333332,129.78579782777362L216.73235416666668,128.58737566404872L216.96475,129.1672216521369L217.19714583333334,110.71614233983888L217.42954166666667,136.41296260886722L217.6619375,105.97423397832448L217.89433333333332,113.157789905866L218.12672916666668,110.33139311605031L218.30335000000002,131.8296141922474L218.53574583333332,118.65871954295369L218.76814166666665,118.07540241214963L219.0005375,123.43584928247662L219.46532916666666,116.8856754899025L219.697725,129.44539114832878L219.93012083333332,117.91198924183846L220.16251666666668,126.5346264673604L220.3949125,110.5039622220728L220.57153333333335,125.77684240208731L220.80392916666665,139.28446686930127L221.036325,125.08898534708554L221.26872083333333,132.70608062545458L221.50111666666666,114.75244098239476L221.73351250000002,116.2077248096466L221.96590833333335,131.83946261803308L222.19830416666665,125.62975924876002L222.4307,124.84850295715863L222.66309583333333,122.45956286787987L222.83971666666667,129.33419578605228L223.0721125,114.72615533404881L223.30450833333333,130.39499496420223L223.53690416666666,112.29659302367105L223.7693,116.06958607832593L224.00169583333334,135.95378663804797L224.23409166666667,119.5706884066264L224.4664875,122.452003426022L224.69888333333333,137.98384157319865L224.93127916666666,122.89196931653554L225.1079,126.31576773193149L225.34029583333336,136.59377350575394L225.57269166666666,131.84182114071317L225.80508749999998,112.104871786303L226.03748333333334,121.97184123926694L226.26987916666667,123.51894519395299L226.502275,116.90895938211018L226.73467083333335,106.68245719538794L226.96706666666665,125.41439773307906L227.19946249999998,112.40726394785776L227.37608333333333,129.8745060960452L227.60847916666668,132.73079151080714L227.84087499999998,128.72369190057117L228.0732708333333,135.37530679669646L228.30566666666667,123.73920629421872L228.5380625,139.12087405721346L228.77045833333335,106.42642130454382L229.00285416666668,125.11054236027928L229.23524999999998,112.86228787567882L229.46764583333334,117.84118140737218L229.64426666666668,136.19867604639796L229.8766625,126.5195829172929L230.10905833333334,118.63908643523854L230.34145416666667,123.73359683487149L230.80624583333332,124.76179682546193L231.03864166666668,127.88332477211952L231.2710375,108.08321684598923L231.5034333333333,123.30913808610705L231.73582916666666,106.43086019489502L231.91245,131.2468417816692L232.14484583333333,125.9119069410695L232.3772416666667,120.63239448600346L232.6096375,117.46227633621959L232.84203333333332,99.73978350559872L233.07442916666668,114.94544868667921L233.306825,138.7240048083994L233.53922083333333,132.595159072015L233.7716166666667,110.50113721026315L234.0040125,138.98769720560975L234.18063333333333,137.11597186823687L234.41302916666666,119.19492996401257L234.64542500000002,130.32955899834633L234.87782083333332,144.243010174897L235.11021666666664,119.66281566354962L235.3426125,122.71145540806981L235.57500833333333,124.72576416201062L235.8074041666667,113.67265192998781L236.0398,122.25491321749158L236.2721958333333,134.38792895111771L236.44881666666666,140.96422178877725L236.68121250000002,130.01585519976086L236.91360833333334,124.5373518102699L237.14600416666667,121.55907369322247L237.3784,115.93260342876118L237.61079583333333,107.03873609503111L237.84319166666666,121.52626009451018L238.0755875,112.3267380727662L238.30798333333334,133.34941259688802L238.54037916666667,140.73961306777267L238.71699999999998,119.69049788183636L238.94939583333334,134.91257565716901L239.18179166666667,118.29626328415341L239.41418750000003,123.24742534094388L239.64658333333333,134.64100075264773L239.87897916666665,129.18586383263272L240.111375,128.635377685229L240.34377083333334,120.31272194451756L240.57616666666667,106.91932357019849L240.80856250000002,123.34352499908871L240.98518333333334,129.48167878720494L241.21757916666667,128.2249657644166L241.449975,129.3717525071568L241.68237083333335,120.45995576514139L241.91476666666668,122.36112207174301L242.14716249999998,103.03949581252203L242.37955833333334,125.20784735679626L242.61195416666666,126.56555382741823L242.84435,118.68947595357895L243.07674583333335,138.10522146523L243.25336666666666,137.69535426464347L243.4857625,130.37236010034877L243.71815833333335,128.9242300722334L243.95055416666668,130.75990246401892L244.18295,131.64771820108095L244.41534583333333,128.92779972818164L244.64774166666666,125.98673933082158L244.8801375,133.88037284215292L245.11253333333335,134.8150779803594L245.34492916666667,129.71277634302777L245.52155,137.62442908353276L245.75394583333332,123.87495752837924L245.98634166666668,124.07723706629542L246.2187375,129.18993184963864L246.45113333333333,130.60078910655446L246.68352916666666,129.6506289806631L246.915925,127.69091394212512L247.14832083333332,133.6106349196699L247.38071666666667,119.96866158313222L247.6131125,110.97891479730606L247.78973333333332,128.53350051575237L248.02212916666667,137.8661515812079L248.254525,127.85851971970663L248.48692083333333,119.54949357443387L248.71931666666669,135.53649762438403L249.1841083333333,120.0569439265463L249.41650416666667,135.4036409407854L249.6489,118.39577613605394L249.88129583333333,101.27019236485165L250.05791666666664,137.9557768917746L250.2903125,137.91390297313532L250.52270833333333,134.10861206551394L250.75510416666665,125.98837928639517L250.9875,119.95163038372993L251.21989583333334,135.32553588350615L251.45229166666664,132.02320718102985L251.6846875,116.4151820871565L251.91708333333332,131.5124551869101L252.14947916666668,131.31442041032844" style="fill: none;" fill="none"></path></g></g></g></g></g></g><g transform="translate(51, 175)" clip-path="url(#clip_1)"><clipPath id="clip_1"><rect width="278" height="25"></rect></clipPath><g><g><line x1="0" y1="0" x2="0" y2="5" style="visibility: inherit;" fill="rgb(0, 0, 0)" stroke="rgb(204, 204, 204)" stroke-width="1px"></line><line x1="23.239583333333332" y1="0" x2="23.239583333333332" y2="5" style="visibility: inherit;" fill="rgb(0, 0, 0)" stroke="rgb(204, 204, 204)" stroke-width="1px"></line><line x1="46.479166666666664" y1="0" x2="46.479166666666664" y2="5" style="visibility: inherit;" fill="rgb(0, 0, 0)" stroke="rgb(204, 204, 204)" stroke-width="1px"></line><line x1="69.71875" y1="0" x2="69.71875" y2="5" style="visibility: inherit;" fill="rgb(0, 0, 0)" stroke="rgb(204, 204, 204)" stroke-width="1px"></line><line x1="92.95833333333333" y1="0" x2="92.95833333333333" y2="5" style="visibility: inherit;" fill="rgb(0, 0, 0)" stroke="rgb(204, 204, 204)" stroke-width="1px"></line><line x1="116.19791666666667" y1="0" x2="116.19791666666667" y2="5" style="visibility: inherit;" fill="rgb(0, 0, 0)" stroke="rgb(204, 204, 204)" stroke-width="1px"></line><line x1="139.4375" y1="0" x2="139.4375" y2="5" style="visibility: inherit;" fill="rgb(0, 0, 0)" stroke="rgb(204, 204, 204)" stroke-width="1px"></line><line x1="162.67708333333334" y1="0" x2="162.67708333333334" y2="5" style="visibility: inherit;" fill="rgb(0, 0, 0)" stroke="rgb(204, 204, 204)" stroke-width="1px"></line><line x1="185.91666666666666" y1="0" x2="185.91666666666666" y2="5" style="visibility: inherit;" fill="rgb(0, 0, 0)" stroke="rgb(204, 204, 204)" stroke-width="1px"></line><line x1="209.15625" y1="0" x2="209.15625" y2="5" style="visibility: inherit;" fill="rgb(0, 0, 0)" stroke="rgb(204, 204, 204)" stroke-width="1px"></line><line x1="232.39583333333334" y1="0" x2="232.39583333333334" y2="5" style="visibility: inherit;" fill="rgb(0, 0, 0)" stroke="rgb(204, 204, 204)" stroke-width="1px"></line><line x1="255.63541666666666" y1="0" x2="255.63541666666666" y2="5" style="visibility: inherit;" fill="rgb(0, 0, 0)" stroke="rgb(204, 204, 204)" stroke-width="1px"></line><line x1="278.875" y1="0" x2="278.875" y2="5" style="visibility: inherit;" fill="rgb(0, 0, 0)" stroke="rgb(204, 204, 204)" stroke-width="1px"></line></g><g transform="translate(0, 8)"><text x="0" y="0" dx="0em" dy="0.95em" style="text-anchor: middle; visibility: hidden; font-family: Roboto, sans-serif; font-size: 12px; font-weight: 200;" fill="rgb(50, 49, 63)" stroke="none" stroke-width="1px">-10k</text><text x="23.239583333333332" y="0" dx="0em" dy="0.95em" style="text-anchor: middle; visibility: inherit; font-family: Roboto, sans-serif; font-size: 12px; font-weight: 200;" fill="rgb(50, 49, 63)" stroke="none" stroke-width="1px">0</text><text x="46.479166666666664" y="0" dx="0em" dy="0.95em" style="text-anchor: middle; visibility: hidden; font-family: Roboto, sans-serif; font-size: 12px; font-weight: 200;" fill="rgb(50, 49, 63)" stroke="none" stroke-width="1px">10k</text><text x="69.71875" y="0" dx="0em" dy="0.95em" style="text-anchor: middle; visibility: inherit; font-family: Roboto, sans-serif; font-size: 12px; font-weight: 200;" fill="rgb(50, 49, 63)" stroke="none" stroke-width="1px">20k</text><text x="92.95833333333333" y="0" dx="0em" dy="0.95em" style="text-anchor: middle; visibility: hidden; font-family: Roboto, sans-serif; font-size: 12px; font-weight: 200;" fill="rgb(50, 49, 63)" stroke="none" stroke-width="1px">30k</text><text x="116.19791666666667" y="0" dx="0em" dy="0.95em" style="text-anchor: middle; visibility: inherit; font-family: Roboto, sans-serif; font-size: 12px; font-weight: 200;" fill="rgb(50, 49, 63)" stroke="none" stroke-width="1px">40k</text><text x="139.4375" y="0" dx="0em" dy="0.95em" style="text-anchor: middle; visibility: hidden; font-family: Roboto, sans-serif; font-size: 12px; font-weight: 200;" fill="rgb(50, 49, 63)" stroke="none" stroke-width="1px">50k</text><text x="162.67708333333334" y="0" dx="0em" dy="0.95em" style="text-anchor: middle; visibility: inherit; font-family: Roboto, sans-serif; font-size: 12px; font-weight: 200;" fill="rgb(50, 49, 63)" stroke="none" stroke-width="1px">60k</text><text x="185.91666666666666" y="0" dx="0em" dy="0.95em" style="text-anchor: middle; visibility: hidden; font-family: Roboto, sans-serif; font-size: 12px; font-weight: 200;" fill="rgb(50, 49, 63)" stroke="none" stroke-width="1px">70k</text><text x="209.15625" y="0" dx="0em" dy="0.95em" style="text-anchor: middle; visibility: inherit; font-family: Roboto, sans-serif; font-size: 12px; font-weight: 200;" fill="rgb(50, 49, 63)" stroke="none" stroke-width="1px">80k</text><text x="232.39583333333334" y="0" dx="0em" dy="0.95em" style="text-anchor: middle; visibility: hidden; font-family: Roboto, sans-serif; font-size: 12px; font-weight: 200;" fill="rgb(50, 49, 63)" stroke="none" stroke-width="1px">90k</text><text x="255.63541666666666" y="0" dx="0em" dy="0.95em" style="text-anchor: middle; visibility: inherit; font-family: Roboto, sans-serif; font-size: 12px; font-weight: 200;" fill="rgb(50, 49, 63)" stroke="none" stroke-width="1px">100k</text><text x="278.875" y="0" dx="0em" dy="0.95em" style="text-anchor: middle; visibility: hidden; font-family: Roboto, sans-serif; font-size: 12px; font-weight: 200;" fill="rgb(50, 49, 63)" stroke="none" stroke-width="1px">110k</text></g><line x1="0" y1="0" x2="278.875" y2="0" fill="rgb(0, 0, 0)" stroke="rgb(204, 204, 204)" stroke-width="1px"></line></g></g></g></g></svg>