<svg viewBox="0 0 330 200" xmlns="http://www.w3.org/2000/svg"><g><g><g><g><g><line x1="51.125" y1="175" x2="46.125" y2="175" style="visibility: inherit;" fill="rgb(0, 0, 0)" stroke="rgb(204, 204, 204)" stroke-width="1px"></line><line x1="51.125" y1="149.99999999999997" x2="46.125" y2="149.99999999999997" style="visibility: inherit;" fill="rgb(0, 0, 0)" stroke="rgb(204, 204, 204)" stroke-width="1px"></line><line x1="51.125" y1="124.99999999999996" x2="46.125" y2="124.99999999999996" style="visibility: inherit;" fill="rgb(0, 0, 0)" stroke="rgb(204, 204, 204)" stroke-width="1px"></line><line x1="51.125" y1="100" x2="46.125" y2="100" style="visibility: inherit;" fill="rgb(0, 0, 0)" stroke="rgb(204, 204, 204)" stroke-width="1px"></line><line x1="51.125" y1="74.99999999999999" x2="46.125" y2="74.99999999999999" style="visibility: inherit;" fill="rgb(0, 0, 0)" stroke="rgb(204, 204, 204)" stroke-width="1px"></line><line x1="51.125" y1="50.000000000000036" x2="46.125" y2="50.000000000000036" style="visibility: inherit;" fill="rgb(0, 0, 0)" stroke="rgb(204, 204, 204)" stroke-width="1px"></line><line x1="51.125" y1="25.000000000000007" x2="46.125" y2="25.000000000000007" style="visibility: inherit;" fill="rgb(0, 0, 0)" stroke="rgb(204, 204, 204)" stroke-width="1px"></line><line x1="51.125" y1="0" x2="46.125" y2="0" style="visibility: inherit;" fill="rgb(0, 0, 0)" stroke="rgb(204, 204, 204)" stroke-width="1px"></line></g><g transform="translate(41.125, 0)"><text x="0" y="175" dx="0em" dy="0.3em" style="text-anchor: end; visibility: hidden; font-family: Roboto, sans-serif; font-size: 12px; font-weight: 200;" fill="rgb(50, 49, 63)" stroke="none" stroke-width="1px">0.7</text><text x="0" y="149.99999999999997" dx="0em" dy="0.3em" style="text-anchor: end; visibility: inherit; font-family: Roboto, sans-serif; font-size: 12px; font-weight: 200;" fill="rgb(50, 49, 63)" stroke="none" stroke-width="1px">0.75</text><text x="0" y="124.99999999999996" dx="0em" dy="0.3em" style="text-anchor: end; visibility: hidden; font-family: Roboto, sans-serif; font-size: 12px; font-weight: 200;" fill="rgb(50, 49, 63)" stroke="none" stroke-width="1px">0.8</text><text x="0" y="100" dx="0em" dy="0.3em" style="text-anchor: end; visibility: inherit; font-family: Roboto, sans-serif; font-size: 12px; font-weight: 200;" fill="rgb(50, 49, 63)" stroke="none" stroke-width="1px">0.85</text><text x="0" y="74.99999999999999" dx="0em" dy="0.3em" style="text-anchor: end; visibility: hidden; font-family: Roboto, sans-serif; font-size: 12px; font-weight: 200;" fill="rgb(50, 49, 63)" stroke="none" stroke-width="1px">0.9</text><text x="0" y="50.000000000000036" dx="0em" dy="0.3em" style="text-anchor: end; visibility: inherit; font-family: Roboto, sans-serif; font-size: 12px; font-weight: 200;" fill="rgb(50, 49, 63)" stroke="none" stroke-width="1px">0.95</text><text x="0" y="25.000000000000007" dx="0em" dy="0.3em" style="text-anchor: end; visibility: hidden; font-family: Roboto, sans-serif; font-size: 12px; font-weight: 200;" fill="rgb(50, 49, 63)" stroke="none" stroke-width="1px">1</text><text x="0" y="0" dx="0em" dy="0.3em" style="text-anchor: end; visibility: hidden; font-family: Roboto, sans-serif; font-size: 12px; font-weight: 200;" fill="rgb(50, 49, 63)" stroke="none" stroke-width="1px">1.05</text></g><line x1="51.125" y1="0" x2="51.125" y2="175" fill="rgb(0, 0, 0)" stroke="rgb(204, 204, 204)" stroke-width="1px"></line></g></g><g transform="translate(51, 0)" clip-path="url(#clip_0)"><clipPath id="clip_0"><rect width="278" height="175"></rect></clipPath><g><g><g><line x1="0" y1="0" x2="0" y2="175" fill="rgb(0, 0, 0)" stroke="rgb(60, 60, 60)" stroke-width="1px" opacity="0.25"></line><line x1="23.239583333333332" y1="0" x2="23.239583333333332" y2="175" fill="rgb(0, 0, 0)" stroke="rgb(60, 60, 60)" stroke-width="1px" opacity="0.25"></line><line x1="46.479166666666664" y1="0" x2="46.479166666666664" y2="175" fill="rgb(0, 0, 0)" stroke="rgb(60, 60, 60)" stroke-width="1px" opacity="0.25"></line><line x1="69.71875" y1="0" x2="69.71875" y2="175" fill="rgb(0, 0, 0)" stroke="rgb(60, 60, 60)" stroke-width="1px" opacity="0.25"></line><line x1="92.95833333333333" y1="0" x2="92.95833333333333" y2="175" fill="rgb(0, 0, 0)" stroke="rgb(60, 60, 60)" stroke-width="1px" opacity="0.25"></line><line x1="116.19791666666667" y1="0" x2="116.19791666666667" y2="175" fill="rgb(0, 0, 0)" stroke="rgb(60, 60, 60)" stroke-width="1px" opacity="0.25"></line><line x1="139.4375" y1="0" x2="139.4375" y2="175" fill="rgb(0, 0, 0)" stroke="rgb(60, 60, 60)" stroke-width="1px" opacity="0.25"></line><line x1="162.67708333333334" y1="0" x2="162.67708333333334" y2="175" fill="rgb(0, 0, 0)" stroke="rgb(60, 60, 60)" stroke-width="1px" opacity="0.25"></line><line x1="185.91666666666666" y1="0" x2="185.91666666666666" y2="175" fill="rgb(0, 0, 0)" stroke="rgb(60, 60, 60)" stroke-width="1px" opacity="0.25"></line><line x1="209.15625" y1="0" x2="209.15625" y2="175" fill="rgb(0, 0, 0)" stroke="rgb(60, 60, 60)" stroke-width="1px" opacity="0.25"></line><line x1="232.39583333333334" y1="0" x2="232.39583333333334" y2="175" fill="rgb(0, 0, 0)" stroke="rgb(60, 60, 60)" stroke-width="1px" opacity="0.25"></line><line x1="255.63541666666666" y1="0" x2="255.63541666666666" y2="175" fill="rgb(0, 0, 0)" stroke="rgb(60, 60, 60)" stroke-width="1px" opacity="0.25"></line><line x1="278.875" y1="0" x2="278.875" y2="175" fill="rgb(0, 0, 0)" stroke="rgb(60, 60, 60)" stroke-width="1px" opacity="0.25"></line></g><g><line x1="0" y1="175" x2="278.875" y2="175" fill="rgb(0, 0, 0)" stroke="rgb(60, 60, 60)" stroke-width="1px" opacity="0.25"></line><line x1="0" y1="149.99999999999997" x2="278.875" y2="149.99999999999997" fill="rgb(0, 0, 0)" stroke="rgb(60, 60, 60)" stroke-width="1px" opacity="0.25"></line><line x1="0" y1="124.99999999999996" x2="278.875" y2="124.99999999999996" fill="rgb(0, 0, 0)" stroke="rgb(60, 60, 60)" stroke-width="1px" opacity="0.25"></line><line x1="0" y1="100" x2="278.875" y2="100" fill="rgb(0, 0, 0)" stroke="rgb(60, 60, 60)" stroke-width="1px" opacity="0.25"></line><line x1="0" y1="74.99999999999999" x2="278.875" y2="74.99999999999999" fill="rgb(0, 0, 0)" stroke="rgb(60, 60, 60)" stroke-width="1px" opacity="0.25"></line><line x1="0" y1="50.000000000000036" x2="278.875" y2="50.000000000000036" fill="rgb(0, 0, 0)" stroke="rgb(60, 60, 60)" stroke-width="1px" opacity="0.25"></line><line x1="0" y1="25.000000000000007" x2="278.875" y2="25.000000000000007" fill="rgb(0, 0, 0)" stroke="rgb(60, 60, 60)" stroke-width="1px" opacity="0.25"></line><line x1="0" y1="0" x2="278.875" y2="0" fill="rgb(0, 0, 0)" stroke="rgb(60, 60, 60)" stroke-width="1px" opacity="0.25"></line></g></g></g><g><g><line x1="0" y1="524.9999999999999" x2="278.875" y2="524.9999999999999" fill="rgb(0, 0, 0)" stroke="rgb(153, 153, 153)" stroke-width="1.5px"></line></g></g><g><g><line x1="23.239583333333332" y1="0" x2="23.239583333333332" y2="175" fill="rgb(0, 0, 0)" stroke="rgb(153, 153, 153)" stroke-width="1.5px"></line></g></g><g><g><g><g><g><path stroke="rgb(255, 112, 67)" stroke-width="2px" d="M23.239583333333332,187.41350769996637L25.563541666666666,174.795651435852L27.887500000000003,166.48273455853365L30.211458333333333,158.43494615572342L32.53541666666667,152.2769220209552L34.859375,145.76299303040216L37.18333333333333,140.22042748408083L39.50729166666667,134.20324328531956L41.83125,129.11283830417668L44.155208333333334,125.0279038016663L46.479166666666664,120.94804759349307L48.803124999999994,116.87047225741252L51.12708333333333,112.38286022904572L53.45104166666667,108.32971241500441L55.775000000000006,104.70905241049547L58.098958333333336,101.23981080166863L60.422916666666666,97.72810289532579L62.746875,94.36540158049598L65.07083333333334,91.45245654207825L67.39479166666666,89.86661180988202L69.71875,86.92867834768751L72.04270833333334,85.1627527463695L74.36666666666666,82.11517900232994L76.69062500000001,80.58301777830515L79.01458333333333,78.33410917820886L81.33854166666667,76.23985183089775L83.6625,74.70296685663689L85.98645833333333,72.33747375640873L88.31041666666667,71.33789104725511L90.634375,69.29799775389337L92.95833333333333,67.7824999474381L95.28229166666667,66.37980602442975L97.60624999999999,64.89420920823795L99.93020833333334,63.349250452449084L102.25416666666666,62.55843608017091L104.578125,61.6161821294116L106.90208333333334,60.60228096860735L109.22604166666666,59.55981580477153L111.55000000000001,58.67802481491328L113.87395833333333,57.6379357600552L116.19791666666667,57.175673175938236L118.521875,56.29118271373101L120.84583333333333,55.641934798186625L123.16979166666667,54.76219745026227L125.49375,53.98765141685422L127.81770833333333,53.172102778620086L130.14166666666668,52.3543758448453L132.465625,51.722762778774054L134.78958333333333,51.4303051205686L137.11354166666666,50.69254414869017L139.4375,50.17780170817525L141.76145833333334,49.58380762326156L144.08541666666667,49.16172685377184L146.409375,48.36382306904939L148.73333333333332,47.98760078723017L151.05729166666666,47.50075139030667L153.38125000000002,47.28393433943294L155.70520833333333,46.55311273607543L158.02916666666667,46.028109592633975L160.35312499999998,45.759563566707065L162.67708333333334,45.31489665595444L165.00104166666668,44.95998892359585L167.325,44.78869600994976L169.64895833333333,44.34150078239195L171.97291666666666,44.20774709190226L174.296875,43.53798109892187L176.62083333333334,43.193783036489336L178.94479166666667,42.72134403682892L181.26875,42.647736670357865L183.59270833333332,42.81823241816923L185.91666666666666,42.143583322208904L188.24062500000002,41.78044559040177L190.56458333333333,41.516107091179514L192.88854166666667,41.04512796930736L195.21249999999998,41.329631007506066L197.53645833333334,40.99090385245895L199.86041666666668,40.84534101371539L202.184375,40.556158141401895L204.50833333333333,40.337789962355814L206.83229166666666,39.99531561712298L209.15625,39.847504464267914L211.48020833333334,39.45605001895379L213.80416666666667,39.306078207783415L216.128125,39.0879451348141L218.45208333333332,38.95545596562354L220.77604166666666,38.759018151059905L223.10000000000002,38.447321157512135L225.42395833333333,38.16579383662766L227.74791666666667,37.90235639841209L230.07187499999998,37.723468072598294L232.39583333333334,37.568081812492096L234.71979166666668,37.407568333405905L237.04375,37.03571989408655L239.36770833333333,37.39091893596368L241.69166666666666,37.12826216556386L244.015625,37.13406827651115L246.33958333333334,36.89405504824315L248.66354166666667,36.63790693260192L250.9875,36.33843702302551L253.31145833333332,36.23885179892887L255.63541666666666,36.087798269603944" style="fill: none;" fill="none"></path></g></g></g></g><g opacity="0.2"><g><g><g><path stroke="rgb(255, 112, 67)" stroke-width="2px" d="M23.239583333333332,187.41350769996637L25.563541666666666,167.2249376773834L27.887500000000003,158.50233435630795L30.211458333333333,148.97074699401855L32.53541666666667,144.23700571060178L34.859375,136.75188422203064L37.18333333333333,132.2944700717926L39.50729166666667,125.4301309585571L41.83125,121.60547971725462L44.155208333333334,118.96225214004517L46.479166666666664,114.8652672767639L48.803124999999994,110.77629923820496L51.12708333333333,105.66609501838684L53.45104166666667,102.25793123245239L55.775000000000006,99.28231835365295L58.098958333333336,96.0383951663971L60.422916666666666,92.4620270729065L62.746875,89.32220339775085L65.07083333333334,87.08348274230957L67.39479166666666,87.48798966407776L69.71875,82.52193927764893L72.04270833333334,82.51392245292664L74.36666666666666,77.54387855529785L76.69062500000001,78.28479409217834L79.01458333333333,74.96076226234436L81.33854166666667,73.09847474098206L83.6625,72.39764332771301L85.98645833333333,68.78923773765565L88.31041666666667,69.83851790428163L90.634375,66.23815894126892L92.95833333333333,65.50925374031067L95.28229166666667,64.27576541900636L97.60624999999999,62.665814161300666L99.93020833333334,61.0318124294281L102.25416666666666,61.372214555740356L104.578125,60.202801227569594L106.90208333333334,59.081429243087776L109.22604166666666,57.99611806869508L111.55000000000001,57.35533833503724L113.87395833333333,56.0778021812439L116.19791666666667,56.482279300689704L118.521875,54.96444702148439L120.84583333333333,54.66806292533876L123.16979166666667,53.44259142875673L125.49375,52.825832366943374L127.81770833333333,51.94877982139588L130.14166666666668,51.12778544425966L132.465625,50.77534317970277L134.78958333333333,50.99161863327028L137.11354166666666,49.585902690887465L139.4375,49.40568804740906L141.76145833333334,48.6928164958954L144.08541666666667,48.528605699539206L146.409375,47.166967391967795L148.73333333333332,47.42326736450196L151.05729166666666,46.77047729492189L153.38125000000002,46.95870876312257L155.70520833333333,45.45688033103944L158.02916666666667,45.240604877471945L160.35312499999998,45.35674452781679L162.67708333333334,44.64789628982545L165.00104166666668,44.427627325058005L167.325,44.531756639480605L169.64895833333333,43.67070794105531L171.97291666666666,44.0071165561676L174.296875,42.53333210945131L176.62083333333334,42.67748594284059L178.94479166666667,42.01268553733828L181.26875,42.53732562065125L183.59270833333332,43.073976039886475L185.91666666666666,41.13160967826844L188.24062500000002,41.235738992691054L190.56458333333333,41.11959934234621L192.88854166666667,40.33865928649903L195.21249999999998,41.75638556480409L197.53645833333334,40.48281311988831L199.86041666666668,40.62699675559999L202.184375,40.122383832931526L204.50833333333333,40.01023769378662L206.83229166666666,39.48160409927368L209.15625,39.625787734985366L211.48020833333334,38.86886835098268L213.80416666666667,39.08112049102784L216.128125,38.760745525360115L218.45208333333332,38.756722211837776L220.77604166666666,38.46436142921449L223.10000000000002,37.97977566719057L225.42395833333333,37.74350285530092L227.74791666666667,37.50720024108889L230.07187499999998,37.45513558387758L232.39583333333334,37.33500242233277L234.71979166666668,37.16679811477663L237.04375,36.47794723510744L239.36770833333333,37.923717498779304L241.69166666666666,36.73427700996401L244.015625,37.14277744293214L246.33958333333334,36.53403520584108L248.66354166666667,36.253684759140036L250.9875,35.88923215866091L253.31145833333332,36.08947396278383L255.63541666666666,35.861217975616476" style="fill: none;" fill="none"></path></g></g></g></g></g><g><g><circle fill="rgb(0, 0, 0)" stroke="none" stroke-width="1px"></circle></g></g></g><g transform="translate(51, 175)" clip-path="url(#clip_1)"><clipPath id="clip_1"><rect width="278" height="25"></rect></clipPath><g><g><line x1="0" y1="0" x2="0" y2="5" style="visibility: inherit;" fill="rgb(0, 0, 0)" stroke="rgb(204, 204, 204)" stroke-width="1px"></line><line x1="23.239583333333332" y1="0" x2="23.239583333333332" y2="5" style="visibility: inherit;" fill="rgb(0, 0, 0)" stroke="rgb(204, 204, 204)" stroke-width="1px"></line><line x1="46.479166666666664" y1="0" x2="46.479166666666664" y2="5" style="visibility: inherit;" fill="rgb(0, 0, 0)" stroke="rgb(204, 204, 204)" stroke-width="1px"></line><line x1="69.71875" y1="0" x2="69.71875" y2="5" style="visibility: inherit;" fill="rgb(0, 0, 0)" stroke="rgb(204, 204, 204)" stroke-width="1px"></line><line x1="92.95833333333333" y1="0" x2="92.95833333333333" y2="5" style="visibility: inherit;" fill="rgb(0, 0, 0)" stroke="rgb(204, 204, 204)" stroke-width="1px"></line><line x1="116.19791666666667" y1="0" x2="116.19791666666667" y2="5" style="visibility: inherit;" fill="rgb(0, 0, 0)" stroke="rgb(204, 204, 204)" stroke-width="1px"></line><line x1="139.4375" y1="0" x2="139.4375" y2="5" style="visibility: inherit;" fill="rgb(0, 0, 0)" stroke="rgb(204, 204, 204)" stroke-width="1px"></line><line x1="162.67708333333334" y1="0" x2="162.67708333333334" y2="5" style="visibility: inherit;" fill="rgb(0, 0, 0)" stroke="rgb(204, 204, 204)" stroke-width="1px"></line><line x1="185.91666666666666" y1="0" x2="185.91666666666666" y2="5" style="visibility: inherit;" fill="rgb(0, 0, 0)" stroke="rgb(204, 204, 204)" stroke-width="1px"></line><line x1="209.15625" y1="0" x2="209.15625" y2="5" style="visibility: inherit;" fill="rgb(0, 0, 0)" stroke="rgb(204, 204, 204)" stroke-width="1px"></line><line x1="232.39583333333334" y1="0" x2="232.39583333333334" y2="5" style="visibility: inherit;" fill="rgb(0, 0, 0)" stroke="rgb(204, 204, 204)" stroke-width="1px"></line><line x1="255.63541666666666" y1="0" x2="255.63541666666666" y2="5" style="visibility: inherit;" fill="rgb(0, 0, 0)" stroke="rgb(204, 204, 204)" stroke-width="1px"></line><line x1="278.875" y1="0" x2="278.875" y2="5" style="visibility: inherit;" fill="rgb(0, 0, 0)" stroke="rgb(204, 204, 204)" stroke-width="1px"></line></g><g transform="translate(0, 8)"><text x="0" y="0" dx="0em" dy="0.95em" style="text-anchor: middle; visibility: hidden; font-family: Roboto, sans-serif; font-size: 12px; font-weight: 200;" fill="rgb(50, 49, 63)" stroke="none" stroke-width="1px">-10</text><text x="23.239583333333332" y="0" dx="0em" dy="0.95em" style="text-anchor: middle; visibility: inherit; font-family: Roboto, sans-serif; font-size: 12px; font-weight: 200;" fill="rgb(50, 49, 63)" stroke="none" stroke-width="1px">0</text><text x="46.479166666666664" y="0" dx="0em" dy="0.95em" style="text-anchor: middle; visibility: inherit; font-family: Roboto, sans-serif; font-size: 12px; font-weight: 200;" fill="rgb(50, 49, 63)" stroke="none" stroke-width="1px">10</text><text x="69.71875" y="0" dx="0em" dy="0.95em" style="text-anchor: middle; visibility: inherit; font-family: Roboto, sans-serif; font-size: 12px; font-weight: 200;" fill="rgb(50, 49, 63)" stroke="none" stroke-width="1px">20</text><text x="92.95833333333333" y="0" dx="0em" dy="0.95em" style="text-anchor: middle; visibility: inherit; font-family: Roboto, sans-serif; font-size: 12px; font-weight: 200;" fill="rgb(50, 49, 63)" stroke="none" stroke-width="1px">30</text><text x="116.19791666666667" y="0" dx="0em" dy="0.95em" style="text-anchor: middle; visibility: inherit; font-family: Roboto, sans-serif; font-size: 12px; font-weight: 200;" fill="rgb(50, 49, 63)" stroke="none" stroke-width="1px">40</text><text x="139.4375" y="0" dx="0em" dy="0.95em" style="text-anchor: middle; visibility: inherit; font-family: Roboto, sans-serif; font-size: 12px; font-weight: 200;" fill="rgb(50, 49, 63)" stroke="none" stroke-width="1px">50</text><text x="162.67708333333334" y="0" dx="0em" dy="0.95em" style="text-anchor: middle; visibility: inherit; font-family: Roboto, sans-serif; font-size: 12px; font-weight: 200;" fill="rgb(50, 49, 63)" stroke="none" stroke-width="1px">60</text><text x="185.91666666666666" y="0" dx="0em" dy="0.95em" style="text-anchor: middle; visibility: inherit; font-family: Roboto, sans-serif; font-size: 12px; font-weight: 200;" fill="rgb(50, 49, 63)" stroke="none" stroke-width="1px">70</text><text x="209.15625" y="0" dx="0em" dy="0.95em" style="text-anchor: middle; visibility: inherit; font-family: Roboto, sans-serif; font-size: 12px; font-weight: 200;" fill="rgb(50, 49, 63)" stroke="none" stroke-width="1px">80</text><text x="232.39583333333334" y="0" dx="0em" dy="0.95em" style="text-anchor: middle; visibility: inherit; font-family: Roboto, sans-serif; font-size: 12px; font-weight: 200;" fill="rgb(50, 49, 63)" stroke="none" stroke-width="1px">90</text><text x="255.63541666666666" y="0" dx="0em" dy="0.95em" style="text-anchor: middle; visibility: inherit; font-family: Roboto, sans-serif; font-size: 12px; font-weight: 200;" fill="rgb(50, 49, 63)" stroke="none" stroke-width="1px">100</text><text x="278.875" y="0" dx="0em" dy="0.95em" style="text-anchor: middle; visibility: hidden; font-family: Roboto, sans-serif; font-size: 12px; font-weight: 200;" fill="rgb(50, 49, 63)" stroke="none" stroke-width="1px">110</text></g><line x1="0" y1="0" x2="278.875" y2="0" fill="rgb(0, 0, 0)" stroke="rgb(204, 204, 204)" stroke-width="1px"></line></g></g></g></g></svg>