<svg viewBox="0 0 330 200" xmlns="http://www.w3.org/2000/svg"><g><g><g><g><g><line x1="51.125" y1="175" x2="46.125" y2="175" style="visibility: inherit;" fill="rgb(0, 0, 0)" stroke="rgb(204, 204, 204)" stroke-width="1px"></line><line x1="51.125" y1="155.55555555555554" x2="46.125" y2="155.55555555555554" style="visibility: inherit;" fill="rgb(0, 0, 0)" stroke="rgb(204, 204, 204)" stroke-width="1px"></line><line x1="51.125" y1="136.11111111111111" x2="46.125" y2="136.11111111111111" style="visibility: inherit;" fill="rgb(0, 0, 0)" stroke="rgb(204, 204, 204)" stroke-width="1px"></line><line x1="51.125" y1="116.66666666666666" x2="46.125" y2="116.66666666666666" style="visibility: inherit;" fill="rgb(0, 0, 0)" stroke="rgb(204, 204, 204)" stroke-width="1px"></line><line x1="51.125" y1="97.22222222222223" x2="46.125" y2="97.22222222222223" style="visibility: inherit;" fill="rgb(0, 0, 0)" stroke="rgb(204, 204, 204)" stroke-width="1px"></line><line x1="51.125" y1="77.77777777777777" x2="46.125" y2="77.77777777777777" style="visibility: inherit;" fill="rgb(0, 0, 0)" stroke="rgb(204, 204, 204)" stroke-width="1px"></line><line x1="51.125" y1="58.33333333333334" x2="46.125" y2="58.33333333333334" style="visibility: inherit;" fill="rgb(0, 0, 0)" stroke="rgb(204, 204, 204)" stroke-width="1px"></line><line x1="51.125" y1="38.88888888888891" x2="46.125" y2="38.88888888888891" style="visibility: inherit;" fill="rgb(0, 0, 0)" stroke="rgb(204, 204, 204)" stroke-width="1px"></line><line x1="51.125" y1="19.444444444444454" x2="46.125" y2="19.444444444444454" style="visibility: inherit;" fill="rgb(0, 0, 0)" stroke="rgb(204, 204, 204)" stroke-width="1px"></line><line x1="51.125" y1="0" x2="46.125" y2="0" style="visibility: inherit;" fill="rgb(0, 0, 0)" stroke="rgb(204, 204, 204)" stroke-width="1px"></line></g><g transform="translate(41.125, 0)"><text x="0" y="175" dx="0em" dy="0.3em" style="text-anchor: end; visibility: hidden; font-family: Roboto, sans-serif; font-size: 12px; font-weight: 200;" fill="rgb(50, 49, 63)" stroke="none" stroke-width="1px">-0.2</text><text x="0" y="155.55555555555554" dx="0em" dy="0.3em" style="text-anchor: end; visibility: inherit; font-family: Roboto, sans-serif; font-size: 12px; font-weight: 200;" fill="rgb(50, 49, 63)" stroke="none" stroke-width="1px">0</text><text x="0" y="136.11111111111111" dx="0em" dy="0.3em" style="text-anchor: end; visibility: hidden; font-family: Roboto, sans-serif; font-size: 12px; font-weight: 200;" fill="rgb(50, 49, 63)" stroke="none" stroke-width="1px">0.2</text><text x="0" y="116.66666666666666" dx="0em" dy="0.3em" style="text-anchor: end; visibility: inherit; font-family: Roboto, sans-serif; font-size: 12px; font-weight: 200;" fill="rgb(50, 49, 63)" stroke="none" stroke-width="1px">0.4</text><text x="0" y="97.22222222222223" dx="0em" dy="0.3em" style="text-anchor: end; visibility: hidden; font-family: Roboto, sans-serif; font-size: 12px; font-weight: 200;" fill="rgb(50, 49, 63)" stroke="none" stroke-width="1px">0.6</text><text x="0" y="77.77777777777777" dx="0em" dy="0.3em" style="text-anchor: end; visibility: inherit; font-family: Roboto, sans-serif; font-size: 12px; font-weight: 200;" fill="rgb(50, 49, 63)" stroke="none" stroke-width="1px">0.8</text><text x="0" y="58.33333333333334" dx="0em" dy="0.3em" style="text-anchor: end; visibility: hidden; font-family: Roboto, sans-serif; font-size: 12px; font-weight: 200;" fill="rgb(50, 49, 63)" stroke="none" stroke-width="1px">1</text><text x="0" y="38.88888888888891" dx="0em" dy="0.3em" style="text-anchor: end; visibility: inherit; font-family: Roboto, sans-serif; font-size: 12px; font-weight: 200;" fill="rgb(50, 49, 63)" stroke="none" stroke-width="1px">1.2</text><text x="0" y="19.444444444444454" dx="0em" dy="0.3em" style="text-anchor: end; visibility: hidden; font-family: Roboto, sans-serif; font-size: 12px; font-weight: 200;" fill="rgb(50, 49, 63)" stroke="none" stroke-width="1px">1.4</text><text x="0" y="0" dx="0em" dy="0.3em" style="text-anchor: end; visibility: hidden; font-family: Roboto, sans-serif; font-size: 12px; font-weight: 200;" fill="rgb(50, 49, 63)" stroke="none" stroke-width="1px">1.6</text></g><line x1="51.125" y1="0" x2="51.125" y2="175" fill="rgb(0, 0, 0)" stroke="rgb(204, 204, 204)" stroke-width="1px"></line></g></g><g transform="translate(51, 0)" clip-path="url(#clip_0)"><clipPath id="clip_0"><rect width="278" height="175"></rect></clipPath><g><g><g><line x1="0" y1="0" x2="0" y2="175" fill="rgb(0, 0, 0)" stroke="rgb(60, 60, 60)" stroke-width="1px" opacity="0.25"></line><line x1="23.239583333333332" y1="0" x2="23.239583333333332" y2="175" fill="rgb(0, 0, 0)" stroke="rgb(60, 60, 60)" stroke-width="1px" opacity="0.25"></line><line x1="46.479166666666664" y1="0" x2="46.479166666666664" y2="175" fill="rgb(0, 0, 0)" stroke="rgb(60, 60, 60)" stroke-width="1px" opacity="0.25"></line><line x1="69.71875" y1="0" x2="69.71875" y2="175" fill="rgb(0, 0, 0)" stroke="rgb(60, 60, 60)" stroke-width="1px" opacity="0.25"></line><line x1="92.95833333333333" y1="0" x2="92.95833333333333" y2="175" fill="rgb(0, 0, 0)" stroke="rgb(60, 60, 60)" stroke-width="1px" opacity="0.25"></line><line x1="116.19791666666667" y1="0" x2="116.19791666666667" y2="175" fill="rgb(0, 0, 0)" stroke="rgb(60, 60, 60)" stroke-width="1px" opacity="0.25"></line><line x1="139.4375" y1="0" x2="139.4375" y2="175" fill="rgb(0, 0, 0)" stroke="rgb(60, 60, 60)" stroke-width="1px" opacity="0.25"></line><line x1="162.67708333333334" y1="0" x2="162.67708333333334" y2="175" fill="rgb(0, 0, 0)" stroke="rgb(60, 60, 60)" stroke-width="1px" opacity="0.25"></line><line x1="185.91666666666666" y1="0" x2="185.91666666666666" y2="175" fill="rgb(0, 0, 0)" stroke="rgb(60, 60, 60)" stroke-width="1px" opacity="0.25"></line><line x1="209.15625" y1="0" x2="209.15625" y2="175" fill="rgb(0, 0, 0)" stroke="rgb(60, 60, 60)" stroke-width="1px" opacity="0.25"></line><line x1="232.39583333333334" y1="0" x2="232.39583333333334" y2="175" fill="rgb(0, 0, 0)" stroke="rgb(60, 60, 60)" stroke-width="1px" opacity="0.25"></line><line x1="255.63541666666666" y1="0" x2="255.63541666666666" y2="175" fill="rgb(0, 0, 0)" stroke="rgb(60, 60, 60)" stroke-width="1px" opacity="0.25"></line><line x1="278.875" y1="0" x2="278.875" y2="175" fill="rgb(0, 0, 0)" stroke="rgb(60, 60, 60)" stroke-width="1px" opacity="0.25"></line></g><g><line x1="0" y1="175" x2="278.875" y2="175" fill="rgb(0, 0, 0)" stroke="rgb(60, 60, 60)" stroke-width="1px" opacity="0.25"></line><line x1="0" y1="155.55555555555554" x2="278.875" y2="155.55555555555554" fill="rgb(0, 0, 0)" stroke="rgb(60, 60, 60)" stroke-width="1px" opacity="0.25"></line><line x1="0" y1="136.11111111111111" x2="278.875" y2="136.11111111111111" fill="rgb(0, 0, 0)" stroke="rgb(60, 60, 60)" stroke-width="1px" opacity="0.25"></line><line x1="0" y1="116.66666666666666" x2="278.875" y2="116.66666666666666" fill="rgb(0, 0, 0)" stroke="rgb(60, 60, 60)" stroke-width="1px" opacity="0.25"></line><line x1="0" y1="97.22222222222223" x2="278.875" y2="97.22222222222223" fill="rgb(0, 0, 0)" stroke="rgb(60, 60, 60)" stroke-width="1px" opacity="0.25"></line><line x1="0" y1="77.77777777777777" x2="278.875" y2="77.77777777777777" fill="rgb(0, 0, 0)" stroke="rgb(60, 60, 60)" stroke-width="1px" opacity="0.25"></line><line x1="0" y1="58.33333333333334" x2="278.875" y2="58.33333333333334" fill="rgb(0, 0, 0)" stroke="rgb(60, 60, 60)" stroke-width="1px" opacity="0.25"></line><line x1="0" y1="38.88888888888891" x2="278.875" y2="38.88888888888891" fill="rgb(0, 0, 0)" stroke="rgb(60, 60, 60)" stroke-width="1px" opacity="0.25"></line><line x1="0" y1="19.444444444444454" x2="278.875" y2="19.444444444444454" fill="rgb(0, 0, 0)" stroke="rgb(60, 60, 60)" stroke-width="1px" opacity="0.25"></line><line x1="0" y1="0" x2="278.875" y2="0" fill="rgb(0, 0, 0)" stroke="rgb(60, 60, 60)" stroke-width="1px" opacity="0.25"></line></g></g></g><g><g><line x1="0" y1="155.55555555555554" x2="278.875" y2="155.55555555555554" fill="rgb(0, 0, 0)" stroke="rgb(153, 153, 153)" stroke-width="1.5px"></line></g></g><g><g><line x1="23.239583333333332" y1="0" x2="23.239583333333332" y2="175" fill="rgb(0, 0, 0)" stroke="rgb(153, 153, 153)" stroke-width="1.5px"></line></g></g><g><g><g><g><g><path stroke="rgb(255, 112, 67)" stroke-width="2px" d="M23.239583333333332,1.8020596769121044L23.704375000000002,23.37770925627816L24.16916666666667,32.732143335872244L24.633958333333332,41.85890754063925L25.09875,41.3592020670573L25.563541666666666,49.98114969995287L26.028333333333336,35.63579188452828L26.493125,41.51193234655593L26.957916666666666,41.819989018970084L27.422708333333333,37.59505781862472L27.775949999999998,36.850054396523376L28.24074166666667,51.9413428174125L28.705533333333335,46.801571382416626L29.170325,48.46703608830771L29.635116666666665,42.24320186509027L30.099908333333335,52.83441742261252L30.564700000000002,49.795469641685486L31.029491666666665,45.95070679982504L31.494283333333332,50.0376151667701L31.959075,47.14197516441345L32.31231666666667,52.411297294828636L32.77710833333333,40.228049953778594L33.2419,51.45557986365426L33.706691666666664,55.08678919739194L34.171483333333335,40.02209934923385L34.636275000000005,47.50204682350159L35.10106666666666,53.37672697173226L35.56585833333333,59.88554838630889L36.03065,56.170457932684165L36.495441666666665,41.69254766570199L36.848683333333334,47.31832544008892L37.313475000000004,36.84552278783587L37.77826666666667,40.580866403049896L38.24305833333333,48.220358954535605L38.70785,53.0748360686832L39.172641666666664,39.10754885938433L39.637433333333334,65.05185465017956L40.102225000000004,45.79222798347473L40.56701666666667,60.0025936961174L41.03180833333334,52.61209044191573L41.38505,61.683194670412284L41.84984166666666,47.40745094087389L42.31463333333333,66.73874888155197L42.779425,56.96083539062076L43.24421666666667,49.67062440183428L43.70900833333334,53.706236349211814L44.17380000000001,44.295475880304984L44.63859166666666,51.246372527546356L45.10338333333333,56.38452139165667L45.568175,57.73120886749692L45.921416666666666,46.67545126544106L46.386208333333336,54.14699614048004L46.851000000000006,52.51489844587115L47.31579166666666,45.717763569619926L47.78058333333333,25.887698928515128L48.245374999999996,35.477382606930206L48.710166666666666,40.93875918123458L49.174958333333336,50.0054998530282L49.63975,54.66942919625177L50.10454166666667,53.97852692339156L50.45778333333333,58.38241030772528L50.922575,32.33740660879348L51.387366666666665,36.619811587863516L51.852158333333335,29.69882819387649L52.31695,16.398834851053035L52.78174166666667,19.11122865147061L53.24653333333334,39.60672120253246L53.711324999999995,32.920952637990325L54.176116666666665,35.19780205355752L54.64090833333333,35.76828638712566L54.99415,50.925033953454765L55.45894166666667,54.147749476962616L55.92373333333334,45.852657159169524L56.388524999999994,49.115403824382355L56.853316666666665,35.596884952651145L57.318108333333335,29.028949803776214L57.7829,41.20668040381539L58.24769166666667,36.8760387102763L58.71248333333333,31.68170253435772L59.177275,41.51228004031713L59.530516666666664,41.698319382137726L59.995308333333334,20.535393887096L60.4601,23.34259218639798L60.92489166666667,20.57689693239001L61.38968333333333,48.151086767514556L61.854475,30.294381247626426L62.31926666666667,36.04668478171032L62.784058333333334,30.749489201439754L63.24885,25.52374468909371L63.71364166666667,32.91735980245803L64.06688333333334,29.76060178544787L64.53167499999999,36.84580094284482L64.99646666666666,30.762771103117213L65.46125833333333,31.427654292848384L65.92605,33.570989304118704L66.39084166666667,26.13189584679074L66.85563333333333,31.713365846210074L67.320425,29.270307223002128L67.78521666666666,41.8134176068836L68.25000833333333,28.670280509524893L68.60325,21.36897808975644L69.06804166666667,23.5919002029631L69.53283333333333,38.438586062855194L69.997625,42.334575785530944L70.46241666666666,23.516218860944118L70.92720833333334,33.52906902631125L71.392,26.73302359051175L71.85679166666667,32.66323043240442L72.32158333333334,27.06437574492562L72.786375,29.79651855097878L73.13961666666665,33.00328652064007L73.60440833333334,25.030425190925598L74.0692,21.344801783561707L74.53399166666667,31.53235647413467L74.99878333333334,31.004615293608786L75.463575,38.062068488862785L75.92836666666666,25.792813301086426L76.39315833333333,31.855595774120758L76.85795,30.18347852759893L77.32274166666666,32.72301057974499L77.67598333333333,21.078723337915218L78.140775,39.22493027316201L78.60556666666666,45.06901337040796L79.07035833333335,24.09435245725845L79.53515,16.945664419068233L79.99994166666666,28.50154472721948L80.46473333333333,38.841227028105L80.929525,38.9554328388638L81.39431666666667,39.724473489655395L81.85910833333332,23.60688580407037L82.21235,37.08529240555234L82.67714166666666,23.399393757184352L83.14193333333333,27.336550421184967L83.606725,20.168924662801967L84.07151666666667,24.773166577021293L84.53630833333332,29.020883308516623L85.00110000000001,27.99918519126046L85.46589166666666,31.233339839511466L85.93068333333333,42.29656126764086L86.395475,40.060936742358756L86.74871666666667,35.16028589672513L87.21350833333332,33.73177448908489L87.67830000000001,41.05086723963421L88.14309166666666,30.34480843279098L88.60788333333333,27.063077688217163L89.072675,30.24828864468469L89.53746666666666,27.839732832378814L90.00225833333333,29.663224352730648L90.46705,31.446406576368556L90.93184166666667,33.21075538794201L91.28508333333333,41.434002584881256L91.749875,34.817251231935295L92.21466666666666,16.09632968902588L92.67945833333333,17.945214443736624L93.14425,35.56246327029336L93.60904166666667,33.51706200175817L94.07383333333333,31.79320792357128L94.53862500000001,41.89797672960494L95.00341666666667,36.70328127013314L95.46820833333334,30.616044335895133L95.82145,32.40772187709808L96.28624166666667,27.684591876135947L96.75103333333333,25.4325098461575L97.21582500000001,34.62076948748696L97.68061666666667,30.272036128573966L98.14540833333334,35.09927723142837L98.6102,35.197987490230155L99.07499166666666,41.26759635077584L99.53978333333333,35.69060001108382L100.00457499999999,35.35981575647991L100.35781666666666,42.9338143931495L100.82260833333333,56.13019499513839L101.2874,49.03220070732965L101.75219166666666,53.312693370713134L102.21698333333333,52.75123748514388L102.681775,54.339247610833915L103.14656666666667,51.15106966760424L103.61135833333333,54.00356087419723L104.07615,52.908951375219566L104.54094166666667,56.74574044015673L104.89418333333333,47.25756016042498L105.358975,52.87458764182198L105.82376666666667,70.25961180528006L106.28855833333333,50.493569175402335L106.75335,54.689004355006745L107.21814166666667,54.50302296214633L107.68293333333334,60.728387037913016L108.147725,57.82915420002408L108.61251666666666,55.64517378807068L109.07730833333333,64.66097732385L109.43055000000001,54.84696163071527L109.89534166666667,52.188182208273155L110.36013333333334,43.36517486307357L110.824925,57.849934697151184L111.28971666666666,68.54224221573938L111.75450833333333,53.71758275561862L112.21929999999999,70.30798180235757L112.68409166666667,61.14867925643921L113.14888333333333,65.82613968186908L113.613675,64.18499615457324L113.96691666666668,48.18849861621857L114.43170833333333,61.49582829740313L114.89649999999999,62.45581656694412L115.36129166666667,63.93141729964151L115.82608333333333,39.28363256984289L116.290875,41.394887036747406L116.75566666666667,37.09776302178702L117.22045833333334,43.74420742193859L117.68525,50.81367923153772L118.15004166666667,44.8812355597814L118.50328333333333,34.996104902691314L118.968075,51.76595449447632L119.43286666666667,40.54268962807126L119.89765833333334,50.399112370279106L120.36245,50.870040390226585L120.82724166666667,44.27022172345056L121.29203333333334,46.46321899361081L121.75682499999999,41.17779864205255L122.22161666666668,44.176634152730315L122.68640833333333,66.08557717667688L123.03965,52.413244379891296L123.50444166666668,52.20482514964211L123.96923333333334,56.65175881650713L124.43402499999999,45.48018442259896L124.89881666666668,59.667613936795135L125.36360833333333,58.14183519946206L125.8284,53.7684503528807L126.29319166666666,58.8299733069208L126.75798333333334,52.72152125835419L127.222775,61.581407321823974L127.57601666666667,53.20038828584884L128.04080833333333,53.983070121871116L128.5056,61.58770637379754L128.97039166666667,58.87611226903069L129.43518333333333,67.44021524985632L129.89997499999998,60.09828481409286L130.36476666666667,59.95198686917624L130.82955833333332,74.04166807730994L131.29435,53.075102633900116L131.75914166666666,54.92238799730938L132.11238333333333,65.73686930868362L132.577175,64.19634256098007L133.04196666666667,67.94026841719946L133.50675833333332,65.20965546369553L133.97155,65.15754775868524L134.43634166666666,64.11009132862091L134.90113333333335,63.70617548624676L135.365925,59.90188999308481L135.83071666666666,52.30764978461795L136.29550833333334,57.15227557553186L136.64875,63.109451863500816L137.11354166666666,61.93427013026345L137.57833333333335,60.72194890843499L138.043125,35.38913793034024L138.50791666666666,58.95269181993273L138.97270833333334,74.14596461587482L139.4375,64.85885563823913L139.90229166666668,61.09667006466125L140.3670833333333,66.51625964376663L140.831875,68.39234564039444L141.18511666666666,76.74918837017483L141.64990833333334,69.57483473751282L142.11470000000003,74.04594471057257L142.57949166666666,71.79380473163394L143.04428333333334,82.18522386418451L143.509075,79.53847464587955L143.97386666666665,75.64535919162964L144.43865833333334,67.86727011203766L144.90345,68.32456274165048L145.36824166666668,71.29332274198532L145.7214833333333,77.85125010543399L146.186275,75.35251412126755L146.65106666666668,87.09172175990213L147.11585833333334,74.86656573083667L147.58065,75.0257283449173L148.04544166666668,88.3658571375741L148.51023333333333,67.02527172035641L148.97502500000002,67.11443199051752L149.43981666666667,75.40312674310474L149.90460833333333,74.81227335002689L150.25785,75.95799383189944L150.72264166666668,76.646659274896L151.18743333333333,65.05697154336505L151.652225,71.12689332829584L152.11701666666667,72.8647478752666L152.58180833333333,55.2273154258728L153.04659999999998,70.44484565655392L153.51139166666667,84.36019900772308L153.97618333333335,68.83893509705862L154.44097499999998,86.47659354739719L154.79421666666667,63.43868888086743L155.25900833333333,71.87308470408124L155.7238,89.25036109156079L156.18859166666667,76.01300477981567L156.65338333333332,84.54356690247855L157.118175,72.83433626095456L157.5829666666667,82.16335972150168L158.04775833333332,77.94309341245227L158.51255,92.67617613077164L158.9773416666667,76.93066133393182L159.33058333333335,89.27994983063803L159.79537499999998,74.93749525811938L160.26016666666666,92.52246071894965L160.72495833333335,71.48558000723523L161.18974999999998,89.14167781670889L161.65454166666666,86.57287574476666L162.11933333333334,89.07238245010376L162.584125,63.154420256614685L163.04891666666666,78.49954250786041L163.51370833333334,75.10542554987802L163.86695,85.8852591779497L164.3317416666667,82.64443460437988L164.79653333333331,76.6323690613111L165.261325,82.56481273306741L165.72611666666668,75.56443926360873L166.19090833333334,89.23753698666891L166.6557,92.53396358754901L167.12049166666665,81.16806894540787L167.58528333333334,71.6473271449407L168.05007500000002,85.62315023607678L168.40331666666665,78.85092182291879L168.86810833333334,91.02879150046243L169.3329,83.14742578400507L169.79769166666668,95.07557600736618L170.26248333333334,91.61751237180499L170.727275,83.23241952392792L171.19206666666668,74.96186859077878L171.65685833333333,92.03574160734814L172.12165,91.25549362765418L172.58644166666667,82.72452006737393L172.93968333333333,88.61782501141232L173.40447500000002,74.51418969366287L173.86926666666665,81.11637267801498L174.33405833333333,74.33577643500436L174.79885000000002,85.34905744923486L175.26364166666664,83.68103719419904L175.72843333333333,87.81842490037283L176.193225,91.63041181034512L176.65801666666667,80.69311926762265L177.12280833333332,88.82417546378241L177.47605,90.00292685296802L177.94084166666667,91.92250933912067L178.40563333333336,90.07465607590146L178.87042499999998,90.10628461837769L179.33521666666667,88.9829961789979L179.80000833333335,92.07589444186954L180.26479999999998,73.36448232332867L180.72959166666666,84.22324243519043L181.19438333333335,85.5670788221889L181.659175,81.40153951115079L182.01241666666667,93.73320572906071L182.47720833333332,73.02791476249695L182.942,78.28980783621472L183.40679166666666,89.98162481519913L183.87158333333332,81.57219919893478L184.336375,89.09213725063537L184.80116666666666,87.93456041150624L185.26595833333334,88.6345432864295L185.73075,75.08299930228128L186.19554166666666,93.56046567360562L186.54878333333335,78.22143385807675L187.013575,87.83018853929309L187.47836666666666,91.5158756905132L187.94315833333334,88.69780616627799L188.40795,96.9915772477786L188.87274166666668,90.10928637451596L189.33753333333334,71.72104401720895L189.802325,91.50498708089194L190.26711666666668,94.4529434045156L190.7319083333333,94.68575914700827L191.08515,84.11129663387936L191.54994166666665,90.09490344259476L192.01473333333334,74.97014949719113L192.47952500000002,85.97622745566898L192.94431666666665,84.77601177162595L193.40910833333334,88.0237960153156L193.87390000000002,69.03770582543481L194.33869166666665,81.37803541289438L194.80348333333333,81.26285026470822L195.26827500000002,88.68029399050607L195.62151666666668,91.61262727446027L196.08630833333333,94.36615904172263L196.5511,100.78972015115951L197.01589166666668,84.78039850791296L197.48068333333333,94.34308956066769L197.945475,94.60032499498791L198.41026666666667,75.3419500258234L198.87505833333333,84.51884587605795L199.33984999999998,94.57810736364789L199.80464166666667,72.85101397169962L200.15788333333333,96.05977535247803L200.62267500000002,94.89539530542163L201.08746666666667,88.43539009491604L201.55225833333333,99.08521523078284L202.01705,86.7470819089148L202.48184166666667,89.39561595519385L202.94663333333332,94.02894245253668L203.411425,85.91775115993289L203.87621666666666,91.60129825274151L204.34100833333335,87.34191060066223L204.69424999999998,99.21875281466379L205.15904166666667,87.39981899658841L205.62383333333332,100.80209804905786L206.088625,95.03301249610053L206.55341666666666,94.83325084050497L207.01820833333332,78.51048327154584L207.483,100.10873874028525L207.9477916666667,81.16744889153375L208.41258333333332,82.42984380986957L208.877375,84.47420779201721L209.23061666666666,88.90078398916458L209.69540833333335,96.51976260874008L210.1602,97.11875203582977L210.62499166666666,96.92134310801825L211.08978333333334,103.89639288187027L211.55457500000003,89.28183317184448L212.01936666666666,79.0066538585557L212.48415833333334,86.5839034318924L212.94895,89.63572747177548L213.41374166666665,87.10611048671936L213.76698333333331,87.48388555314807L214.231775,84.92203156153363L214.69656666666668,80.33684906032352L215.1613583333333,88.81805605358548L215.62615,100.28547727399403L216.09094166666668,79.74742121166653L216.55573333333334,83.23451148139108L217.020525,90.61682654751672L217.48531666666668,97.88880099852881L217.95010833333333,88.17402869462967L218.30335000000002,91.05928424331879L218.76814166666665,89.24534850650365L219.23293333333334,108.88581284218365L219.697725,93.14173228210873L220.16251666666668,91.5393392244975L220.62730833333333,105.06518284479779L221.0921,91.50784975952573L221.55689166666667,83.37377442253961L222.02168333333333,91.0161818067233L222.48647499999998,92.53035336732864L222.83971666666667,96.20683242877325L223.30450833333333,86.14837063683404L223.7693,66.35706226030987L224.23409166666667,100.44384019242392L224.69888333333333,69.48308414883084L225.163675,89.68388305770026L225.62846666666667,91.3727069894473L226.09325833333332,86.95878105031122L226.55805,76.12809720966553L227.0228416666667,88.55215145481958L227.37608333333333,75.87174259954028L227.84087499999998,96.70111387968063L228.30566666666667,96.97120818826889L228.77045833333335,101.9419946604305L229.23524999999998,90.74344502554999L229.70004166666666,99.69761404726242L230.16483333333335,87.70905203289456L230.62962499999998,94.69172788990869L231.09441666666666,102.06892606284885L231.55920833333334,84.03718570868176L231.91245,87.13638881842297L232.3772416666667,80.12992491324744L232.84203333333332,95.82967162132263L233.306825,83.80895372894076L233.7716166666667,68.26661378145218L234.23640833333332,53.058865335252555L234.7012,87.78817554314932L235.16599166666668,81.5908529692226L235.63078333333334,103.44388104147382L236.095575,83.14858476320904L236.44881666666666,82.31663472122617L236.91360833333334,85.24545629819235L237.3784,93.13948386245305L237.84319166666666,76.27199606762994L238.30798333333334,89.55830186605453L238.772775,70.6145144171185L239.23756666666668,92.10521661572987L239.70235833333334,98.76886026726828L240.16715,83.03349233335919L240.63194166666668,88.4769394993782L240.98518333333334,80.63131670157117L241.449975,94.55153776539697L241.91476666666668,93.37701665030585L242.37955833333334,97.9434468679958L242.84435,97.42704629898071L243.30914166666665,84.28066405985092L243.77393333333333,90.7684326171875L244.23872500000002,95.77639914221234L244.70351666666664,93.92203241586685L245.16830833333333,89.42987538046307L245.52155,95.65350678231982L245.98634166666668,74.96870656808218L246.45113333333333,84.92115653223462L246.915925,91.82311528258855L247.38071666666667,90.39294653468663L247.84550833333336,99.73990519841513L248.31029999999998,88.83823967642255L248.77509166666667,87.25193325016235L249.23988333333335,92.4969689713584L249.70467499999998,91.83439794513916L250.05791666666664,94.37663621372647L250.52270833333333,91.29879888561038L250.9875,86.60944733354782L251.45229166666664,91.97896901104187L251.91708333333332,92.43984868129095L252.381875,99.16825029585098L252.84666666666666,105.63303050067691L253.31145833333332,82.79381543397903L253.77625,81.50217947032718L254.24104166666666,97.58965108129715" style="fill: none;" fill="none"></path></g></g></g></g></g></g><g transform="translate(51, 175)" clip-path="url(#clip_1)"><clipPath id="clip_1"><rect width="278" height="25"></rect></clipPath><g><g><line x1="0" y1="0" x2="0" y2="5" style="visibility: inherit;" fill="rgb(0, 0, 0)" stroke="rgb(204, 204, 204)" stroke-width="1px"></line><line x1="23.239583333333332" y1="0" x2="23.239583333333332" y2="5" style="visibility: inherit;" fill="rgb(0, 0, 0)" stroke="rgb(204, 204, 204)" stroke-width="1px"></line><line x1="46.479166666666664" y1="0" x2="46.479166666666664" y2="5" style="visibility: inherit;" fill="rgb(0, 0, 0)" stroke="rgb(204, 204, 204)" stroke-width="1px"></line><line x1="69.71875" y1="0" x2="69.71875" y2="5" style="visibility: inherit;" fill="rgb(0, 0, 0)" stroke="rgb(204, 204, 204)" stroke-width="1px"></line><line x1="92.95833333333333" y1="0" x2="92.95833333333333" y2="5" style="visibility: inherit;" fill="rgb(0, 0, 0)" stroke="rgb(204, 204, 204)" stroke-width="1px"></line><line x1="116.19791666666667" y1="0" x2="116.19791666666667" y2="5" style="visibility: inherit;" fill="rgb(0, 0, 0)" stroke="rgb(204, 204, 204)" stroke-width="1px"></line><line x1="139.4375" y1="0" x2="139.4375" y2="5" style="visibility: inherit;" fill="rgb(0, 0, 0)" stroke="rgb(204, 204, 204)" stroke-width="1px"></line><line x1="162.67708333333334" y1="0" x2="162.67708333333334" y2="5" style="visibility: inherit;" fill="rgb(0, 0, 0)" stroke="rgb(204, 204, 204)" stroke-width="1px"></line><line x1="185.91666666666666" y1="0" x2="185.91666666666666" y2="5" style="visibility: inherit;" fill="rgb(0, 0, 0)" stroke="rgb(204, 204, 204)" stroke-width="1px"></line><line x1="209.15625" y1="0" x2="209.15625" y2="5" style="visibility: inherit;" fill="rgb(0, 0, 0)" stroke="rgb(204, 204, 204)" stroke-width="1px"></line><line x1="232.39583333333334" y1="0" x2="232.39583333333334" y2="5" style="visibility: inherit;" fill="rgb(0, 0, 0)" stroke="rgb(204, 204, 204)" stroke-width="1px"></line><line x1="255.63541666666666" y1="0" x2="255.63541666666666" y2="5" style="visibility: inherit;" fill="rgb(0, 0, 0)" stroke="rgb(204, 204, 204)" stroke-width="1px"></line><line x1="278.875" y1="0" x2="278.875" y2="5" style="visibility: inherit;" fill="rgb(0, 0, 0)" stroke="rgb(204, 204, 204)" stroke-width="1px"></line></g><g transform="translate(0, 8)"><text x="0" y="0" dx="0em" dy="0.95em" style="text-anchor: middle; visibility: hidden; font-family: Roboto, sans-serif; font-size: 12px; font-weight: 200;" fill="rgb(50, 49, 63)" stroke="none" stroke-width="1px">-5k</text><text x="23.239583333333332" y="0" dx="0em" dy="0.95em" style="text-anchor: middle; visibility: inherit; font-family: Roboto, sans-serif; font-size: 12px; font-weight: 200;" fill="rgb(50, 49, 63)" stroke="none" stroke-width="1px">0</text><text x="46.479166666666664" y="0" dx="0em" dy="0.95em" style="text-anchor: middle; visibility: hidden; font-family: Roboto, sans-serif; font-size: 12px; font-weight: 200;" fill="rgb(50, 49, 63)" stroke="none" stroke-width="1px">5k</text><text x="69.71875" y="0" dx="0em" dy="0.95em" style="text-anchor: middle; visibility: inherit; font-family: Roboto, sans-serif; font-size: 12px; font-weight: 200;" fill="rgb(50, 49, 63)" stroke="none" stroke-width="1px">10k</text><text x="92.95833333333333" y="0" dx="0em" dy="0.95em" style="text-anchor: middle; visibility: hidden; font-family: Roboto, sans-serif; font-size: 12px; font-weight: 200;" fill="rgb(50, 49, 63)" stroke="none" stroke-width="1px">15k</text><text x="116.19791666666667" y="0" dx="0em" dy="0.95em" style="text-anchor: middle; visibility: inherit; font-family: Roboto, sans-serif; font-size: 12px; font-weight: 200;" fill="rgb(50, 49, 63)" stroke="none" stroke-width="1px">20k</text><text x="139.4375" y="0" dx="0em" dy="0.95em" style="text-anchor: middle; visibility: hidden; font-family: Roboto, sans-serif; font-size: 12px; font-weight: 200;" fill="rgb(50, 49, 63)" stroke="none" stroke-width="1px">25k</text><text x="162.67708333333334" y="0" dx="0em" dy="0.95em" style="text-anchor: middle; visibility: inherit; font-family: Roboto, sans-serif; font-size: 12px; font-weight: 200;" fill="rgb(50, 49, 63)" stroke="none" stroke-width="1px">30k</text><text x="185.91666666666666" y="0" dx="0em" dy="0.95em" style="text-anchor: middle; visibility: hidden; font-family: Roboto, sans-serif; font-size: 12px; font-weight: 200;" fill="rgb(50, 49, 63)" stroke="none" stroke-width="1px">35k</text><text x="209.15625" y="0" dx="0em" dy="0.95em" style="text-anchor: middle; visibility: inherit; font-family: Roboto, sans-serif; font-size: 12px; font-weight: 200;" fill="rgb(50, 49, 63)" stroke="none" stroke-width="1px">40k</text><text x="232.39583333333334" y="0" dx="0em" dy="0.95em" style="text-anchor: middle; visibility: hidden; font-family: Roboto, sans-serif; font-size: 12px; font-weight: 200;" fill="rgb(50, 49, 63)" stroke="none" stroke-width="1px">45k</text><text x="255.63541666666666" y="0" dx="0em" dy="0.95em" style="text-anchor: middle; visibility: inherit; font-family: Roboto, sans-serif; font-size: 12px; font-weight: 200;" fill="rgb(50, 49, 63)" stroke="none" stroke-width="1px">50k</text><text x="278.875" y="0" dx="0em" dy="0.95em" style="text-anchor: middle; visibility: hidden; font-family: Roboto, sans-serif; font-size: 12px; font-weight: 200;" fill="rgb(50, 49, 63)" stroke="none" stroke-width="1px">55k</text></g><line x1="0" y1="0" x2="278.875" y2="0" fill="rgb(0, 0, 0)" stroke="rgb(204, 204, 204)" stroke-width="1px"></line></g></g></g></g></svg>