<svg viewBox="0 0 330 200" xmlns="http://www.w3.org/2000/svg"><g><g><g><g><g><line x1="51.125" y1="175" x2="46.125" y2="175" style="visibility: inherit;" fill="rgb(0, 0, 0)" stroke="rgb(204, 204, 204)" stroke-width="1px"></line><line x1="51.125" y1="160.41666666666666" x2="46.125" y2="160.41666666666666" style="visibility: inherit;" fill="rgb(0, 0, 0)" stroke="rgb(204, 204, 204)" stroke-width="1px"></line><line x1="51.125" y1="145.83333333333334" x2="46.125" y2="145.83333333333334" style="visibility: inherit;" fill="rgb(0, 0, 0)" stroke="rgb(204, 204, 204)" stroke-width="1px"></line><line x1="51.125" y1="131.25" x2="46.125" y2="131.25" style="visibility: inherit;" fill="rgb(0, 0, 0)" stroke="rgb(204, 204, 204)" stroke-width="1px"></line><line x1="51.125" y1="116.66666666666669" x2="46.125" y2="116.66666666666669" style="visibility: inherit;" fill="rgb(0, 0, 0)" stroke="rgb(204, 204, 204)" stroke-width="1px"></line><line x1="51.125" y1="102.08333333333334" x2="46.125" y2="102.08333333333334" style="visibility: inherit;" fill="rgb(0, 0, 0)" stroke="rgb(204, 204, 204)" stroke-width="1px"></line><line x1="51.125" y1="87.50000000000001" x2="46.125" y2="87.50000000000001" style="visibility: inherit;" fill="rgb(0, 0, 0)" stroke="rgb(204, 204, 204)" stroke-width="1px"></line><line x1="51.125" y1="72.91666666666669" x2="46.125" y2="72.91666666666669" style="visibility: inherit;" fill="rgb(0, 0, 0)" stroke="rgb(204, 204, 204)" stroke-width="1px"></line><line x1="51.125" y1="58.33333333333336" x2="46.125" y2="58.33333333333336" style="visibility: inherit;" fill="rgb(0, 0, 0)" stroke="rgb(204, 204, 204)" stroke-width="1px"></line><line x1="51.125" y1="43.75000000000002" x2="46.125" y2="43.75000000000002" style="visibility: inherit;" fill="rgb(0, 0, 0)" stroke="rgb(204, 204, 204)" stroke-width="1px"></line><line x1="51.125" y1="29.16666666666668" x2="46.125" y2="29.16666666666668" style="visibility: inherit;" fill="rgb(0, 0, 0)" stroke="rgb(204, 204, 204)" stroke-width="1px"></line><line x1="51.125" y1="14.58333333333334" x2="46.125" y2="14.58333333333334" style="visibility: inherit;" fill="rgb(0, 0, 0)" stroke="rgb(204, 204, 204)" stroke-width="1px"></line><line x1="51.125" y1="0" x2="46.125" y2="0" style="visibility: inherit;" fill="rgb(0, 0, 0)" stroke="rgb(204, 204, 204)" stroke-width="1px"></line></g><g transform="translate(41.125, 0)"><text x="0" y="175" dx="0em" dy="0.3em" style="text-anchor: end; visibility: hidden; font-family: Roboto, sans-serif; font-size: 12px; font-weight: 200;" fill="rgb(50, 49, 63)" stroke="none" stroke-width="1px">-0.1</text><text x="0" y="160.41666666666666" dx="0em" dy="0.3em" style="text-anchor: end; visibility: inherit; font-family: Roboto, sans-serif; font-size: 12px; font-weight: 200;" fill="rgb(50, 49, 63)" stroke="none" stroke-width="1px">0</text><text x="0" y="145.83333333333334" dx="0em" dy="0.3em" style="text-anchor: end; visibility: hidden; font-family: Roboto, sans-serif; font-size: 12px; font-weight: 200;" fill="rgb(50, 49, 63)" stroke="none" stroke-width="1px">0.1</text><text x="0" y="131.25" dx="0em" dy="0.3em" style="text-anchor: end; visibility: inherit; font-family: Roboto, sans-serif; font-size: 12px; font-weight: 200;" fill="rgb(50, 49, 63)" stroke="none" stroke-width="1px">0.2</text><text x="0" y="116.66666666666669" dx="0em" dy="0.3em" style="text-anchor: end; visibility: hidden; font-family: Roboto, sans-serif; font-size: 12px; font-weight: 200;" fill="rgb(50, 49, 63)" stroke="none" stroke-width="1px">0.3</text><text x="0" y="102.08333333333334" dx="0em" dy="0.3em" style="text-anchor: end; visibility: inherit; font-family: Roboto, sans-serif; font-size: 12px; font-weight: 200;" fill="rgb(50, 49, 63)" stroke="none" stroke-width="1px">0.4</text><text x="0" y="87.50000000000001" dx="0em" dy="0.3em" style="text-anchor: end; visibility: hidden; font-family: Roboto, sans-serif; font-size: 12px; font-weight: 200;" fill="rgb(50, 49, 63)" stroke="none" stroke-width="1px">0.5</text><text x="0" y="72.91666666666669" dx="0em" dy="0.3em" style="text-anchor: end; visibility: inherit; font-family: Roboto, sans-serif; font-size: 12px; font-weight: 200;" fill="rgb(50, 49, 63)" stroke="none" stroke-width="1px">0.6</text><text x="0" y="58.33333333333336" dx="0em" dy="0.3em" style="text-anchor: end; visibility: hidden; font-family: Roboto, sans-serif; font-size: 12px; font-weight: 200;" fill="rgb(50, 49, 63)" stroke="none" stroke-width="1px">0.7</text><text x="0" y="43.75000000000002" dx="0em" dy="0.3em" style="text-anchor: end; visibility: inherit; font-family: Roboto, sans-serif; font-size: 12px; font-weight: 200;" fill="rgb(50, 49, 63)" stroke="none" stroke-width="1px">0.8</text><text x="0" y="29.16666666666668" dx="0em" dy="0.3em" style="text-anchor: end; visibility: hidden; font-family: Roboto, sans-serif; font-size: 12px; font-weight: 200;" fill="rgb(50, 49, 63)" stroke="none" stroke-width="1px">0.9</text><text x="0" y="14.58333333333334" dx="0em" dy="0.3em" style="text-anchor: end; visibility: inherit; font-family: Roboto, sans-serif; font-size: 12px; font-weight: 200;" fill="rgb(50, 49, 63)" stroke="none" stroke-width="1px">1</text><text x="0" y="0" dx="0em" dy="0.3em" style="text-anchor: end; visibility: hidden; font-family: Roboto, sans-serif; font-size: 12px; font-weight: 200;" fill="rgb(50, 49, 63)" stroke="none" stroke-width="1px">1.1</text></g><line x1="51.125" y1="0" x2="51.125" y2="175" fill="rgb(0, 0, 0)" stroke="rgb(204, 204, 204)" stroke-width="1px"></line></g></g><g transform="translate(51, 0)" clip-path="url(#clip_0)"><clipPath id="clip_0"><rect width="278" height="175"></rect></clipPath><g><g><g><line x1="0" y1="0" x2="0" y2="175" fill="rgb(0, 0, 0)" stroke="rgb(60, 60, 60)" stroke-width="1px" opacity="0.25"></line><line x1="23.239583333333332" y1="0" x2="23.239583333333332" y2="175" fill="rgb(0, 0, 0)" stroke="rgb(60, 60, 60)" stroke-width="1px" opacity="0.25"></line><line x1="46.479166666666664" y1="0" x2="46.479166666666664" y2="175" fill="rgb(0, 0, 0)" stroke="rgb(60, 60, 60)" stroke-width="1px" opacity="0.25"></line><line x1="69.71875" y1="0" x2="69.71875" y2="175" fill="rgb(0, 0, 0)" stroke="rgb(60, 60, 60)" stroke-width="1px" opacity="0.25"></line><line x1="92.95833333333333" y1="0" x2="92.95833333333333" y2="175" fill="rgb(0, 0, 0)" stroke="rgb(60, 60, 60)" stroke-width="1px" opacity="0.25"></line><line x1="116.19791666666667" y1="0" x2="116.19791666666667" y2="175" fill="rgb(0, 0, 0)" stroke="rgb(60, 60, 60)" stroke-width="1px" opacity="0.25"></line><line x1="139.4375" y1="0" x2="139.4375" y2="175" fill="rgb(0, 0, 0)" stroke="rgb(60, 60, 60)" stroke-width="1px" opacity="0.25"></line><line x1="162.67708333333334" y1="0" x2="162.67708333333334" y2="175" fill="rgb(0, 0, 0)" stroke="rgb(60, 60, 60)" stroke-width="1px" opacity="0.25"></line><line x1="185.91666666666666" y1="0" x2="185.91666666666666" y2="175" fill="rgb(0, 0, 0)" stroke="rgb(60, 60, 60)" stroke-width="1px" opacity="0.25"></line><line x1="209.15625" y1="0" x2="209.15625" y2="175" fill="rgb(0, 0, 0)" stroke="rgb(60, 60, 60)" stroke-width="1px" opacity="0.25"></line><line x1="232.39583333333334" y1="0" x2="232.39583333333334" y2="175" fill="rgb(0, 0, 0)" stroke="rgb(60, 60, 60)" stroke-width="1px" opacity="0.25"></line><line x1="255.63541666666666" y1="0" x2="255.63541666666666" y2="175" fill="rgb(0, 0, 0)" stroke="rgb(60, 60, 60)" stroke-width="1px" opacity="0.25"></line><line x1="278.875" y1="0" x2="278.875" y2="175" fill="rgb(0, 0, 0)" stroke="rgb(60, 60, 60)" stroke-width="1px" opacity="0.25"></line></g><g><line x1="0" y1="175" x2="278.875" y2="175" fill="rgb(0, 0, 0)" stroke="rgb(60, 60, 60)" stroke-width="1px" opacity="0.25"></line><line x1="0" y1="160.41666666666666" x2="278.875" y2="160.41666666666666" fill="rgb(0, 0, 0)" stroke="rgb(60, 60, 60)" stroke-width="1px" opacity="0.25"></line><line x1="0" y1="145.83333333333334" x2="278.875" y2="145.83333333333334" fill="rgb(0, 0, 0)" stroke="rgb(60, 60, 60)" stroke-width="1px" opacity="0.25"></line><line x1="0" y1="131.25" x2="278.875" y2="131.25" fill="rgb(0, 0, 0)" stroke="rgb(60, 60, 60)" stroke-width="1px" opacity="0.25"></line><line x1="0" y1="116.66666666666669" x2="278.875" y2="116.66666666666669" fill="rgb(0, 0, 0)" stroke="rgb(60, 60, 60)" stroke-width="1px" opacity="0.25"></line><line x1="0" y1="102.08333333333334" x2="278.875" y2="102.08333333333334" fill="rgb(0, 0, 0)" stroke="rgb(60, 60, 60)" stroke-width="1px" opacity="0.25"></line><line x1="0" y1="87.50000000000001" x2="278.875" y2="87.50000000000001" fill="rgb(0, 0, 0)" stroke="rgb(60, 60, 60)" stroke-width="1px" opacity="0.25"></line><line x1="0" y1="72.91666666666669" x2="278.875" y2="72.91666666666669" fill="rgb(0, 0, 0)" stroke="rgb(60, 60, 60)" stroke-width="1px" opacity="0.25"></line><line x1="0" y1="58.33333333333336" x2="278.875" y2="58.33333333333336" fill="rgb(0, 0, 0)" stroke="rgb(60, 60, 60)" stroke-width="1px" opacity="0.25"></line><line x1="0" y1="43.75000000000002" x2="278.875" y2="43.75000000000002" fill="rgb(0, 0, 0)" stroke="rgb(60, 60, 60)" stroke-width="1px" opacity="0.25"></line><line x1="0" y1="29.16666666666668" x2="278.875" y2="29.16666666666668" fill="rgb(0, 0, 0)" stroke="rgb(60, 60, 60)" stroke-width="1px" opacity="0.25"></line><line x1="0" y1="14.58333333333334" x2="278.875" y2="14.58333333333334" fill="rgb(0, 0, 0)" stroke="rgb(60, 60, 60)" stroke-width="1px" opacity="0.25"></line><line x1="0" y1="0" x2="278.875" y2="0" fill="rgb(0, 0, 0)" stroke="rgb(60, 60, 60)" stroke-width="1px" opacity="0.25"></line></g></g></g><g><g><line x1="0" y1="160.41666666666666" x2="278.875" y2="160.41666666666666" fill="rgb(0, 0, 0)" stroke="rgb(153, 153, 153)" stroke-width="1.5px"></line></g></g><g><g><line x1="23.239583333333332" y1="0" x2="23.239583333333332" y2="175" fill="rgb(0, 0, 0)" stroke="rgb(153, 153, 153)" stroke-width="1.5px"></line></g></g><g><g><g><g><g><path style="fill: none;" fill="none" stroke="none" stroke-width="1px"></path></g><g><path stroke="rgb(0, 119, 187)" stroke-width="2px" d="M26.957916666666666,-0.9835446284992555L27.422708333333333,2.2337749338460804L27.775949999999998,4.030079295354152L28.24074166666667,8.95143824258134L28.705533333333335,11.648859234349858L29.170325,17.637719950018695L29.635116666666665,13.95526014039894L30.099908333333335,18.593408808492683L30.564700000000002,20.61489415841329L31.029491666666665,16.412875223696275L31.494283333333332,22.88988888480023L31.959075,29.249546550469905L32.31231666666667,30.60957561576219L32.77710833333333,28.579565711119336L33.2419,25.33469051186677L33.706691666666664,27.331228378906435L34.171483333333335,20.642054727118207L34.636275000000005,19.86076767115959L35.10106666666666,18.710098588173267L35.56585833333333,19.010684827998723L36.03065,28.23256570540014L36.495441666666665,31.412705300611318L36.848683333333334,23.28248245064012L37.313475000000004,31.929071076689926L37.77826666666667,40.62203090851165L38.24305833333333,44.335866804817826L38.70785,39.823498749190975L39.172641666666664,42.76157467025342L39.637433333333334,31.774806303086486L40.102225000000004,37.8211562990961L40.56701666666667,31.61042193140616L41.03180833333334,29.9226280601075L41.38505,39.88883425903467L41.84984166666666,47.94572570381146L42.31463333333333,49.404317409961855L42.779425,38.13217198921827L43.24421666666667,43.173046208390595L43.70900833333334,45.32981055807751L44.17380000000001,44.42068678831642L44.63859166666666,51.45456796520203L45.10338333333333,45.743219091218755L45.568175,45.855299453173224L45.921416666666666,51.18168700949998L46.386208333333336,47.221453443456014L46.851000000000006,50.327612929720125L47.31579166666666,43.0717949905986L47.78058333333333,43.988270749986405L48.245374999999996,49.33426828603564L48.710166666666666,42.877666561327636L49.174958333333336,45.61139250309639L49.63975,43.79197431312811L50.10454166666667,48.065168595553544L50.45778333333333,51.70394218141314L50.922575,53.775513189084236L51.387366666666665,45.88464847229725L51.852158333333335,48.81499688440248L52.31695,51.632381959440465L52.78174166666667,54.96746707976789L53.24653333333334,59.78197262100934L53.711324999999995,50.706172021702294L54.176116666666665,48.466737587735274L54.64090833333333,50.16737223832919L54.99415,50.377028531844104L55.45894166666667,51.70255701562646L55.92373333333334,57.15153257541389L56.388524999999994,58.00508255060036L56.853316666666665,59.63273929136309L57.318108333333335,55.89166792180526L57.7829,55.067837408858864L58.24769166666667,50.97310414215625L58.71248333333333,50.717516861164775L59.177275,55.35131302782152L59.530516666666664,57.57357701048207L59.995308333333334,58.63639140755903L60.4601,68.02683586655641L60.92489166666667,60.43971696364035L61.38968333333333,62.536181323928545L61.854475,59.774146366041656L62.31926666666667,55.774745476993985L62.784058333333334,56.09866319065475L63.24885,59.593023983429994L63.71364166666667,68.70676813192634L64.06688333333334,66.30413187146667L64.53167499999999,64.9266787525047L64.99646666666666,68.96461644705309L65.46125833333333,62.73944943509207L65.92605,55.534240321487424L66.39084166666667,48.59924279620463L66.85563333333333,52.30505205971131L67.320425,52.663869884305L67.78521666666666,56.862020428991016L68.25000833333333,64.24861298164669L68.60325,61.75923394855425L69.06804166666667,74.05469952640871L69.53283333333333,71.37762102654341L69.997625,68.97347932957071L70.46241666666666,68.00706704002098L70.92720833333334,71.492329952368L71.392,73.91245467498833L71.85679166666667,75.86400898119768L72.32158333333334,71.13023574245548L72.786375,66.09362160221286L73.13961666666665,69.44191393289297L73.60440833333334,68.91072563548882L74.0692,65.06563646924496L74.53399166666667,72.18249205747448L74.99878333333334,63.5275140245708L75.463575,70.68445661703461L75.92836666666666,70.54933048709064L76.39315833333333,74.85217245871125L76.85795,74.09759606393756L77.32274166666666,73.24275282307018L77.67598333333333,73.99712109933427L78.140775,73.4327099981117L78.60556666666666,71.66663093937684L79.07035833333335,70.29279699071199L79.53515,68.19820789581904L79.99994166666666,62.57485193860355L80.46473333333333,69.4545846751441L80.929525,64.34017131156382L81.39431666666667,63.21604237612083L81.85910833333332,62.36485661460556L82.21235,70.42174709673881L82.67714166666666,72.45396339597002L83.14193333333333,72.51298346341667L83.606725,67.28369654151412L84.07151666666667,73.78703610658215L84.53630833333332,76.85431404844664L85.00110000000001,70.51699308913396L85.46589166666666,71.40384196258452L85.93068333333333,60.38323499173047L86.395475,64.28924684172942L86.74871666666667,65.55332393117392L87.21350833333332,71.14812434117583L87.67830000000001,78.11792349060728L88.14309166666666,71.83580451353603L88.60788333333333,78.58771678692628L89.072675,69.840289832472L89.53746666666666,68.8000859904205L90.00225833333333,74.05987742073825L90.46705,67.6792808127055L90.93184166666667,66.73667675763268L91.28508333333333,66.9326818774734L91.749875,76.66034058475061L92.21466666666666,75.5743060851707L92.67945833333333,79.19137384561384L93.14425,84.08471031626674L93.60904166666667,81.14065090998379L94.07383333333333,69.09179812779645L94.53862500000001,75.83908027079079L95.00341666666667,80.59964459538286L95.46820833333334,81.00160597602422L95.82145,81.47582454784651L96.28624166666667,84.25154150508209L96.75103333333333,75.5703893958471L97.21582500000001,74.48849276655567L97.68061666666667,78.3368431287228L98.14540833333334,73.4569232319128L98.6102,72.94236236737162L99.07499166666666,83.2481791909098L99.53978333333333,76.84609216464914L100.00457499999999,74.80297300426179L100.35781666666666,73.42769749884614L100.82260833333333,72.98435557638493L101.2874,78.48736180119644L101.75219166666666,69.32350625546535L102.21698333333333,73.1925009486184L102.681775,75.42568785729641L103.14656666666667,75.38532183239442L103.61135833333333,74.90999390087276L104.07615,78.83628650149754L104.54094166666667,87.57553523962329L104.89418333333333,84.52341383408287L105.358975,87.35533670014608L105.82376666666667,82.54108060653887L106.28855833333333,87.12948136084803L106.75335,86.4617315285615L107.21814166666667,89.27197614430659L107.68293333333334,81.78783034753367L108.147725,83.23308731399914L108.61251666666666,87.16924044658506L109.07730833333333,74.957393526056L109.43055000000001,83.33125074844675L109.89534166666667,84.43184967919856L110.36013333333334,83.61014004201496L110.824925,80.28452272604389L111.28971666666666,84.12875597908386L111.75450833333333,87.65120535235181L112.21929999999999,77.732242122137L112.68409166666667,84.38737942269056L113.14888333333333,84.94080913160609L113.613675,84.08594128744424L113.96691666666668,83.03053486698839L114.43170833333333,82.19485675307496L114.89649999999999,85.34975227720966L115.36129166666667,73.37217714592276L115.82608333333333,79.73972059014116L116.290875,77.3609938028813L116.75566666666667,84.68183011631335L117.22045833333334,77.49203730118374L117.68525,80.10578943386933L118.15004166666667,82.94428423898576L118.50328333333333,90.93837645167403L118.968075,87.53245605934241L119.43286666666667,88.09298927928157L119.89765833333334,80.64205202666014L120.36245,89.51708711111799L120.82724166666667,92.12000327462508L121.29203333333334,94.67867617103192L121.75682499999999,89.77424375788016L122.22161666666668,92.24386015082783L122.68640833333333,74.55041814970205L123.03965,80.97966060515581L123.50444166666668,83.18226026779219L123.96923333333334,85.97885521621986L124.43402499999999,88.8277543725857L124.89881666666668,89.29245103253658L125.36360833333333,86.84666770013413L125.8284,77.00189203408705L126.29319166666666,79.97465590866813L126.75798333333334,80.72286482790555L127.222775,78.57698988600242L127.57601666666667,80.78520581136347L128.04080833333333,85.3510671457263L128.5056,86.11497582598203L128.97039166666667,83.84198487760828L129.43518333333333,78.29164102253638L129.89997499999998,73.59880547470247L130.36476666666667,80.14220311689216L130.82955833333332,76.03454787203374L131.29435,77.27669009766204L131.75914166666666,82.24917707364494L132.11238333333333,78.68950729084453L132.577175,89.20286877659426L133.04196666666667,90.07778818631648L133.50675833333332,90.81378820672322L133.97155,87.68957660477174L134.43634166666666,79.77701021759201L134.90113333333335,81.20781467474592L135.365925,77.80551892191427L135.83071666666666,80.11150259775077L136.29550833333334,83.2465497096508L136.64875,86.322862204321L137.11354166666666,81.94296516760656L137.57833333333335,84.32297144999784L138.043125,89.55329682233341L138.50791666666666,89.87334892632013L138.97270833333334,80.16545748004187L139.4375,82.64414683156532L139.90229166666668,83.10976315641396L140.3670833333333,81.85026470286049L140.831875,80.82556887544631L141.18511666666666,75.37589925971093L141.64990833333334,81.21998717454949L142.11470000000003,83.67056177100267L142.57949166666666,80.44495806718308L143.04428333333334,89.8016948041783L143.509075,80.03561805908679L143.97386666666665,88.1739037904628L144.43865833333334,85.76376911045044L144.90345,88.49830593292474L145.36824166666668,88.64112679535882L145.7214833333333,88.89088382944307L146.186275,88.6100063261877L146.65106666666668,92.49869224652592L147.11585833333334,95.38515237306521L147.58065,79.52465073665957L148.04544166666668,84.40381197969705L148.51023333333333,85.87693527643238L148.97502500000002,88.5006896970929L149.43981666666667,82.52032184510996L149.90460833333333,91.10747437025847L150.25785,89.2631069442376L150.72264166666668,86.71288633072841L151.18743333333333,88.95094420745652L151.652225,94.20155083875666L152.11701666666667,86.63094458425527L152.58180833333333,84.55056558516316L153.04659999999998,84.82069250226036L153.51139166666667,86.89840307601304L153.97618333333335,75.89075925410594L154.44097499999998,75.65963603532796L154.79421666666667,83.54643819218767L155.25900833333333,96.09819911411937L155.7238,94.02894762650055L156.18859166666667,99.10254287219996L156.65338333333332,101.09156593181861L157.118175,99.6307012408863L157.5829666666667,94.83521999735974L158.04775833333332,95.13908925743507L158.51255,91.56258743857309L158.9773416666667,83.40778018149713L159.33058333333335,89.43761710393218L159.79537499999998,98.54476232767773L160.26016666666666,101.54042723441526L160.72495833333335,97.8736118435725L161.18974999999998,95.808118340961L161.65454166666666,98.83220489278945L162.11933333333334,95.36595004075077L162.584125,85.34390503529694L163.04891666666666,87.1284094911654L163.51370833333334,91.73715869358217L163.86695,91.30949642124396L164.3317416666667,92.29295754946841L164.79653333333331,94.74638072362089L165.261325,95.44419885303901L165.72611666666668,88.58417465662754L166.19090833333334,91.04785776759662L166.6557,84.27556240534076L167.12049166666665,88.87034918253794L167.58528333333334,80.99629848431651L168.05007500000002,76.43922002651954L168.40331666666665,90.31634662472406L168.86810833333334,93.48234127316793L169.3329,94.6064227741197L169.79769166666668,98.38938950029426L170.26248333333334,93.38185392932543L170.727275,91.54587221016357L171.19206666666668,94.53171366574288L171.65685833333333,93.33985482129606L172.12165,87.12237100485855L172.58644166666667,90.8230907957786L172.93968333333333,97.12629927641355L173.40447500000002,105.30665996737997L173.86926666666665,105.68707957705492L174.33405833333333,101.51379257345579L174.79885000000002,94.85603948377201L175.26364166666664,95.45252380734263L175.72843333333333,83.75845158874341L176.193225,79.77978083359808L176.65801666666667,82.41084243576296L177.12280833333332,88.24884271057786L177.47605,97.36780459939844L177.94084166666667,94.62886990264697L178.40563333333336,97.33013038529344L178.87042499999998,91.970607586861L179.33521666666667,92.09037405142804L179.80000833333335,89.597156237898L180.26479999999998,93.03495134393637L180.72959166666666,90.2247142522351L181.19438333333335,91.37809132906692L181.659175,92.14950127625204L182.01241666666667,87.56028387878581L182.47720833333332,90.17138132811137L182.942,96.504764801426L183.40679166666666,94.22298950721618L183.87158333333332,96.17530549230058L184.336375,91.24710864620535L184.80116666666666,95.55310119269568L185.26595833333334,94.28849866436886L185.73075,97.58996233610492L186.19554166666666,91.26154551069844L186.54878333333335,98.2620538919821L187.013575,101.0390692939155L187.47836666666666,97.9371749255931L187.94315833333334,93.90064013365165L188.40795,97.14457859017405L188.87274166666668,98.97523613423876L189.33753333333334,99.10751139114763L189.802325,96.4926497438975L190.26711666666668,96.82399042245316L190.7319083333333,100.19060139534812L191.08515,107.56705809440977L191.54994166666665,101.33029620134892L192.01473333333334,103.15855215162472L192.47952500000002,99.51212313872837L192.94431666666665,98.7075166827575L193.40910833333334,102.5863398269496L193.87390000000002,92.92606726223319L194.33869166666665,89.27469788949145L194.80348333333333,87.97452512757256L195.26827500000002,88.82404474442964L195.62151666666668,92.07618584052184L196.08630833333333,92.14308852840738L196.5511,94.20173845622506L197.01589166666668,97.26975956718267L197.48068333333333,97.67295762395945L197.945475,95.91701941388499L198.41026666666667,95.64929306525579L198.87505833333333,94.68041529269173L199.33984999999998,92.94135358936283L199.80464166666667,81.99814510548131L200.15788333333333,85.50927183352323L200.62267500000002,92.67193843715835L201.08746666666667,99.70454794045355L201.55225833333333,104.67747388408225L202.01705,97.50886890168374L202.48184166666667,93.12886635189486L202.94663333333332,100.2770502749596L203.411425,98.13319490652367L203.87621666666666,97.88549858113777L204.34100833333335,100.00108342039974L204.69424999999998,97.5312938928707L205.15904166666667,99.99947685838363L205.62383333333332,97.97879753812525L206.088625,105.30048289877794L206.55341666666666,112.0629262664872L207.01820833333332,101.29977882339304L207.483,96.04099052409578L207.9477916666667,101.64760901884385L208.41258333333332,105.01857571416785L208.877375,99.44041364956114L209.23061666666666,99.77899900218775L209.69540833333335,103.95043821816203L210.1602,102.46606443336344L210.62499166666666,103.0164586942041L211.08978333333334,104.34444422169393L211.55457500000003,96.88105051503896L212.01936666666666,96.98956438771677L212.48415833333334,100.63315602464552L212.94895,98.87161516541089L213.41374166666665,93.71613222396678L213.76698333333331,96.62610381664618L214.231775,98.35041328165006L214.69656666666668,104.80489798720522L215.1613583333333,104.639466514205L215.62615,107.31231088043157L216.09094166666668,107.42549780766709L216.55573333333334,107.44038666542696L217.020525,108.36182487163738L217.48531666666668,105.12718490056473L217.95010833333333,104.02763728077576L218.30335000000002,101.6706172750912L218.76814166666665,96.43019363044833L219.23293333333334,99.32337562099575L219.697725,95.53740199320804L220.16251666666668,96.19772633461132L220.62730833333333,96.77092314093099L221.0921,94.94600229657959L221.55689166666667,92.53456647116307L222.02168333333333,85.77882282883941L222.48647499999998,89.25815154880891L222.83971666666667,98.97541898352274L223.30450833333333,100.91352337318084L223.7693,103.40568357935005L224.23409166666667,105.75131695010535L224.69888333333333,103.79417570752862L225.163675,100.33613576882857L225.62846666666667,104.51693624890116L226.09325833333332,100.14876409750939L226.55805,94.32291011640486L227.0228416666667,98.56737203774289L227.37608333333333,103.81962297783754L227.84087499999998,103.60416097497817L228.30566666666667,104.07618710233297L228.77045833333335,99.71904533406213L229.23524999999998,96.27807315568201L229.70004166666666,95.98991464404308L230.16483333333335,97.87251899139908L230.62962499999998,104.81859316128588L231.09441666666666,97.67145863988857L231.55920833333334,102.98243940960683L231.91245,107.32978958541939L232.3772416666667,107.01709749492878L232.84203333333332,108.49506748036272L233.306825,106.73210661003425L233.7716166666667,101.01836814715129L234.23640833333332,99.68834565619824L234.7012,103.46288063053409L235.16599166666668,99.62843241050315L235.63078333333334,100.41286760620956L236.095575,104.7397950135828L236.44881666666666,108.57992498138512L236.91360833333334,109.01804876163979L237.3784,103.94496423106618L237.84319166666666,109.37192272405564L238.30798333333334,111.07627276337588L238.772775,103.64666302257643L239.23756666666668,96.20525530529342L239.70235833333334,97.4133455746511L240.16715,96.75487055340247L240.63194166666668,99.26380032673777L240.98518333333334,102.62682337189895L241.449975,104.83142697985082L241.91476666666668,99.76840728029674L242.37955833333334,100.03602443241121L242.84435,97.4347275779826L243.30914166666665,97.73887101528143L243.77393333333333,96.57077369322634L244.23872500000002,98.65787860093668L244.70351666666664,94.45441963079467L245.16830833333333,100.3277734526171L245.52155,103.64647953360321L245.98634166666668,101.71707877704925L246.45113333333333,106.02174208078442L246.915925,104.65528133817708L247.38071666666667,110.53046035751619L247.84550833333336,102.30500677020304L248.31029999999998,100.54489490662587L248.77509166666667,95.4343864854648L249.23988333333335,94.12761700370756L249.70467499999998,99.49888923099942L250.05791666666664,106.67221688229627L250.52270833333333,108.24079365332199L250.9875,113.12965641895495L251.45229166666664,116.81324853785573L251.91708333333332,107.9361607985958L252.381875,114.42377201858746L252.84666666666666,108.69738563186081L253.31145833333332,108.101300871091L253.77625,103.11894574307415L254.24104166666666,105.5670771511973" style="fill: none;" fill="none"></path></g></g></g></g><g opacity="0.2"><g><g><g><path style="fill: none;" fill="none" stroke="none" stroke-width="1px"></path></g><g><path stroke="rgb(0, 119, 187)" stroke-width="2px" d="M24.633958333333332,-15.006205439567566L25.09875,1.9791737198829846L25.563541666666666,-9.412021438280716L26.028333333333336,-15.232275923093146L26.493125,10.499322414398213L26.957916666666666,2.180644869804402L27.422708333333333,7.011119524637871L27.775949999999998,6.708243489265461L28.24074166666667,16.306694845358543L28.705533333333335,15.686183174451198L29.170325,26.609278221925106L29.635116666666665,8.435899019241353L30.099908333333335,25.547360628843307L30.564700000000002,23.646266758441925L31.029491666666665,10.110913713773098L31.494283333333332,32.60442266861601L31.959075,38.788451751073225L32.31231666666667,32.6495446264744L32.77710833333333,25.534617652495708L33.2419,20.467441777388267L33.706691666666664,30.326011528571474L34.171483333333335,10.608341793219262L34.636275000000005,18.68884041905405L35.10106666666666,16.98409790794056L35.56585833333333,19.46156372626623L36.03065,42.0653785268466L36.495441666666665,36.18291293581329L36.848683333333334,11.087150871753712L37.313475000000004,44.89895229538284L37.77826666666667,53.66146961847942L38.24305833333333,49.906620383262656L38.70785,33.054946859677656L39.172641666666664,47.168688476085684L39.637433333333334,15.294653922319432L40.102225000000004,46.89068123698237L40.56701666666667,22.29432041446369L41.03180833333334,27.390937258799877L41.38505,54.8381435374419L41.84984166666666,60.031062861283644L42.31463333333333,51.592204968134574L42.779425,21.22395386298498L43.24421666666667,50.7343575358391L43.70900833333334,48.5649570822716L44.17380000000001,43.05700113375984L44.63859166666666,62.00538973013561L45.10338333333333,37.17619578043623L45.568175,46.023419996102675L45.921416666666666,59.1712683439255L46.386208333333336,41.28110309441887L46.851000000000006,54.98685215910278L47.31579166666666,32.18806808193527L47.78058333333333,45.36298438906672L48.245374999999996,57.353264590104445L48.710166666666666,33.192763974269255L49.174958333333336,49.71198141574862L49.63975,41.06284702817602L50.10454166666667,54.47496001919113L50.45778333333333,57.16210256020229L50.922575,56.88286970059078L51.387366666666665,34.048351397117L51.852158333333335,53.21051950256031L52.31695,55.85845957199734L52.78174166666667,59.970094760259016L53.24653333333334,67.00373093287152L53.711324999999995,37.09247112274172L54.176116666666665,45.107585936784766L54.64090833333333,52.71832421422007L54.99415,50.69151297211649L55.45894166666667,53.69084974129997L55.92373333333334,65.32499591509503L56.388524999999994,59.28540751338007L56.853316666666665,62.07422440250717L57.318108333333335,50.28006086746853L57.7829,53.83209163943928L58.24769166666667,44.83100424210232L58.71248333333333,50.33413593967758L59.177275,62.302007277806624L59.530516666666664,60.90697298447292L59.995308333333334,60.230613003174476L60.4601,82.11250255505246L60.92489166666667,49.0590386092663L61.38968333333333,65.68087786436082L61.854475,55.63109392921131L62.31926666666667,49.77564414342247L62.784058333333334,56.58453976114593L63.24885,64.83456517259282L63.71364166666667,82.37738435467087L64.06688333333334,62.70017748077713L64.53167499999999,62.860499074061735L64.99646666666666,75.02152298887573L65.46125833333333,53.40169891715052L65.92605,44.72642665108047L66.39084166666667,38.19674650828047L66.85563333333333,57.863765954971335L67.320425,53.20209662119549L67.78521666666666,63.15924624602001L68.25000833333333,75.32850181063019L68.60325,58.02516539891563L69.06804166666667,92.4978978931904L69.53283333333333,67.3620032767455L69.997625,65.36726678411168L70.46241666666666,66.55744860569638L70.92720833333334,76.72022432088853L71.392,77.54264175891878L71.85679166666667,78.79134044051172L72.32158333333334,64.02957588434221L72.786375,58.538700391848906L73.13961666666665,74.46435242891313L73.60440833333334,68.11394318938257L74.0692,59.29800271987917L74.53399166666667,82.85777543981872L74.99878333333334,50.5450469752153L75.463575,81.41987050573033L75.92836666666666,70.34664129217468L76.39315833333333,81.30643541614216L76.85795,72.96573147177698L77.32274166666666,71.96048796176912L77.67598333333333,75.12867351373039L78.140775,72.58609334627789L78.60556666666666,69.0175123512745L79.07035833333335,68.2320460677147L79.53515,65.05632425347966L79.99994166666666,54.1398180027803L80.46473333333333,79.77418377995492L80.929525,56.66855126619341L81.39431666666667,61.52984897295635L81.85910833333332,61.08807797233265L82.21235,82.50708281993867L82.67714166666666,75.50228784481686L83.14193333333333,72.60151356458665L83.606725,59.43976615866028L84.07151666666667,83.54204545418423L84.53630833333332,81.45523096124333L85.00110000000001,61.011011650164946L85.46589166666666,72.7341152727604L85.93068333333333,43.85232453544937L86.395475,70.14826461672784L86.74871666666667,67.4494395653407L87.21350833333332,79.54032495617868L87.67830000000001,88.57262221475445L88.14309166666666,62.41262604792915L88.60788333333333,88.71558519701165L89.072675,56.719149400790556L89.53746666666666,67.23978022734326L90.00225833333333,81.9495645662149L90.46705,58.108385900656394L90.93184166666667,65.32277067502342L91.28508333333333,67.22668955723447L91.749875,91.25182864566646L92.21466666666666,73.94525433580083L92.67945833333333,84.61697548627855L93.14425,91.42471502224606L93.60904166666667,76.72456180055939L94.07383333333333,51.01851895451548L94.53862500000001,85.96000348528229L95.00341666666667,87.74049108227096L95.46820833333334,81.60454804698628L95.82145,82.18715240557991L96.28624166666667,88.41511694093548L96.75103333333333,62.54866123199465L97.21582500000001,72.8656478226185L97.68061666666667,84.10936867197357L98.14540833333334,66.13704338669778L98.6102,72.17052107055984L99.07499166666666,98.70690442621708L99.53978333333333,67.24296162525815L100.00457499999999,71.7382942636808L100.35781666666666,71.36478424072267L100.82260833333333,72.3193426926931L101.2874,86.74187113841377L101.75219166666666,55.57772293686869L102.21698333333333,78.99599298834802L102.681775,78.77546822031341L103.14656666666667,75.32477279504143L103.61135833333333,74.19700200359028L104.07615,84.72572540243469L104.54094166666667,100.68440834681195L104.89418333333333,79.94523172577225L105.358975,91.60322099924089L105.82376666666667,75.31969646612805L106.28855833333333,94.01208249231182L106.75335,85.46010678013168L107.21814166666667,93.4873430679242L107.68293333333334,70.56161165237428L108.147725,85.40097276369733L108.61251666666666,93.07347014546396L109.07730833333333,56.63962314526241L109.43055000000001,95.89203658203286L109.89534166666667,86.08274807532631L110.36013333333334,82.37757558623952L110.824925,75.2960967520873L111.28971666666666,89.89510585864387L111.75450833333333,92.93487941225372L112.21929999999999,62.8537972768148L112.68409166666667,94.37008537352087L113.14888333333333,85.77095369497937L113.613675,82.80363952120148L113.96691666666668,81.44742523630462L114.43170833333333,80.94133958220483L114.89649999999999,90.08209556341173L115.36129166666667,55.40581444899242L115.82608333333333,89.29103575646879L116.290875,73.7929036219915L116.75566666666667,95.66308458646141L117.22045833333334,66.70734807848932L117.68525,84.02641763289772L118.15004166666667,87.20202644666038L118.50328333333333,102.92951477070652L118.968075,82.42357547084492L119.43286666666667,88.93378910919033L119.89765833333334,69.46564614772798L120.36245,102.82963973780475L120.82724166666667,96.02437751988572L121.29203333333334,98.51668551564217L121.75682499999999,82.41759513815246L122.22161666666668,95.94828474024933L122.68640833333333,48.01025514801346L123.03965,90.62352428833645L123.50444166666668,86.48615976174675L123.96923333333334,90.17374763886136L124.43402499999999,93.10110310713452L124.89881666666668,89.98949602246286L125.36360833333333,83.17799270153047L125.8284,62.2347285350164L126.29319166666666,84.43380172053975L126.75798333333334,81.8451782067617L127.222775,75.35817747314773L127.57601666666667,84.09752969940506L128.04080833333333,92.19985914727054L128.5056,87.26083884636563L128.97039166666667,80.43249845504762L129.43518333333333,69.96612523992859L129.89997499999998,66.55955215295158L130.36476666666667,89.9572995801767L130.82955833333332,69.87306500474614L131.29435,79.13990343610448L131.75914166666666,89.70790753761929L132.11238333333333,73.35000261664392L132.577175,104.97291100521885L133.04196666666667,91.39016730089985L133.50675833333332,91.91778823733331L133.97155,83.00325920184456L134.43634166666666,67.9081606368224L134.90113333333335,83.35402136047684L135.365925,72.70207529266678L135.83071666666666,83.57047811150552L136.29550833333334,87.94912037750088L136.64875,90.93733094632627L137.11354166666666,75.37311961253486L137.57833333333335,87.89298087358476L138.043125,97.39878488083683L138.50791666666666,90.3534270823002L138.97270833333334,65.60362031062446L139.4375,86.3621808588505L139.90229166666668,83.80818764368695L140.3670833333333,79.96101702253026L140.831875,79.28852513432504L141.18511666666666,67.20139483610791L141.64990833333334,89.9861190468073L142.11470000000003,87.3464236656825L142.57949166666666,75.60655251145364L143.04428333333334,103.83679990967117L143.509075,65.3865029414495L143.97386666666665,100.38133238752685L144.43865833333334,82.14856709043187L144.90345,92.60011116663617L145.36824166666668,88.85535808900994L145.7214833333333,89.26551938056947L146.186275,88.18869007130466L146.65106666666668,98.33172112703325L147.11585833333334,99.71484256287418L147.58065,55.73389828205111L148.04544166666668,91.72255384425324L148.51023333333333,88.08662022153538L148.97502500000002,92.4363213280837L149.43981666666667,73.54977006713551L149.90460833333333,103.98820315798126L150.25785,86.49655580520631L150.72264166666668,82.88755541046463L151.18743333333333,92.30803102254869L151.652225,102.07746078570686L152.11701666666667,75.27503520250322L152.58180833333333,81.42999708652498L153.04659999999998,85.22588287790619L153.51139166666667,90.01496893664203L153.97618333333335,59.379293521245344L154.44097499999998,75.31295120716096L154.79421666666667,95.37664142747722L155.25900833333333,114.9258404970169L155.7238,90.92507039507232L156.18859166666667,106.71293574074906L156.65338333333332,104.07510052124661L157.118175,97.43940420448781L157.5829666666667,87.64199813206993L158.04775833333332,95.59489314754806L158.51255,86.19783471028012L158.9773416666667,71.1755692958832L159.33058333333335,98.48237248758477L159.79537499999998,112.20548016329609L160.26016666666666,106.03392459452152L160.72495833333335,92.37338875730835L161.18974999999998,92.70987808704378L161.65454166666666,103.36833472053212L162.11933333333334,90.1665677626928L162.584125,70.31083752711616L163.04891666666666,89.80516617496811L163.51370833333334,98.65028249720734L163.86695,90.66800301273666L164.3317416666667,93.76814924180509L164.79653333333331,98.42651548484963L165.261325,96.49092604716621L165.72611666666668,78.29413836201034L166.19090833333334,94.74338243405026L166.6557,74.11711936195694L167.12049166666665,95.7625293483337L167.58528333333334,69.1852224369844L168.05007500000002,69.60360233982406L168.40331666666665,111.13203652203083L168.86810833333334,98.23133324583374L169.3329,96.29254502554737L169.79769166666668,104.06383958955608L170.26248333333334,85.87055057287218L170.727275,88.79189963142079L171.19206666666668,99.0104758491119L171.65685833333333,91.55206655462585L172.12165,77.79614528020225L172.58644166666667,96.37417048215868L172.93968333333333,106.58111199736595L173.40447500000002,117.57720100382966L173.86926666666665,106.25770899156731L174.33405833333333,95.25386206805707L174.79885000000002,84.86940984924637L175.26364166666664,96.34725029269856L175.72843333333333,66.21734326084457L176.193225,73.81177470088006L176.65801666666667,86.35743483901025L177.12280833333332,97.00584312280021L177.47605,111.04624743262929L177.94084166666667,90.5204678575198L178.40563333333336,101.38202110926312L178.87042499999998,83.93132338921231L179.33521666666667,92.27002374827863L179.80000833333335,85.85732951760293L180.26479999999998,98.19164400299393L180.72959166666666,86.00935861468317L181.19438333333335,93.10815694431466L181.659175,93.30661619702977L182.01241666666667,80.67645778258644L182.47720833333332,94.08802750209969L182.942,106.00484001139802L183.40679166666666,90.80032656590146L183.87158333333332,99.10377946992718L184.336375,83.8548133770625L184.80116666666666,102.01209001243114L185.26595833333334,92.39159487187864L185.73075,102.54215784370899L186.19554166666666,81.76892027258874L186.54878333333335,108.76281646390758L187.013575,105.20459239681564L187.47836666666666,93.28433337310952L187.94315833333334,87.84583794573945L188.40795,102.01048627495766L188.87274166666668,101.72122245033584L189.33753333333334,99.3059242765109L189.802325,92.57035727302235L190.26711666666668,97.32100144028665L190.7319083333333,105.24051785469055L191.08515,118.63174314300221L191.54994166666665,91.97515336175762L192.01473333333334,105.90093607703847L192.47952500000002,94.04247961938383L192.94431666666665,97.50060699880125L193.40910833333334,108.40457454323769L193.87390000000002,78.43565841515861L194.33869166666665,83.79764383037887L194.80348333333333,86.02426598469418L195.26827500000002,90.09832416971527L195.62151666666668,96.95439748466016L196.08630833333333,92.24344256023568L196.5511,97.28971334795159L197.01589166666668,101.87179123361908L197.48068333333333,98.27775470912458L197.945475,93.28311209877334L198.41026666666667,95.24770354231201L198.87505833333333,93.22709863384567L199.33984999999998,90.33276103436948L199.80464166666667,65.58333237965904L200.15788333333333,90.77596192558609L200.62267500000002,103.41593834261101L201.08746666666667,110.25346219539642L201.55225833333333,112.13686279952526L202.01705,86.75596142808598L202.48184166666667,86.55886252721153L202.94663333333332,110.99932615955673L203.411425,94.91741185386978L203.87621666666666,97.51395409305893L204.34100833333335,103.17446067929268L204.69424999999998,93.82660960157715L205.15904166666667,103.70175130665302L205.62383333333332,94.94777855773769L206.088625,116.28301093975705L206.55341666666666,122.20659131805104L207.01820833333332,85.15505765875183L207.483,88.15280807514988L207.9477916666667,110.057536760966L208.41258333333332,110.07502575715385L208.877375,91.0731705526511L209.23061666666666,100.28687703112763L209.69540833333335,110.2075970421235L210.1602,100.2395037561655L210.62499166666666,103.84205008546513L211.08978333333334,106.33642251292866L211.55457500000003,85.68595995505653L212.01936666666666,97.15233519673349L212.48415833333334,106.09854348003864L212.94895,96.22930387655896L213.41374166666665,85.98290781180066L213.76698333333331,100.99106120566529L214.231775,100.93687747915588L214.69656666666668,114.48662504553795L215.1613583333333,104.39131930470467L215.62615,111.32157742977142L216.09094166666668,107.59527819852036L216.55573333333334,107.46271995206676L217.020525,109.74398218095303L217.48531666666668,100.27522494395576L217.95010833333333,102.37831585109234L218.30335000000002,98.13508726656438L218.76814166666665,88.56955816348396L219.23293333333334,103.66314860681695L219.697725,89.85844155152641L220.16251666666668,97.18821284671627L220.62730833333333,97.63071835041048L221.0921,92.20862103005253L221.55689166666667,88.91741273303829L222.02168333333333,75.64520736535393L222.48647499999998,94.47714462876321L222.83971666666667,113.55132013559341L223.30450833333333,103.820679957668L223.7693,107.14392388860387L224.23409166666667,109.26976700623833L224.69888333333333,100.85846384366356L225.163675,95.14907586077851L225.62846666666667,110.78813696901005L226.09325833333332,93.59650587042175L226.55805,85.58412914474808L227.0228416666667,104.93406491974991L227.37608333333333,111.69799938797951L227.84087499999998,103.28096797068916L228.30566666666667,104.78422629336518L228.77045833333335,93.1833326816559L229.23524999999998,91.11661488811177L229.70004166666666,95.55767687658471L230.16483333333335,100.69642551243305L230.62962499999998,115.2377044161161L231.09441666666666,86.95075685779256L231.55920833333334,110.94891056418419L231.91245,113.85081484913826L232.3772416666667,106.54805935919285L232.84203333333332,110.7120224585136L233.306825,104.08766530454159L233.7716166666667,92.44776045282684L234.23640833333332,97.69331191976868L234.7012,109.12468309203786L235.16599166666668,93.87676008045675L235.63078333333334,101.58952039976917L236.095575,111.23018612464271L236.44881666666666,114.34011993308864L236.91360833333334,109.6752344320218L237.3784,96.3353374352058L237.84319166666666,117.51236046353978L238.30798333333334,113.63279782235622L238.772775,92.5022484113773L239.23756666666668,85.04314372936886L239.70235833333334,99.22548097868763L240.16715,95.76715802152954L240.63194166666668,103.02719498674077L240.98518333333334,107.6713579396407L241.449975,108.13833239177865L241.91476666666668,92.17387773096563L242.37955833333334,100.43745016058288L242.84435,93.53278229633969L243.30914166666665,98.1950861712297L243.77393333333333,94.81862771014374L244.23872500000002,101.78853596250218L244.70351666666664,88.14923117558163L245.16830833333333,109.13780418535076L245.52155,108.6245386550824L245.98634166666668,98.82297764221829L246.45113333333333,112.47873703638714L246.915925,102.60559022426605L247.38071666666667,119.34322888652486L247.84550833333336,89.96682638923329L248.31029999999998,97.90472711126012L248.77509166666667,87.76862385372323L249.23988333333335,92.16746278107168L249.70467499999998,107.55579757193726L250.05791666666664,117.43220835924149L250.52270833333333,110.59365880986057L250.9875,120.46295056740445L251.45229166666664,122.33863671620688L251.91708333333332,94.62052918970586L252.381875,124.15518884857497L252.84666666666666,100.10780605177086L253.31145833333332,107.2071737299363L253.77625,95.64541305104893L254.24104166666666,109.23927426338196" style="fill: none;" fill="none"></path></g></g></g></g></g></g><g transform="translate(51, 175)" clip-path="url(#clip_1)"><clipPath id="clip_1"><rect width="278" height="25"></rect></clipPath><g><g><line x1="0" y1="0" x2="0" y2="5" style="visibility: inherit;" fill="rgb(0, 0, 0)" stroke="rgb(204, 204, 204)" stroke-width="1px"></line><line x1="23.239583333333332" y1="0" x2="23.239583333333332" y2="5" style="visibility: inherit;" fill="rgb(0, 0, 0)" stroke="rgb(204, 204, 204)" stroke-width="1px"></line><line x1="46.479166666666664" y1="0" x2="46.479166666666664" y2="5" style="visibility: inherit;" fill="rgb(0, 0, 0)" stroke="rgb(204, 204, 204)" stroke-width="1px"></line><line x1="69.71875" y1="0" x2="69.71875" y2="5" style="visibility: inherit;" fill="rgb(0, 0, 0)" stroke="rgb(204, 204, 204)" stroke-width="1px"></line><line x1="92.95833333333333" y1="0" x2="92.95833333333333" y2="5" style="visibility: inherit;" fill="rgb(0, 0, 0)" stroke="rgb(204, 204, 204)" stroke-width="1px"></line><line x1="116.19791666666667" y1="0" x2="116.19791666666667" y2="5" style="visibility: inherit;" fill="rgb(0, 0, 0)" stroke="rgb(204, 204, 204)" stroke-width="1px"></line><line x1="139.4375" y1="0" x2="139.4375" y2="5" style="visibility: inherit;" fill="rgb(0, 0, 0)" stroke="rgb(204, 204, 204)" stroke-width="1px"></line><line x1="162.67708333333334" y1="0" x2="162.67708333333334" y2="5" style="visibility: inherit;" fill="rgb(0, 0, 0)" stroke="rgb(204, 204, 204)" stroke-width="1px"></line><line x1="185.91666666666666" y1="0" x2="185.91666666666666" y2="5" style="visibility: inherit;" fill="rgb(0, 0, 0)" stroke="rgb(204, 204, 204)" stroke-width="1px"></line><line x1="209.15625" y1="0" x2="209.15625" y2="5" style="visibility: inherit;" fill="rgb(0, 0, 0)" stroke="rgb(204, 204, 204)" stroke-width="1px"></line><line x1="232.39583333333334" y1="0" x2="232.39583333333334" y2="5" style="visibility: inherit;" fill="rgb(0, 0, 0)" stroke="rgb(204, 204, 204)" stroke-width="1px"></line><line x1="255.63541666666666" y1="0" x2="255.63541666666666" y2="5" style="visibility: inherit;" fill="rgb(0, 0, 0)" stroke="rgb(204, 204, 204)" stroke-width="1px"></line><line x1="278.875" y1="0" x2="278.875" y2="5" style="visibility: inherit;" fill="rgb(0, 0, 0)" stroke="rgb(204, 204, 204)" stroke-width="1px"></line></g><g transform="translate(0, 8)"><text x="0" y="0" dx="0em" dy="0.95em" style="text-anchor: middle; visibility: hidden; font-family: Roboto, sans-serif; font-size: 12px; font-weight: 200;" fill="rgb(50, 49, 63)" stroke="none" stroke-width="1px">-5k</text><text x="23.239583333333332" y="0" dx="0em" dy="0.95em" style="text-anchor: middle; visibility: inherit; font-family: Roboto, sans-serif; font-size: 12px; font-weight: 200;" fill="rgb(50, 49, 63)" stroke="none" stroke-width="1px">0</text><text x="46.479166666666664" y="0" dx="0em" dy="0.95em" style="text-anchor: middle; visibility: hidden; font-family: Roboto, sans-serif; font-size: 12px; font-weight: 200;" fill="rgb(50, 49, 63)" stroke="none" stroke-width="1px">5k</text><text x="69.71875" y="0" dx="0em" dy="0.95em" style="text-anchor: middle; visibility: inherit; font-family: Roboto, sans-serif; font-size: 12px; font-weight: 200;" fill="rgb(50, 49, 63)" stroke="none" stroke-width="1px">10k</text><text x="92.95833333333333" y="0" dx="0em" dy="0.95em" style="text-anchor: middle; visibility: hidden; font-family: Roboto, sans-serif; font-size: 12px; font-weight: 200;" fill="rgb(50, 49, 63)" stroke="none" stroke-width="1px">15k</text><text x="116.19791666666667" y="0" dx="0em" dy="0.95em" style="text-anchor: middle; visibility: inherit; font-family: Roboto, sans-serif; font-size: 12px; font-weight: 200;" fill="rgb(50, 49, 63)" stroke="none" stroke-width="1px">20k</text><text x="139.4375" y="0" dx="0em" dy="0.95em" style="text-anchor: middle; visibility: hidden; font-family: Roboto, sans-serif; font-size: 12px; font-weight: 200;" fill="rgb(50, 49, 63)" stroke="none" stroke-width="1px">25k</text><text x="162.67708333333334" y="0" dx="0em" dy="0.95em" style="text-anchor: middle; visibility: inherit; font-family: Roboto, sans-serif; font-size: 12px; font-weight: 200;" fill="rgb(50, 49, 63)" stroke="none" stroke-width="1px">30k</text><text x="185.91666666666666" y="0" dx="0em" dy="0.95em" style="text-anchor: middle; visibility: hidden; font-family: Roboto, sans-serif; font-size: 12px; font-weight: 200;" fill="rgb(50, 49, 63)" stroke="none" stroke-width="1px">35k</text><text x="209.15625" y="0" dx="0em" dy="0.95em" style="text-anchor: middle; visibility: inherit; font-family: Roboto, sans-serif; font-size: 12px; font-weight: 200;" fill="rgb(50, 49, 63)" stroke="none" stroke-width="1px">40k</text><text x="232.39583333333334" y="0" dx="0em" dy="0.95em" style="text-anchor: middle; visibility: hidden; font-family: Roboto, sans-serif; font-size: 12px; font-weight: 200;" fill="rgb(50, 49, 63)" stroke="none" stroke-width="1px">45k</text><text x="255.63541666666666" y="0" dx="0em" dy="0.95em" style="text-anchor: middle; visibility: inherit; font-family: Roboto, sans-serif; font-size: 12px; font-weight: 200;" fill="rgb(50, 49, 63)" stroke="none" stroke-width="1px">50k</text><text x="278.875" y="0" dx="0em" dy="0.95em" style="text-anchor: middle; visibility: hidden; font-family: Roboto, sans-serif; font-size: 12px; font-weight: 200;" fill="rgb(50, 49, 63)" stroke="none" stroke-width="1px">55k</text></g><line x1="0" y1="0" x2="278.875" y2="0" fill="rgb(0, 0, 0)" stroke="rgb(204, 204, 204)" stroke-width="1px"></line></g></g></g></g></svg>